<svg width="4621" height="854" viewBox="0 0 4621 854" fill="none" xmlns="http://www.w3.org/2000/svg">
  <path d="M0.746094 78.3313C111.329 448.49 820.151 544.59 1136.45 360.864C1893.44 -78.8387 2586.02 328.32 2643.68 371.661C3164.1 762.841 3827.97 1129.66 4619.59 2.16797V852.726L0.746162 852.791L0.746094 78.3313Z" fill="#4D5850" stroke="black"/>
  <path d="M3306 835.055C3306.58 834.616 3314.91 834.018 3324.51 833.725C3357.88 832.707 3369.46 832.051 3369.46 831.179C3369.46 830.697 3373.62 830.065 3378.71 829.776C3393.34 828.943 3403.75 827.745 3428.46 824.053C3432.03 823.519 3437.43 822.836 3440.46 822.535C3443.48 822.235 3446.39 821.578 3446.91 821.077C3447.43 820.575 3450.47 820.165 3453.66 820.165C3456.86 820.165 3459.46 819.716 3459.46 819.165C3459.46 818.614 3461.91 818.165 3464.9 818.165C3467.89 818.165 3470.62 817.715 3470.96 817.165C3471.3 816.615 3473.32 816.165 3475.46 816.165C3477.59 816.165 3479.62 815.715 3479.96 815.165C3480.3 814.615 3482.55 814.165 3484.96 814.165C3487.37 814.165 3489.62 813.715 3489.96 813.164C3490.3 812.614 3492.8 812.164 3495.52 812.164C3498.23 812.165 3500.46 811.715 3500.46 811.165C3500.46 810.614 3502.01 810.164 3503.9 810.165C3505.79 810.165 3507.62 809.715 3507.96 809.165C3508.3 808.615 3510.57 808.165 3513.02 808.165C3515.46 808.165 3517.46 807.715 3517.46 807.165C3517.46 806.614 3519.26 806.165 3521.46 806.165C3523.66 806.165 3525.46 805.715 3525.46 805.165C3525.46 804.615 3527.23 804.165 3529.4 804.165C3531.57 804.165 3533.62 803.715 3533.96 803.165C3534.3 802.615 3536.1 802.165 3537.96 802.165C3539.82 802.165 3541.62 801.715 3541.96 801.165C3542.3 800.615 3544.13 800.165 3546.02 800.165C3547.91 800.165 3549.46 799.715 3549.46 799.165C3549.46 798.615 3551.01 798.165 3552.9 798.165C3554.79 798.165 3556.62 797.715 3556.96 797.165C3557.3 796.615 3559.12 796.165 3561.02 796.165C3562.91 796.165 3564.46 795.715 3564.46 795.165C3564.46 794.615 3566.03 794.165 3567.96 794.165C3569.88 794.165 3571.46 793.715 3571.46 793.165C3571.46 792.615 3573.03 792.165 3574.96 792.165C3576.88 792.165 3578.46 791.715 3578.46 791.165C3578.46 790.614 3579.78 790.165 3581.4 790.165C3583.02 790.165 3584.62 789.715 3584.96 789.165C3585.3 788.615 3586.9 788.165 3588.52 788.165C3590.13 788.165 3591.46 787.715 3591.46 787.165C3591.46 786.614 3592.81 786.165 3594.46 786.165C3596.11 786.165 3597.46 785.715 3597.46 785.165C3597.46 784.615 3599.01 784.165 3600.9 784.165C3602.79 784.165 3604.62 783.715 3604.96 783.165C3605.3 782.615 3606.46 782.165 3607.53 782.165C3608.61 782.165 3610.38 781.715 3611.47 781.165C3612.56 780.615 3614.35 779.715 3615.44 779.165C3616.54 778.615 3618.34 778.165 3619.46 778.165C3620.57 778.165 3622.38 777.715 3623.47 777.165C3624.56 776.615 3626.35 775.715 3627.44 775.165C3628.54 774.615 3630.31 774.165 3631.39 774.165C3632.46 774.165 3633.62 773.715 3633.96 773.165C3634.3 772.615 3635.67 772.165 3637.02 772.165C3638.36 772.165 3639.46 771.715 3639.46 771.165C3639.46 770.615 3640.81 770.165 3642.46 770.165C3644.11 770.165 3645.46 769.715 3645.46 769.165C3645.46 768.615 3646.36 768.165 3647.47 768.165C3648.58 768.165 3650.38 767.715 3651.47 767.165C3652.56 766.615 3654.35 765.715 3655.44 765.165C3656.54 764.615 3658.34 764.165 3659.45 764.165C3660.55 764.165 3661.46 763.715 3661.46 763.165C3661.46 762.615 3662.56 762.165 3663.9 762.165C3665.24 762.165 3666.62 761.715 3666.96 761.165C3667.3 760.615 3668.45 760.165 3669.52 760.165C3670.59 760.165 3671.46 759.715 3671.46 759.165C3671.46 758.615 3672.58 758.165 3673.96 758.165C3675.33 758.165 3676.46 757.715 3676.46 757.165C3676.46 756.615 3677.36 756.165 3678.47 756.165C3679.58 756.165 3681.38 755.715 3682.47 755.165L3686.44 753.165C3687.54 752.615 3689.11 752.165 3689.94 752.165C3690.78 752.165 3691.46 751.715 3691.46 751.165C3691.46 750.615 3692.33 750.165 3693.4 750.165C3694.47 750.165 3695.62 749.715 3695.96 749.165C3696.3 748.615 3697.67 748.165 3699.02 748.165C3700.36 748.165 3701.46 747.715 3701.46 747.165C3701.46 746.615 3702.36 746.165 3703.46 746.165C3704.56 746.165 3705.46 745.715 3705.46 745.165C3705.46 744.615 3706.33 744.165 3707.4 744.165C3708.47 744.165 3709.62 743.715 3709.96 743.165C3710.3 742.615 3711.67 742.165 3713.02 742.165C3714.36 742.165 3715.46 741.715 3715.46 741.165C3715.46 740.615 3716.36 740.165 3717.46 740.165C3718.56 740.165 3719.46 739.715 3719.46 739.165C3719.46 738.615 3720.36 738.165 3721.46 738.165C3722.56 738.165 3723.46 737.715 3723.46 737.165C3723.46 736.615 3724.36 736.165 3725.46 736.165C3726.56 736.165 3727.46 735.722 3727.46 735.181C3727.46 734.55 3705.82 734.055 3667.21 733.805C3630.82 733.569 3603.99 732.98 3599.46 732.316C3595.33 731.711 3587.01 730.734 3580.96 730.144C3559.17 728.019 3545.78 726.546 3526.46 724.149C3521.78 723.569 3514.81 722.85 3510.96 722.552C3507.11 722.253 3503.53 721.595 3503.01 721.087C3502.49 720.58 3499.47 720.165 3496.32 720.165C3493.16 720.165 3490.3 719.715 3489.96 719.165C3489.62 718.615 3486.69 718.165 3483.46 718.165C3480.22 718.165 3477.3 717.715 3476.96 717.165C3476.62 716.615 3474.14 716.165 3471.46 716.165C3468.77 716.165 3466.3 715.715 3465.96 715.165C3465.62 714.615 3463.37 714.165 3460.96 714.165C3458.55 714.165 3456.3 713.715 3455.96 713.165C3455.62 712.615 3452.24 712.165 3448.46 712.165C3444.67 712.165 3441.3 711.715 3440.96 711.165C3440.62 710.615 3438.37 710.165 3435.96 710.165C3433.55 710.165 3431.3 709.715 3430.96 709.165C3430.62 708.615 3428.43 708.165 3426.1 708.165C3423.77 708.165 3421.43 707.759 3420.91 707.262C3420.38 706.766 3417.93 706.105 3415.46 705.794C3403.86 704.337 3401.83 703.993 3399.96 703.171C3398.86 702.686 3396.38 702.069 3394.46 701.799C3392.53 701.53 3388.93 700.791 3386.46 700.156C3383.98 699.521 3380.27 698.767 3378.2 698.478C3376.14 698.19 3374.2 697.551 3373.89 697.06C3373.59 696.568 3371.82 696.165 3369.96 696.165C3368.1 696.165 3366.3 695.715 3365.96 695.165C3365.62 694.615 3363.82 694.165 3361.96 694.165C3360.1 694.165 3358.3 693.715 3357.96 693.165C3357.62 692.615 3356.04 692.165 3354.46 692.165C3352.87 692.165 3351.3 691.715 3350.96 691.165C3350.62 690.615 3348.34 690.165 3345.9 690.165C3343.46 690.165 3341.46 689.715 3341.46 689.165C3341.46 688.615 3339.91 688.165 3338.02 688.165C3336.12 688.165 3334.33 687.765 3334.03 687.276C3333.72 686.787 3332.01 686.144 3330.22 685.848C3328.43 685.552 3324.93 684.795 3322.46 684.165C3319.98 683.536 3316.49 682.778 3314.7 682.482C3312.91 682.186 3311.19 681.544 3310.89 681.055C3310.59 680.566 3308.79 680.165 3306.9 680.165C3305.01 680.165 3303.46 679.715 3303.46 679.165C3303.46 678.615 3301.66 678.165 3299.46 678.165C3297.26 678.165 3295.46 677.715 3295.46 677.165C3295.46 676.615 3294.13 676.165 3292.52 676.165C3290.9 676.165 3289.3 675.715 3288.96 675.165C3288.62 674.615 3287.04 674.165 3285.46 674.165C3283.87 674.165 3282.3 673.715 3281.96 673.165C3281.62 672.615 3280.04 672.165 3278.46 672.165C3276.87 672.165 3275.3 671.715 3274.96 671.165C3274.62 670.615 3273.27 670.165 3271.96 670.165C3270.65 670.165 3269.3 669.715 3268.96 669.165C3268.62 668.615 3267.27 668.165 3265.96 668.165C3264.65 668.165 3263.3 667.715 3262.96 667.165C3262.62 666.615 3261.04 666.165 3259.46 666.165C3257.87 666.165 3256.3 665.715 3255.96 665.165C3255.62 664.615 3254.02 664.165 3252.4 664.165C3250.78 664.165 3249.46 663.715 3249.46 663.165C3249.46 662.615 3248.33 662.165 3246.95 662.165C3245.56 662.165 3243.65 661.759 3242.69 661.263C3241.74 660.766 3238.93 659.822 3236.46 659.165C3233.98 658.508 3231.28 657.64 3230.46 657.236C3229.63 656.832 3226.82 655.878 3224.21 655.115C3221.6 654.352 3219.46 653.377 3219.46 652.947C3219.46 652.517 3218.11 652.165 3216.46 652.165C3214.81 652.165 3213.46 651.715 3213.46 651.165C3213.46 650.615 3212.55 650.165 3211.44 650.165C3210.34 650.165 3208.54 649.715 3207.44 649.165C3206.35 648.615 3204.56 647.715 3203.47 647.165C3202.38 646.615 3200.58 646.165 3199.47 646.165C3198.36 646.165 3197.46 645.715 3197.46 645.165C3197.46 644.615 3196.36 644.165 3195.02 644.165C3193.67 644.165 3192.3 643.715 3191.96 643.165C3191.62 642.615 3190.46 642.165 3189.39 642.165C3188.31 642.165 3186.54 641.715 3185.44 641.165L3181.47 639.165C3180.38 638.615 3178.38 638.165 3177.03 638.165C3175.68 638.165 3174.3 637.715 3173.96 637.165C3173.62 636.615 3172.27 636.165 3170.96 636.165C3169.65 636.165 3168.3 635.715 3167.96 635.165C3167.62 634.615 3166.47 634.165 3165.4 634.165C3164.33 634.165 3163.46 633.715 3163.46 633.165C3163.46 632.615 3162.36 632.165 3161.02 632.165C3159.68 632.165 3158.3 631.715 3157.96 631.165C3157.62 630.615 3156.47 630.165 3155.4 630.165C3154.33 630.165 3153.46 629.715 3153.46 629.165C3153.46 628.615 3152.55 628.165 3151.44 628.165C3150.34 628.165 3148.54 627.715 3147.44 627.165L3143.47 625.165C3142.38 624.615 3140.58 624.165 3139.47 624.165C3138.36 624.165 3137.46 623.715 3137.46 623.165C3137.46 622.615 3136.55 622.165 3135.44 622.165C3134.34 622.165 3132.65 621.765 3131.69 621.275C3129.36 620.076 3120.56 616.15 3117.46 614.922C3116.08 614.377 3114.18 613.534 3113.22 613.049C3112.27 612.563 3110.58 612.165 3109.47 612.165C3108.36 612.165 3107.46 611.715 3107.46 611.165C3107.46 610.615 3106.36 610.165 3105.02 610.165C3103.67 610.165 3102.3 609.715 3101.96 609.165C3101.62 608.615 3100.47 608.165 3099.4 608.165C3098.33 608.165 3097.46 607.715 3097.46 607.165C3097.46 606.615 3096.56 606.165 3095.46 606.165C3094.36 606.165 3093.46 605.715 3093.46 605.165C3093.46 604.615 3092.78 604.165 3091.94 604.165C3091.11 604.165 3089.54 603.715 3088.44 603.165L3084.47 601.165C3083.38 600.615 3081.8 600.165 3080.97 600.165C3080.14 600.165 3079.46 599.715 3079.46 599.165C3079.46 598.615 3078.78 598.165 3077.95 598.165C3077.11 598.165 3075.54 597.715 3074.44 597.165C3073.35 596.615 3071.56 595.715 3070.47 595.165C3069.38 594.615 3067.8 594.165 3066.97 594.165C3066.14 594.165 3065.46 593.715 3065.46 593.165C3065.46 592.615 3064.78 592.165 3063.94 592.165C3063.11 592.165 3061.54 591.715 3060.44 591.165L3056.47 589.165C3055.38 588.615 3053.8 588.165 3052.97 588.165C3052.14 588.165 3051.46 587.715 3051.46 587.165C3051.46 586.615 3050.56 586.165 3049.46 586.165C3048.36 586.165 3047.46 585.715 3047.46 585.165C3047.46 584.615 3046.56 584.165 3045.46 584.165C3044.36 584.165 3043.46 583.715 3043.46 583.165C3043.46 582.615 3042.83 582.165 3042.05 582.165C3041.28 582.165 3038.92 581.321 3036.8 580.288C3034.69 579.256 3030.08 577.006 3026.57 575.288C3023.05 573.571 3019.57 572.165 3018.82 572.165C3018.07 572.165 3017.46 571.715 3017.46 571.165C3017.46 570.615 3016.56 570.165 3015.46 570.165C3014.36 570.165 3013.46 569.715 3013.46 569.165C3013.46 568.615 3012.56 568.165 3011.46 568.165C3010.36 568.165 3009.46 567.715 3009.46 567.165C3009.46 566.615 3008.56 566.165 3007.46 566.165C3006.36 566.165 3005.46 565.715 3005.46 565.165C3005.46 564.615 3004.56 564.165 3003.46 564.165C3002.36 564.165 3001.46 563.715 3001.46 563.165C3001.46 562.615 3000.56 562.165 2999.46 562.165C2998.36 562.165 2997.46 561.715 2997.46 561.165C2997.46 560.615 2996.56 560.165 2995.46 560.165C2994.36 560.165 2993.46 559.715 2993.46 559.165C2993.46 558.615 2992.56 558.165 2991.46 558.165C2990.36 558.165 2989.46 557.715 2989.46 557.165C2989.46 556.615 2988.56 556.165 2987.46 556.165C2986.36 556.165 2985.46 555.715 2985.46 555.165C2985.46 554.615 2984.56 554.165 2983.46 554.165C2982.36 554.165 2981.46 553.715 2981.46 553.165C2981.46 552.615 2980.56 552.165 2979.46 552.165C2978.36 552.165 2977.46 551.715 2977.46 551.165C2977.46 550.615 2976.56 550.165 2975.46 550.165C2974.36 550.165 2973.46 549.715 2973.46 549.165C2973.46 548.615 2972.56 548.165 2971.46 548.165C2970.36 548.165 2969.46 547.715 2969.46 547.165C2969.46 546.615 2968.56 546.165 2967.46 546.165C2966.36 546.165 2965.46 545.715 2965.46 545.165C2965.46 544.615 2964.56 544.165 2963.46 544.165C2962.36 544.165 2961.46 543.799 2961.46 543.352C2961.46 542.904 2959.88 541.92 2957.96 541.165C2956.03 540.41 2954.46 539.426 2954.46 538.978C2954.46 538.531 2953.56 538.165 2952.46 538.165C2951.36 538.165 2950.45 537.828 2950.44 537.415C2950.44 537.003 2947.05 535.092 2942.94 533.168C2938.82 531.245 2935.46 529.333 2935.46 528.918C2935.46 528.504 2934.56 528.165 2933.46 528.165C2932.36 528.165 2931.46 527.715 2931.46 527.165C2931.46 526.615 2930.6 526.165 2929.54 526.165C2928.49 526.165 2927.48 525.828 2927.29 525.415C2927.01 524.778 2920.08 520.938 2911.72 516.779C2910.48 516.167 2909.47 515.328 2909.47 514.915C2909.46 514.503 2908.56 514.165 2907.46 514.165C2906.36 514.165 2905.46 513.768 2905.46 513.282C2905.46 512.796 2904.67 512.149 2903.71 511.844C2901.37 511.102 2896.04 507.854 2895.62 506.915C2895.44 506.503 2894.43 506.165 2893.38 506.165C2892.32 506.165 2891.46 505.715 2891.46 505.165C2891.46 504.615 2890.56 504.165 2889.46 504.165C2888.36 504.165 2887.46 503.715 2887.46 503.165C2887.46 502.615 2886.56 502.165 2885.46 502.165C2884.36 502.165 2883.46 501.715 2883.46 501.165C2883.46 500.615 2882.78 500.165 2881.96 500.165C2881.13 500.165 2880.46 499.828 2880.45 499.415C2880.45 499.003 2877.98 497.54 2874.96 496.165C2871.94 494.79 2869.46 493.328 2869.46 492.915C2869.46 492.503 2868.56 492.165 2867.46 492.165C2866.36 492.165 2865.46 491.715 2865.46 491.165C2865.46 490.615 2864.56 490.165 2863.46 490.165C2862.36 490.165 2861.45 489.828 2861.45 489.415C2861.45 489.003 2860.43 488.164 2859.2 487.551C2850.83 483.392 2843.91 479.553 2843.63 478.915C2843.44 478.503 2842.43 478.165 2841.38 478.165C2840.32 478.165 2839.46 477.799 2839.46 477.352C2839.46 476.904 2837.88 475.921 2835.96 475.165C2834.03 474.41 2832.46 473.426 2832.46 472.979C2832.46 472.531 2831.78 472.165 2830.96 472.165C2830.13 472.165 2829.46 471.715 2829.46 471.165C2829.46 470.615 2828.56 470.165 2827.46 470.165C2826.36 470.165 2825.46 469.768 2825.46 469.282C2825.46 468.796 2824.67 468.149 2823.71 467.844C2821.99 467.3 2816.45 464.154 2815.46 463.165C2814.47 462.176 2808.92 459.03 2807.21 458.487C2806.25 458.182 2805.46 457.534 2805.46 457.048C2805.46 456.563 2804.76 456.165 2803.92 456.165C2803.07 456.165 2801.41 455.265 2800.23 454.165C2799.05 453.065 2797.49 452.165 2796.77 452.165C2796.05 452.165 2795.46 451.715 2795.46 451.165C2795.46 450.615 2794.56 450.165 2793.46 450.165C2792.36 450.165 2791.46 449.791 2791.46 449.334C2791.46 448.877 2790.22 447.865 2788.71 447.084C2787.2 446.304 2785.09 444.878 2784.02 443.915C2782.95 442.953 2781.49 442.165 2780.77 442.165C2780.05 442.165 2779.46 441.715 2779.46 441.165C2779.46 440.615 2778.87 440.165 2778.15 440.165C2777.43 440.165 2775.96 439.378 2774.9 438.415C2773.83 437.453 2771.72 436.027 2770.21 435.246C2768.7 434.466 2767.46 433.453 2767.46 432.996C2767.46 432.539 2766.56 432.165 2765.46 432.165C2764.36 432.165 2763.46 431.791 2763.46 431.334C2763.46 430.877 2762.22 429.868 2760.71 429.091C2759.2 428.314 2757.28 426.998 2756.46 426.165C2755.63 425.333 2753.72 424.016 2752.21 423.239C2750.7 422.463 2749.46 421.453 2749.46 420.996C2749.46 420.539 2748.9 420.164 2748.21 420.163C2747.52 420.162 2745.38 418.813 2743.46 417.165C2741.53 415.518 2739.4 414.169 2738.71 414.168C2738.02 414.167 2737.46 413.791 2737.46 413.334C2737.46 412.877 2736.22 411.868 2734.71 411.091C2733.2 410.314 2731.23 408.888 2730.34 407.922C2729.45 406.956 2728.21 406.165 2727.59 406.165C2726.97 406.165 2726.46 405.715 2726.46 405.165C2726.46 404.615 2725.78 404.165 2724.96 404.165C2724.13 404.165 2723.46 403.791 2723.46 403.334C2723.46 402.877 2722.22 401.868 2720.71 401.091C2719.2 400.314 2717.23 398.888 2716.34 397.922C2715.45 396.956 2714.21 396.165 2713.59 396.165C2712.97 396.165 2712.46 395.715 2712.46 395.165C2712.46 394.615 2711.78 394.165 2710.96 394.165C2710.13 394.165 2709.46 393.812 2709.46 393.381C2709.46 392.949 2708.1 391.792 2706.43 390.808C2704.77 389.825 2702.4 388.04 2701.18 386.843C2699.96 385.645 2697.72 384.027 2696.21 383.246C2694.7 382.466 2693.46 381.453 2693.46 380.996C2693.46 380.539 2692.78 380.165 2691.96 380.165C2691.13 380.165 2690.46 379.715 2690.46 379.165C2690.46 378.615 2689.78 378.165 2688.96 378.165C2688.13 378.165 2687.46 377.791 2687.46 377.334C2687.46 376.877 2686.22 375.865 2684.71 375.084C2683.2 374.304 2681.09 372.878 2680.02 371.915C2678.95 370.953 2677.49 370.165 2676.77 370.165C2676.05 370.165 2675.46 369.715 2675.46 369.165C2675.46 368.615 2674.56 368.165 2673.46 368.165C2672.36 368.165 2671.46 367.715 2671.46 367.165C2671.46 366.615 2670.78 366.165 2669.96 366.165C2669.13 366.165 2668.46 365.715 2668.46 365.165C2668.46 364.615 2667.78 364.165 2666.96 364.165C2666.13 364.165 2665.46 363.768 2665.46 363.282C2665.46 362.796 2664.67 362.149 2663.71 361.844C2662 361.3 2656.45 358.154 2655.46 357.165C2654.47 356.176 2648.92 353.03 2647.21 352.487C2646.25 352.182 2645.46 351.535 2645.46 351.049C2645.46 350.563 2644.56 350.165 2643.46 350.165C2642.36 350.165 2641.46 349.715 2641.46 349.165C2641.46 348.615 2640.56 348.165 2639.46 348.165C2638.36 348.165 2637.46 347.715 2637.46 347.165C2637.46 346.615 2636.87 346.165 2636.15 346.165C2635.43 346.165 2633.87 345.265 2632.69 344.165C2631.51 343.065 2629.85 342.165 2629 342.165C2628.15 342.165 2627.46 341.715 2627.46 341.165C2627.46 340.615 2626.87 340.165 2626.15 340.165C2625.43 340.165 2623.94 339.378 2622.85 338.415C2620.03 335.942 2616.74 334.165 2614.97 334.165C2614.14 334.165 2613.46 333.715 2613.46 333.165C2613.46 332.615 2612.56 332.165 2611.46 332.165C2610.36 332.165 2609.46 331.715 2609.46 331.165C2609.46 330.615 2608.78 330.165 2607.96 330.165C2607.13 330.165 2606.46 329.715 2606.46 329.165C2606.46 328.615 2605.78 328.165 2604.96 328.165C2604.13 328.165 2603.46 327.715 2603.46 327.165C2603.46 326.615 2602.56 326.165 2601.46 326.165C2600.36 326.165 2599.46 325.715 2599.46 325.165C2599.46 324.615 2598.56 324.165 2597.46 324.165C2596.36 324.165 2595.46 323.715 2595.46 323.165C2595.46 322.615 2594.56 322.165 2593.46 322.165C2592.36 322.165 2591.46 321.715 2591.46 321.165C2591.46 320.615 2590.56 320.165 2589.46 320.165C2588.36 320.165 2587.46 319.715 2587.46 319.165C2587.46 318.615 2586.56 318.165 2585.46 318.165C2584.36 318.165 2583.46 317.715 2583.46 317.165C2583.46 316.615 2582.56 316.165 2581.46 316.165C2580.36 316.165 2579.46 315.768 2579.46 315.282C2579.46 314.796 2578.67 314.149 2577.71 313.843C2575.37 313.102 2570.04 309.854 2569.63 308.915C2569.44 308.503 2568.65 308.165 2567.86 308.165C2567.07 308.165 2565.65 307.738 2564.69 307.215C2559.88 304.581 2545.75 298.165 2544.76 298.165C2544.13 298.165 2543.48 297.828 2543.29 297.415C2542.82 296.357 2530.46 290.165 2528.82 290.165C2528.07 290.165 2527.46 289.715 2527.46 289.165C2527.46 288.615 2526.56 288.165 2525.46 288.165C2524.36 288.165 2523.46 287.715 2523.46 287.165C2523.46 286.615 2522.87 286.165 2522.16 286.165C2520.32 286.165 2515.48 283.813 2515.47 282.915C2515.47 282.503 2514.83 282.165 2514.05 282.165C2512.84 282.165 2509.66 280.786 2502.22 277.04C2501.27 276.559 2499.8 276.165 2498.97 276.165C2498.14 276.165 2497.46 275.715 2497.46 275.165C2497.46 274.615 2496.56 274.165 2495.46 274.165C2494.36 274.165 2493.46 273.715 2493.46 273.165C2493.46 272.615 2492.56 272.165 2491.46 272.165C2490.36 272.165 2489.46 271.715 2489.46 271.165C2489.46 270.615 2488.78 270.165 2487.95 270.165C2487.11 270.165 2485.43 269.645 2484.2 269.009C2479.5 266.583 2478.44 266.165 2476.97 266.165C2476.14 266.165 2475.46 265.715 2475.46 265.165C2475.46 264.615 2474.36 264.165 2473.02 264.165C2471.67 264.165 2470.3 263.715 2469.96 263.165C2469.62 262.615 2468.47 262.165 2467.4 262.165C2466.33 262.165 2465.46 261.715 2465.46 261.165C2465.46 260.615 2464.78 260.165 2463.94 260.165C2462.48 260.165 2461.41 259.747 2456.72 257.321C2455.49 256.685 2453.8 256.165 2452.97 256.165C2452.14 256.165 2451.46 255.715 2451.46 255.165C2451.46 254.615 2450.36 254.165 2449.02 254.165C2447.68 254.165 2446.3 253.715 2445.96 253.165C2445.62 252.615 2444.47 252.165 2443.4 252.165C2442.33 252.165 2441.46 251.715 2441.46 251.165C2441.46 250.615 2440.78 250.165 2439.94 250.165C2439.11 250.165 2437.54 249.715 2436.45 249.165L2432.47 247.165C2431.38 246.615 2429.8 246.165 2428.97 246.165C2428.14 246.165 2427.46 245.715 2427.46 245.165C2427.46 244.615 2426.11 244.165 2424.46 244.165C2422.81 244.165 2421.46 243.715 2421.46 243.165C2421.46 242.615 2420.55 242.165 2419.44 242.165C2418.34 242.165 2416.65 241.768 2415.69 241.282C2414.04 240.442 2410.34 238.852 2405.96 237.097C2404.86 236.657 2402.16 235.755 2399.96 235.093C2395.46 233.738 2391.79 232.357 2389.22 231.049C2388.27 230.563 2386.61 230.165 2385.53 230.165C2384.46 230.165 2383.3 229.715 2382.96 229.165C2382.62 228.615 2381.24 228.165 2379.9 228.165C2378.56 228.165 2377.46 227.715 2377.46 227.165C2377.46 226.615 2376.11 226.165 2374.46 226.165C2372.81 226.165 2371.46 225.715 2371.46 225.165C2371.46 224.615 2370.36 224.165 2369.02 224.165C2367.67 224.165 2366.3 223.715 2365.96 223.165C2365.62 222.615 2364.47 222.165 2363.4 222.165C2362.33 222.165 2361.46 221.715 2361.46 221.165C2361.46 220.615 2360.36 220.165 2359.02 220.165C2357.68 220.165 2356.3 219.715 2355.96 219.165C2355.62 218.615 2354.02 218.165 2352.4 218.165C2350.78 218.165 2349.46 217.715 2349.46 217.165C2349.46 216.615 2348.14 216.165 2346.52 216.165C2344.9 216.165 2343.3 215.715 2342.96 215.165C2342.62 214.615 2341.24 214.165 2339.9 214.165C2338.56 214.165 2337.46 213.715 2337.46 213.165C2337.46 212.615 2336.14 212.165 2334.52 212.165C2332.9 212.165 2331.3 211.715 2330.96 211.165C2330.62 210.615 2328.82 210.165 2326.96 210.165C2325.1 210.165 2323.3 209.715 2322.96 209.165C2322.62 208.615 2321.47 208.165 2320.4 208.165C2319.33 208.165 2318.46 207.715 2318.46 207.165C2318.46 206.615 2316.91 206.165 2315.02 206.165C2313.13 206.165 2311.3 205.715 2310.96 205.165C2310.62 204.615 2308.59 204.165 2306.46 204.165C2304.32 204.165 2302.3 203.715 2301.96 203.165C2301.62 202.615 2300.48 202.165 2299.43 202.165C2298.38 202.165 2296.02 201.321 2294.18 200.288C2291.06 198.54 2288.74 198.009 2277.71 196.533C2275.37 196.22 2273.46 195.559 2273.46 195.064C2273.46 194.57 2272.56 194.165 2271.46 194.165C2270.36 194.165 2269.46 193.715 2269.46 193.165C2269.46 192.615 2268.56 192.165 2267.46 192.165C2266.36 192.165 2265.46 191.715 2265.46 191.165C2265.46 190.615 2264.11 190.165 2262.46 190.165C2260.81 190.165 2259.46 189.768 2259.46 189.282C2259.46 188.796 2256.65 188.125 2253.21 187.792C2242.89 186.79 2238.48 186.003 2237.89 185.059C2237.59 184.568 2236.02 184.165 2234.4 184.165C2232.78 184.165 2231.46 183.715 2231.46 183.165C2231.46 182.615 2229.66 182.165 2227.46 182.165C2225.26 182.165 2223.46 181.754 2223.46 181.251C2223.46 180.748 2220.65 180.092 2217.21 179.794C2206.38 178.855 2200.99 178.001 2200.01 177.068C2199.49 176.572 2197.15 176.165 2194.82 176.165C2192.49 176.165 2190.3 175.715 2189.96 175.165C2189.62 174.615 2187.57 174.165 2185.4 174.165C2183.23 174.165 2181.46 173.715 2181.46 173.165C2181.46 172.615 2180.14 172.165 2178.52 172.165C2176.9 172.165 2175.3 171.715 2174.96 171.165C2174.62 170.615 2173.04 170.165 2171.46 170.165C2169.87 170.165 2168.3 169.715 2167.96 169.165C2167.62 168.615 2163.79 168.165 2159.46 168.165C2155.12 168.165 2151.3 167.715 2150.96 167.165C2150.62 166.615 2149.04 166.165 2147.46 166.165C2145.87 166.165 2144.3 165.715 2143.96 165.165C2143.62 164.615 2142.47 164.165 2141.4 164.165C2140.33 164.165 2139.46 163.738 2139.46 163.165C2139.46 162.593 2135.48 162.165 2130.16 162.165C2124.83 162.165 2123.33 161.532 2119.91 161.217C2114.59 160.727 2109.28 160.204 2103.96 159.752C2071.56 152.037 2034.94 153.916 2000.41 151.141C1996.22 150.804 1992.03 150.546 1987.84 150.165C1977.83 149.254 1967.9 147.282 1957.86 147.032C1956.44 146.998 1955.02 147.225 1953.61 147.263C1951.51 147.32 1949.41 147.263 1947.31 147.263C1941.8 147.261 1936.28 147.316 1930.77 147.255C1920.58 147.143 1916.49 148.033 1900.21 146.593C1895.83 146.206 1893.46 146.36 1893.46 147.033C1893.46 147.726 1883.26 148.076 1862.72 148.089C1842.54 148.1 1831.86 148.461 1831.64 149.137C1831.44 149.716 1828.14 150.166 1824.08 150.166C1820.11 150.166 1816.43 150.569 1815.91 151.062C1814.83 152.074 1807.26 152.884 1786.96 154.156C1770.84 155.166 1764.44 156.006 1762.8 157.323C1762.17 157.835 1756.39 158.167 1749.95 158.061C1742.69 157.94 1738.01 158.263 1737.61 158.912C1736.96 159.953 1731.29 160.767 1717.96 161.732C1714.11 162.011 1710.06 162.638 1708.96 163.126C1707.86 163.614 1704.93 164.313 1702.46 164.678C1696.58 165.547 1687.99 166.91 1680.21 168.211C1676.77 168.785 1671.71 169.501 1668.96 169.803C1666.21 170.105 1663.53 170.76 1663.01 171.259C1662.49 171.758 1659.22 172.167 1655.76 172.167C1652.23 172.167 1649.46 172.606 1649.46 173.167C1649.46 173.717 1647.21 174.167 1644.46 174.167C1641.71 174.167 1639.46 174.617 1639.46 175.167C1639.46 175.717 1637.21 176.167 1634.46 176.167C1631.71 176.167 1629.46 176.572 1629.46 177.066C1629.46 177.561 1627.55 178.21 1625.21 178.508C1622.87 178.806 1618.48 179.549 1615.46 180.159C1612.43 180.769 1608.16 181.517 1605.96 181.82C1603.76 182.124 1601.53 182.776 1601.01 183.27C1600.49 183.763 1598.15 184.167 1595.82 184.167C1593.49 184.167 1591.33 184.57 1591.02 185.062C1590.72 185.553 1588.67 186.229 1586.47 186.561C1584.26 186.894 1580.66 187.439 1578.45 187.773C1576.25 188.106 1574.2 188.781 1573.89 189.272C1573.59 189.764 1571.88 190.167 1570.1 190.167C1568.32 190.167 1566.43 190.571 1565.91 191.064C1565.39 191.558 1563.16 192.208 1560.96 192.508C1554.08 193.447 1550.03 194.272 1547.96 195.16C1545.86 196.06 1542.13 196.949 1536.71 197.848C1534.92 198.144 1533.46 198.787 1533.46 199.277C1533.46 199.766 1531.66 200.167 1529.46 200.167C1527.26 200.167 1525.46 200.617 1525.46 201.167C1525.46 201.717 1523.66 202.167 1521.46 202.167C1519.26 202.167 1517.46 202.617 1517.46 203.167C1517.46 203.717 1516.14 204.167 1514.52 204.167C1512.9 204.167 1511.3 204.617 1510.96 205.167C1510.62 205.717 1509.04 206.167 1507.46 206.167C1505.87 206.167 1504.3 206.617 1503.96 207.167C1503.62 207.717 1501.57 208.167 1499.4 208.167C1497.23 208.167 1495.46 208.617 1495.46 209.167C1495.46 209.717 1494.14 210.168 1492.52 210.168C1490.9 210.168 1489.3 210.618 1488.96 211.167C1488.62 211.717 1487.27 212.167 1485.96 212.167C1484.65 212.167 1483.3 212.617 1482.96 213.167C1482.62 213.717 1481.04 214.167 1479.46 214.167C1477.87 214.167 1476.3 214.617 1475.96 215.167C1475.62 215.717 1474.04 216.167 1472.46 216.167C1470.87 216.167 1469.3 216.617 1468.96 217.167C1468.62 217.717 1466.79 218.167 1464.9 218.167C1463.01 218.167 1461.46 218.617 1461.46 219.167C1461.46 219.717 1460.36 220.167 1459.02 220.167C1457.68 220.167 1456.3 220.617 1455.96 221.167C1455.62 221.717 1454.04 222.167 1452.46 222.167C1450.87 222.167 1449.3 222.617 1448.96 223.167C1448.62 223.717 1446.82 224.167 1444.96 224.167C1443.1 224.167 1441.3 224.617 1440.96 225.168C1440.62 225.718 1439.24 226.168 1437.9 226.168C1436.56 226.168 1435.46 226.618 1435.46 227.167C1435.46 227.717 1434.55 228.167 1433.45 228.167C1432.34 228.168 1430.65 228.565 1429.7 229.051C1424.71 231.587 1410.47 236.167 1407.58 236.167C1406.41 236.167 1405.46 236.617 1405.46 237.167C1405.46 237.717 1404.36 238.167 1403.02 238.167C1401.68 238.167 1400.3 238.617 1399.96 239.167C1399.62 239.717 1398.47 240.167 1397.4 240.167C1396.33 240.167 1395.46 240.617 1395.46 241.167C1395.46 241.717 1394.55 242.167 1393.45 242.167C1392.34 242.167 1390.54 242.617 1389.45 243.167C1388.35 243.717 1386.56 244.617 1385.47 245.167C1384.38 245.717 1382.58 246.167 1381.47 246.167C1380.36 246.168 1379.46 246.617 1379.46 247.167C1379.46 247.717 1378.11 248.168 1376.46 248.167C1374.81 248.167 1373.46 248.617 1373.46 249.167C1373.46 249.717 1372.11 250.167 1370.46 250.167C1368.81 250.167 1367.46 250.617 1367.46 251.167C1367.46 251.717 1366.36 252.167 1365.02 252.167C1363.68 252.167 1362.3 252.617 1361.96 253.167C1361.62 253.717 1360.47 254.167 1359.4 254.167C1358.33 254.167 1357.46 254.617 1357.46 255.167C1357.46 255.717 1356.36 256.167 1355.02 256.167C1353.68 256.167 1352.3 256.617 1351.96 257.167C1351.62 257.717 1350.47 258.167 1349.4 258.167C1348.33 258.167 1347.46 258.617 1347.46 259.167C1347.46 259.717 1346.11 260.167 1344.46 260.167C1342.81 260.167 1341.46 260.535 1341.46 260.986C1341.46 261.437 1339.21 262.418 1336.46 263.167C1333.71 263.916 1331.46 264.816 1331.46 265.167C1331.46 265.518 1329.21 266.418 1326.46 267.167C1323.71 267.916 1321.46 268.897 1321.46 269.348C1321.46 269.798 1320.59 270.167 1319.52 270.167C1318.45 270.167 1317.3 270.617 1316.96 271.167C1316.62 271.717 1315.24 272.167 1313.9 272.167C1312.56 272.167 1311.46 272.617 1311.46 273.167C1311.46 273.717 1310.78 274.167 1309.95 274.167C1309.11 274.167 1307.54 274.617 1306.45 275.167C1305.35 275.717 1303.56 276.617 1302.47 277.167C1301.38 277.717 1299.8 278.167 1298.97 278.167C1298.14 278.167 1297.46 278.617 1297.46 279.167C1297.46 279.717 1296.59 280.167 1295.52 280.167C1294.45 280.167 1293.3 280.617 1292.96 281.167C1292.62 281.717 1291.27 282.167 1289.96 282.167C1288.65 282.167 1287.3 282.617 1286.96 283.167C1286.62 283.717 1285.28 284.167 1283.98 284.167C1282.69 284.167 1281.48 284.504 1281.29 284.915C1280.81 285.996 1272.53 290.165 1270.86 290.165C1270.09 290.165 1269.46 290.616 1269.46 291.165C1269.46 291.715 1268.56 292.165 1267.46 292.165C1266.36 292.166 1265.46 292.615 1265.46 293.165C1265.46 293.715 1264.36 294.165 1263.02 294.165C1261.67 294.165 1260.3 294.615 1259.96 295.165C1259.62 295.715 1258.33 296.165 1257.09 296.165C1255.85 296.166 1253.87 297.067 1252.69 298.165C1251.51 299.265 1249.85 300.165 1249 300.165C1248.15 300.165 1247.46 300.614 1247.46 301.165C1247.46 301.715 1246.56 302.165 1245.46 302.165C1244.36 302.165 1243.46 302.615 1243.46 303.165C1243.46 303.715 1242.56 304.165 1241.46 304.165C1240.36 304.165 1239.46 304.615 1239.46 305.165C1239.46 305.715 1238.56 306.165 1237.46 306.165C1236.36 306.165 1235.46 306.615 1235.46 307.165C1235.46 307.715 1234.56 308.165 1233.46 308.165C1232.36 308.166 1231.46 308.615 1231.46 309.165C1231.46 309.716 1230.85 310.165 1230.1 310.165C1229.35 310.165 1225.86 311.571 1222.35 313.288C1218.83 315.006 1214.23 317.256 1212.11 318.289C1210 319.321 1207.64 320.165 1206.86 320.165C1206.09 320.165 1205.46 320.616 1205.46 321.165C1205.46 321.715 1204.6 322.165 1203.54 322.165C1202.49 322.165 1201.48 322.519 1201.29 322.952C1201.11 323.385 1198.26 325.058 1194.96 326.67C1190.58 328.807 1189.49 329.708 1190.92 329.997C1192 330.215 1193.05 329.892 1193.25 329.279C1193.46 328.667 1194.71 328.165 1196.04 328.165C1197.37 328.165 1198.46 327.715 1198.46 327.165C1198.46 326.615 1199.58 326.165 1200.96 326.165C1202.33 326.165 1203.46 325.715 1203.46 325.165C1203.46 324.615 1204.36 324.165 1205.46 324.165C1206.56 324.165 1207.46 323.715 1207.46 323.165C1207.46 322.615 1208.36 322.165 1209.46 322.165C1210.56 322.165 1211.46 321.715 1211.46 321.165C1211.46 320.615 1212.36 320.165 1213.46 320.165C1214.56 320.165 1215.46 319.715 1215.46 319.165C1215.46 318.615 1216.36 318.165 1217.46 318.165C1218.56 318.165 1219.46 317.715 1219.46 317.165C1219.46 316.615 1220.36 316.165 1221.46 316.165C1222.56 316.165 1223.46 315.715 1223.46 315.165C1223.46 314.615 1224.36 314.165 1225.46 314.165C1226.56 314.165 1227.46 313.715 1227.46 313.165C1227.46 312.615 1228.58 312.165 1229.96 312.165C1231.33 312.165 1232.46 311.715 1232.46 311.165C1232.46 310.615 1233.58 310.165 1234.96 310.165C1236.33 310.165 1237.46 309.715 1237.46 309.165C1237.46 308.614 1238.36 308.165 1239.46 308.164C1240.56 308.164 1241.46 307.715 1241.46 307.165C1241.46 306.615 1242.33 306.165 1243.4 306.165C1244.47 306.165 1245.62 305.714 1245.96 305.165C1246.3 304.615 1247.67 304.165 1249.02 304.165C1250.36 304.165 1251.46 303.714 1251.46 303.165C1251.46 302.615 1252.36 302.165 1253.46 302.165C1254.56 302.165 1255.46 301.714 1255.46 301.165C1255.46 300.615 1256.58 300.165 1257.96 300.165C1259.33 300.165 1260.46 299.715 1260.46 299.165C1260.46 298.615 1261.58 298.164 1262.96 298.164C1264.33 298.164 1265.46 297.714 1265.46 297.164C1265.46 296.614 1266.58 296.164 1267.96 296.164C1269.33 296.164 1270.46 295.714 1270.46 295.164C1270.46 294.614 1271.58 294.164 1272.96 294.164C1274.33 294.164 1275.46 293.714 1275.46 293.164C1275.46 292.614 1276.81 292.164 1278.46 292.164C1280.11 292.164 1281.46 291.714 1281.46 291.164C1281.46 290.614 1282.36 290.164 1283.46 290.164C1284.56 290.164 1285.46 289.714 1285.46 289.164C1285.46 288.614 1286.81 288.164 1288.46 288.164C1290.11 288.164 1291.46 287.714 1291.46 287.164C1291.46 286.614 1292.36 286.164 1293.47 286.164C1294.58 286.164 1296.38 285.714 1297.47 285.164C1298.56 284.615 1300.35 283.714 1301.44 283.164C1302.54 282.614 1304.34 282.164 1305.44 282.165C1306.55 282.164 1307.46 281.715 1307.46 281.165C1307.46 280.615 1308.81 280.165 1310.46 280.165C1312.11 280.165 1313.46 279.715 1313.46 279.165C1313.46 278.615 1314.56 278.165 1315.9 278.165C1317.24 278.165 1318.62 277.715 1318.96 277.165C1319.3 276.615 1320.65 276.165 1321.96 276.165C1323.27 276.165 1324.62 275.715 1324.96 275.165C1325.3 274.615 1326.46 274.165 1327.53 274.165C1328.61 274.165 1330.38 273.715 1331.47 273.165C1332.56 272.615 1334.35 271.715 1335.44 271.165C1336.54 270.615 1338.79 270.165 1340.44 270.165C1342.1 270.165 1343.46 269.715 1343.46 269.165C1343.46 268.615 1344.56 268.165 1345.9 268.165C1347.24 268.165 1348.62 267.715 1348.96 267.165C1349.3 266.615 1350.9 266.165 1352.52 266.165C1354.13 266.165 1355.46 265.715 1355.46 265.165C1355.46 264.615 1356.81 264.165 1358.46 264.165C1360.11 264.165 1361.46 263.715 1361.46 263.165C1361.46 262.615 1362.78 262.165 1364.4 262.165C1366.02 262.165 1367.62 261.715 1367.96 261.165C1368.3 260.615 1370.12 260.165 1372.02 260.165C1373.91 260.165 1375.46 259.715 1375.46 259.165C1375.46 258.615 1376.81 258.165 1378.46 258.165C1380.11 258.165 1381.46 257.715 1381.46 257.165C1381.46 256.615 1383.26 256.165 1385.46 256.166C1387.66 256.166 1389.46 255.715 1389.46 255.165C1389.46 254.615 1390.81 254.165 1392.46 254.165C1394.11 254.165 1395.46 253.715 1395.46 253.165C1395.46 252.615 1397.26 252.166 1399.46 252.166C1401.66 252.166 1403.46 251.716 1403.46 251.166C1403.46 250.616 1405.01 250.166 1406.9 250.166C1408.79 250.166 1410.62 249.716 1410.96 249.166C1411.3 248.616 1413.1 248.166 1414.96 248.166C1416.82 248.166 1418.62 247.716 1418.96 247.166C1419.3 246.616 1420.9 246.166 1422.52 246.166C1424.14 246.166 1425.46 245.716 1425.46 245.166C1425.46 244.616 1427.46 244.166 1429.9 244.166C1432.34 244.166 1434.62 243.716 1434.96 243.166C1435.3 242.616 1436.87 242.166 1438.46 242.166C1440.04 242.166 1441.62 241.716 1441.96 241.166C1442.3 240.616 1444.57 240.166 1447.02 240.166C1449.46 240.166 1451.46 239.762 1451.46 239.267C1451.46 238.421 1452.91 238.127 1464.71 236.585C1467.32 236.244 1469.46 235.56 1469.46 235.066C1469.46 234.571 1471.71 234.166 1474.46 234.166C1477.21 234.166 1479.46 233.716 1479.46 233.166C1479.46 232.616 1481.23 232.166 1483.4 232.166C1485.57 232.166 1487.62 231.716 1487.96 231.166C1488.3 230.616 1491.03 230.166 1494.02 230.166C1497.01 230.166 1499.46 229.716 1499.46 229.166C1499.46 228.616 1501.93 228.166 1504.96 228.166C1507.98 228.166 1510.46 227.756 1510.46 227.255C1510.46 226.754 1513.05 226.114 1516.21 225.832C1519.37 225.551 1524.43 224.799 1527.46 224.161C1530.48 223.523 1535.77 222.775 1539.21 222.499C1542.65 222.222 1545.46 221.584 1545.46 221.081C1545.46 220.578 1548.58 220.166 1552.4 220.166C1556.22 220.166 1559.62 219.716 1559.96 219.166C1560.3 218.616 1563.67 218.167 1567.46 218.166C1571.24 218.166 1574.62 217.716 1574.96 217.166C1575.3 216.616 1579.15 216.166 1583.52 216.166C1587.89 216.166 1591.46 215.745 1591.46 215.231C1591.46 214.353 1596.3 213.963 1624.21 212.596C1630.4 212.293 1635.46 211.622 1635.46 211.106C1635.46 210.56 1641.94 210.166 1650.9 210.166C1659.6 210.166 1666.6 209.75 1666.93 209.214C1667.74 207.904 1775.46 207.787 1775.46 209.096C1775.46 209.661 1781.84 210.283 1790.71 210.581C1799.1 210.863 1811.81 211.555 1818.96 212.12C1826.11 212.684 1835.78 213.408 1840.46 213.729C1845.13 214.049 1849.39 214.729 1849.91 215.239C1850.43 215.749 1854.14 216.166 1858.16 216.166C1862.36 216.166 1865.46 216.591 1865.46 217.166C1865.46 217.738 1868.46 218.166 1872.46 218.166C1876.46 218.166 1879.46 218.595 1879.46 219.166C1879.46 219.738 1882.46 220.166 1886.46 220.166C1890.46 220.166 1893.46 220.595 1893.46 221.166C1893.46 221.721 1896.11 222.166 1899.4 222.166C1902.67 222.166 1905.62 222.616 1905.96 223.166C1906.3 223.716 1908.77 224.166 1911.46 224.166C1914.14 224.166 1916.62 224.616 1916.96 225.166C1917.3 225.716 1919.55 226.166 1921.96 226.166C1924.37 226.166 1926.62 226.616 1926.96 227.166C1927.3 227.716 1929.8 228.166 1932.52 228.166C1935.24 228.167 1937.46 228.616 1937.46 229.166C1937.46 229.716 1939.71 230.166 1942.46 230.166C1945.21 230.166 1947.46 230.616 1947.46 231.166C1947.46 231.716 1949.26 232.166 1951.46 232.166C1953.66 232.166 1955.46 232.616 1955.46 233.166C1955.46 233.716 1957.71 234.166 1960.46 234.166C1963.21 234.166 1965.46 234.616 1965.46 235.166C1965.46 235.716 1967.01 236.166 1968.9 236.166C1970.79 236.166 1972.62 236.616 1972.96 237.166C1973.3 237.716 1975.35 238.166 1977.52 238.166C1979.68 238.166 1981.46 238.616 1981.46 239.166C1981.46 239.716 1983.26 240.166 1985.46 240.166C1987.66 240.166 1989.46 240.616 1989.46 241.166C1989.46 241.716 1991.26 242.166 1993.46 242.166C1995.66 242.166 1997.46 242.616 1997.46 243.166C1997.46 243.716 1999.01 244.166 2000.9 244.166C2002.79 244.166 2004.62 244.616 2004.96 245.166C2005.3 245.716 2006.9 246.166 2008.52 246.166C2010.14 246.166 2011.46 246.616 2011.46 247.166C2011.46 247.716 2013.01 248.166 2014.9 248.166C2016.79 248.166 2018.62 248.616 2018.96 249.166C2019.3 249.716 2020.9 250.166 2022.52 250.166C2024.13 250.166 2025.46 250.616 2025.46 251.166C2025.46 251.716 2026.78 252.166 2028.4 252.166C2030.02 252.166 2031.62 252.616 2031.96 253.166C2032.3 253.716 2034.12 254.166 2036.02 254.166C2037.91 254.166 2039.46 254.616 2039.46 255.166C2039.46 255.716 2040.56 256.166 2041.9 256.166C2043.24 256.166 2044.62 256.617 2044.96 257.166C2045.3 257.716 2046.9 258.166 2048.52 258.166C2050.14 258.167 2051.46 258.616 2051.46 259.166C2051.46 259.716 2052.56 260.166 2053.9 260.166C2055.24 260.166 2056.62 260.616 2056.96 261.166C2057.3 261.716 2058.9 262.166 2060.52 262.166C2062.14 262.166 2063.46 262.616 2063.46 263.166C2063.46 263.716 2064.81 264.166 2066.46 264.166C2068.11 264.166 2069.46 264.616 2069.46 265.166C2069.46 265.716 2070.58 266.166 2071.96 266.166C2073.33 266.167 2074.46 266.616 2074.46 267.166C2074.46 267.716 2075.78 268.166 2077.4 268.166C2079.02 268.166 2080.62 268.616 2080.96 269.166C2081.3 269.716 2082.45 270.166 2083.52 270.166C2084.59 270.166 2085.46 270.616 2085.46 271.166C2085.46 271.716 2086.81 272.166 2088.46 272.166C2090.11 272.166 2091.46 272.616 2091.46 273.166C2091.46 273.716 2092.56 274.166 2093.9 274.166C2095.24 274.166 2096.62 274.616 2096.96 275.166C2097.3 275.716 2098.45 276.166 2099.52 276.166C2100.59 276.166 2101.46 276.616 2101.46 277.166C2101.46 277.716 2102.81 278.166 2104.46 278.166C2106.11 278.166 2107.46 278.616 2107.46 279.166C2107.46 279.716 2108.14 280.166 2108.97 280.166C2109.8 280.166 2111.38 280.616 2112.47 281.166L2116.44 283.166C2117.54 283.716 2119.11 284.166 2119.95 284.166C2120.78 284.166 2121.46 284.616 2121.46 285.166C2121.46 285.716 2122.81 286.166 2124.46 286.166C2126.11 286.166 2127.46 286.616 2127.46 287.166C2127.46 287.717 2128.36 288.166 2129.46 288.166C2130.56 288.166 2131.46 288.616 2131.46 289.166C2131.46 289.716 2132.33 290.166 2133.4 290.166C2134.47 290.166 2135.62 290.616 2135.96 291.166C2136.3 291.716 2137.67 292.166 2139.02 292.166C2140.36 292.166 2141.46 292.616 2141.46 293.166C2141.46 293.716 2142.36 294.166 2143.46 294.166C2144.56 294.166 2145.46 294.616 2145.46 295.166C2145.46 295.716 2146.36 296.166 2147.46 296.166C2148.56 296.166 2149.46 296.616 2149.46 297.166C2149.46 297.716 2150.34 298.166 2151.43 298.166C2152.51 298.166 2155 299.066 2156.96 300.166C2158.92 301.266 2161.18 302.166 2161.99 302.166C2162.8 302.167 2163.46 302.616 2163.46 303.166C2163.46 303.717 2164.36 304.166 2165.46 304.166C2166.56 304.166 2167.46 304.616 2167.46 305.166C2167.46 305.716 2168.36 306.166 2169.46 306.166C2170.56 306.166 2171.46 306.616 2171.46 307.166C2171.46 307.716 2172.36 308.166 2173.46 308.166C2174.56 308.166 2175.46 308.616 2175.46 309.166C2175.46 309.716 2176.58 310.166 2177.96 310.166C2179.33 310.167 2180.46 310.616 2180.46 311.166C2180.46 311.716 2181.25 312.176 2182.21 312.189C2183.17 312.2 2185.08 313.091 2186.46 314.166C2187.83 315.242 2189.75 316.132 2190.71 316.144C2191.67 316.155 2192.46 316.616 2192.46 317.166C2192.46 317.716 2193.12 318.166 2193.93 318.166C2194.74 318.166 2196.99 319.066 2198.93 320.166C2200.87 321.266 2204.05 323.066 2205.99 324.166C2207.93 325.266 2210.18 326.166 2210.99 326.166C2211.8 326.167 2212.46 326.616 2212.46 327.166C2212.46 327.716 2213.13 328.166 2213.96 328.166C2214.78 328.166 2215.46 328.616 2215.46 329.166C2215.46 329.717 2216.36 330.166 2217.46 330.166C2218.56 330.166 2219.46 330.616 2219.46 331.166C2219.46 331.716 2220.36 332.166 2221.46 332.166C2222.56 332.166 2223.46 332.616 2223.46 333.166C2223.46 333.717 2224.36 334.166 2225.46 334.166C2226.56 334.166 2227.46 334.564 2227.46 335.05C2227.46 335.536 2228.25 336.183 2229.21 336.488C2231.55 337.23 2236.87 340.478 2237.29 341.416C2237.48 341.829 2238.49 342.166 2239.54 342.166C2240.6 342.166 2241.46 342.616 2241.46 343.166C2241.46 343.716 2242.36 344.166 2243.46 344.166C2244.56 344.166 2245.46 344.616 2245.46 345.166C2245.46 345.716 2246.13 346.166 2246.96 346.166C2247.78 346.166 2248.46 346.532 2248.46 346.98C2248.46 347.427 2250.03 348.411 2251.96 349.167C2253.88 349.922 2255.46 350.906 2255.46 351.353C2255.46 351.8 2256.15 352.166 2257 352.166C2257.85 352.166 2259.51 353.066 2260.69 354.166C2261.87 355.266 2263.43 356.166 2264.15 356.166C2264.87 356.166 2265.46 356.616 2265.46 357.166C2265.46 357.716 2266.36 358.166 2267.46 358.166C2268.56 358.166 2269.46 358.616 2269.46 359.166C2269.46 359.716 2270.13 360.166 2270.96 360.166C2271.78 360.166 2272.46 360.616 2272.46 361.166C2272.46 361.716 2273.13 362.166 2273.96 362.166C2274.78 362.166 2275.46 362.564 2275.46 363.05C2275.46 363.536 2276.25 364.183 2277.21 364.488C2279.55 365.23 2284.87 368.478 2285.29 369.416C2285.47 369.829 2286.26 370.166 2287.04 370.166C2287.82 370.167 2288.46 370.616 2288.46 371.166C2288.46 371.716 2289.13 372.166 2289.96 372.166C2290.78 372.166 2291.46 372.616 2291.46 373.166C2291.46 373.716 2292.05 374.166 2292.77 374.166C2293.49 374.166 2295.05 375.066 2296.23 376.166C2297.41 377.266 2298.97 378.166 2299.7 378.166C2300.42 378.167 2301.67 379.066 2302.46 380.166C2303.25 381.266 2304.7 382.166 2305.68 382.166C2306.66 382.166 2307.46 382.54 2307.46 382.997C2307.46 383.455 2308.7 384.467 2310.21 385.247C2311.72 386.028 2313.83 387.454 2314.9 388.416C2315.96 389.379 2317.33 390.166 2317.93 390.166C2318.53 390.167 2319.67 391.066 2320.46 392.166C2321.25 393.266 2322.7 394.166 2323.68 394.166C2324.66 394.166 2325.46 394.51 2325.46 394.93C2325.46 395.351 2327.26 396.807 2329.46 398.166C2331.66 399.526 2333.46 400.982 2333.46 401.402C2333.46 401.823 2334.05 402.166 2334.77 402.166C2335.49 402.166 2337.05 403.066 2338.23 404.166C2339.41 405.266 2340.84 406.166 2341.42 406.166C2341.99 406.166 2342.46 406.616 2342.46 407.166C2342.46 407.717 2343.03 408.167 2343.74 408.167C2344.44 408.167 2345.67 409.066 2346.46 410.166C2347.25 411.266 2348.36 412.167 2348.93 412.169C2349.5 412.17 2351.53 413.519 2353.46 415.166C2355.38 416.814 2357.3 418.163 2357.72 418.164C2358.13 418.165 2359.89 419.516 2361.62 421.166C2363.34 422.816 2365.26 424.166 2365.89 424.166C2366.51 424.166 2367.67 425.066 2368.46 426.166C2369.25 427.266 2370.48 428.166 2371.18 428.166C2371.88 428.166 2372.46 428.616 2372.46 429.166C2372.46 429.716 2372.91 430.166 2373.47 430.166C2374.02 430.166 2375.89 431.516 2377.62 433.166C2379.34 434.816 2381.18 436.166 2381.71 436.166C2382.23 436.166 2383.92 437.516 2385.46 439.166C2387 440.816 2388.76 442.166 2389.36 442.166C2389.96 442.166 2390.46 442.616 2390.46 443.166C2390.46 443.716 2390.95 444.166 2391.56 444.166C2392.16 444.166 2393.92 445.516 2395.46 447.166C2397 448.816 2398.7 450.166 2399.24 450.166C2399.78 450.167 2402.07 451.966 2404.34 454.166C2406.61 456.366 2408.91 458.166 2409.46 458.166C2410.01 458.166 2410.46 458.616 2410.46 459.166C2410.46 459.716 2410.94 460.166 2411.54 460.166C2412.13 460.166 2414.34 461.966 2416.46 464.166C2418.57 466.366 2420.79 468.166 2421.38 468.166C2421.97 468.166 2422.46 468.616 2422.46 469.166C2422.46 469.716 2422.94 470.166 2423.52 470.166C2424.11 470.166 2426.78 472.416 2429.46 475.166C2432.14 477.916 2434.81 480.166 2435.39 480.166C2435.98 480.166 2436.46 480.616 2436.46 481.166C2436.46 481.716 2436.94 482.166 2437.52 482.167C2438.11 482.166 2440.7 484.316 2443.27 486.944C2445.85 489.572 2449.53 492.829 2451.46 494.182C2453.38 495.536 2457.26 498.899 2460.07 501.655C2465.74 507.214 2469.2 510.166 2470.03 510.166C2470.34 510.166 2472.78 512.416 2475.46 515.166C2478.14 517.916 2480.81 520.166 2481.39 520.166C2481.98 520.166 2482.46 520.616 2482.46 521.166C2482.46 521.716 2482.94 522.166 2483.54 522.166C2484.13 522.166 2486.27 523.868 2488.29 525.948C2490.31 528.029 2493.53 530.824 2495.46 532.16C2497.38 533.496 2500.15 535.844 2501.61 537.378C2503.07 538.911 2504.76 540.166 2505.36 540.166C2505.96 540.167 2506.46 540.616 2506.46 541.166C2506.46 541.716 2506.95 542.167 2507.56 542.167C2508.16 542.167 2509.85 543.421 2511.31 544.955C2512.77 546.489 2515.53 548.83 2517.46 550.158C2519.38 551.485 2521.69 553.38 2522.58 554.369C2523.47 555.358 2524.7 556.166 2525.33 556.166C2525.95 556.166 2526.46 556.617 2526.46 557.167C2526.46 557.717 2526.95 558.166 2527.56 558.166C2528.16 558.166 2529.92 559.516 2531.46 561.166C2533 562.816 2534.76 564.166 2535.36 564.166C2535.96 564.166 2536.46 564.616 2536.46 565.166C2536.46 565.716 2536.97 566.166 2537.59 566.166C2538.21 566.167 2539.45 566.975 2540.34 567.964C2541.23 568.952 2543.53 570.843 2545.46 572.166C2547.38 573.488 2549.18 574.838 2549.46 575.166C2549.73 575.494 2551.53 576.845 2553.46 578.167C2555.38 579.489 2557.69 581.38 2558.58 582.369C2559.47 583.358 2560.59 584.167 2561.08 584.169C2561.56 584.17 2563.53 585.519 2565.46 587.167C2567.38 588.814 2569.3 590.163 2569.72 590.164C2570.13 590.165 2571.89 591.516 2573.62 593.166C2575.34 594.816 2577.26 596.166 2577.89 596.166C2578.51 596.166 2579.67 597.066 2580.46 598.166C2581.25 599.266 2582.41 600.167 2583.03 600.166C2583.65 600.166 2585.57 601.516 2587.3 603.166C2589.03 604.816 2590.95 606.166 2591.58 606.166C2592.21 606.166 2593.45 606.957 2594.34 607.923C2595.23 608.889 2597.2 610.315 2598.71 611.092C2600.22 611.869 2601.46 612.878 2601.46 613.335C2601.46 613.792 2602.13 614.166 2602.96 614.166C2603.78 614.166 2604.46 614.616 2604.46 615.166C2604.46 615.717 2605.13 616.166 2605.96 616.166C2606.78 616.166 2607.46 616.617 2607.46 617.167C2607.46 617.717 2608.13 618.166 2608.96 618.166C2609.78 618.166 2610.46 618.616 2610.46 619.166C2610.46 619.716 2611.03 620.166 2611.74 620.166C2612.44 620.166 2613.67 621.066 2614.46 622.166C2615.25 623.266 2616.7 624.166 2617.68 624.166C2618.66 624.166 2619.46 624.54 2619.46 624.997C2619.46 625.454 2620.7 626.464 2622.21 627.241C2623.72 628.017 2625.69 629.443 2626.58 630.41C2627.47 631.376 2628.83 632.166 2629.6 632.166C2630.38 632.167 2631.67 633.066 2632.46 634.166C2633.25 635.266 2634.7 636.166 2635.68 636.166C2636.66 636.166 2637.46 636.616 2637.46 637.166C2637.46 637.716 2638.13 638.166 2638.96 638.166C2639.78 638.166 2640.46 638.616 2640.46 639.166C2640.46 639.716 2640.93 640.166 2641.5 640.166C2642.07 640.166 2643.51 641.066 2644.69 642.166C2645.87 643.266 2647.43 644.166 2648.15 644.166C2648.87 644.166 2649.46 644.616 2649.46 645.166C2649.46 645.716 2650.05 646.166 2650.77 646.166C2651.49 646.166 2653.05 647.066 2654.23 648.167C2655.41 649.266 2656.86 650.166 2657.46 650.166C2658.05 650.166 2659.51 651.066 2660.69 652.166C2661.87 653.266 2663.43 654.166 2664.15 654.166C2664.87 654.166 2665.46 654.616 2665.46 655.166C2665.46 655.716 2666.05 656.166 2666.77 656.166C2667.49 656.166 2669.05 657.066 2670.23 658.166C2671.41 659.266 2673.07 660.166 2673.92 660.166C2674.76 660.167 2675.46 660.616 2675.46 661.166C2675.46 661.716 2676.13 662.167 2676.96 662.167C2677.78 662.167 2678.46 662.616 2678.46 663.166C2678.46 663.716 2679.13 664.166 2679.96 664.166C2680.78 664.166 2681.46 664.616 2681.46 665.166C2681.46 665.716 2682.36 666.166 2683.46 666.166C2684.56 666.166 2685.46 666.616 2685.46 667.166C2685.46 667.716 2686.13 668.166 2686.96 668.166C2687.78 668.166 2688.46 668.616 2688.46 669.166C2688.46 669.716 2689.13 670.166 2689.96 670.166C2690.78 670.166 2691.46 670.616 2691.46 671.166C2691.46 671.716 2692.36 672.166 2693.46 672.166C2694.56 672.166 2695.46 672.616 2695.46 673.166C2695.46 673.716 2696.05 674.166 2696.77 674.166C2697.49 674.166 2699.05 675.066 2700.23 676.166C2701.41 677.266 2703.07 678.166 2703.92 678.166C2704.76 678.166 2705.46 678.616 2705.46 679.166C2705.46 679.716 2706.36 680.166 2707.46 680.166C2708.56 680.166 2709.46 680.616 2709.46 681.166C2709.46 681.716 2710.15 682.166 2711 682.166C2711.85 682.166 2713.51 683.066 2714.69 684.166C2715.87 685.266 2717.43 686.166 2718.15 686.166C2718.87 686.166 2719.46 686.616 2719.46 687.166C2719.46 687.716 2720.36 688.166 2721.46 688.166C2722.56 688.166 2723.46 688.616 2723.46 689.166C2723.46 689.717 2724.36 690.166 2725.46 690.166C2726.56 690.166 2727.46 690.532 2727.46 690.98C2727.46 691.427 2729.03 692.411 2730.96 693.166C2732.88 693.922 2734.46 694.906 2734.46 695.353C2734.46 695.8 2735.36 696.166 2736.46 696.166C2737.56 696.166 2738.46 696.616 2738.46 697.166C2738.46 697.716 2739.13 698.166 2739.96 698.166C2740.78 698.166 2741.46 698.616 2741.46 699.166C2741.46 699.716 2742.36 700.166 2743.46 700.166C2744.56 700.166 2745.46 700.616 2745.46 701.166C2745.46 701.716 2746.36 702.166 2747.46 702.166C2748.56 702.166 2749.46 702.616 2749.46 703.166C2749.46 703.717 2750.36 704.166 2751.46 704.166C2752.56 704.166 2753.46 704.616 2753.46 705.166C2753.46 705.717 2754.36 706.166 2755.46 706.166C2756.56 706.166 2757.46 706.617 2757.46 707.167C2757.46 707.717 2758.36 708.166 2759.46 708.166C2760.56 708.166 2761.46 708.616 2761.46 709.166C2761.46 709.716 2762.36 710.166 2763.46 710.166C2764.56 710.166 2765.46 710.616 2765.46 711.166C2765.46 711.716 2766.36 712.166 2767.46 712.166C2768.56 712.166 2769.46 712.616 2769.46 713.166C2769.46 713.716 2770.36 714.166 2771.46 714.166C2772.56 714.166 2773.46 714.616 2773.46 715.166C2773.46 715.716 2774.36 716.166 2775.46 716.166C2776.56 716.166 2777.46 716.616 2777.46 717.166C2777.46 717.716 2778.36 718.166 2779.46 718.166C2780.56 718.166 2781.46 718.616 2781.46 719.166C2781.46 719.717 2782.36 720.166 2783.46 720.166C2784.56 720.166 2785.46 720.616 2785.46 721.166C2785.46 721.716 2786.36 722.167 2787.46 722.167C2788.56 722.167 2789.46 722.616 2789.46 723.166C2789.46 723.716 2790.36 724.166 2791.46 724.166C2792.56 724.166 2793.46 724.616 2793.46 725.166C2793.46 725.716 2794.12 726.166 2794.93 726.166C2795.74 726.166 2798 727.066 2799.96 728.166C2801.92 729.266 2804.18 730.166 2804.99 730.166C2805.8 730.166 2806.46 730.616 2806.46 731.166C2806.46 731.716 2807.58 732.166 2808.96 732.166C2810.33 732.167 2811.46 732.616 2811.46 733.166C2811.46 733.717 2812.36 734.166 2813.46 734.166C2814.56 734.166 2815.46 734.616 2815.46 735.166C2815.46 735.716 2816.36 736.166 2817.46 736.166C2818.56 736.166 2819.46 736.617 2819.46 737.167C2819.46 737.717 2820.56 738.166 2821.9 738.166C2823.24 738.166 2824.62 738.616 2824.96 739.166C2825.3 739.716 2826.45 740.166 2827.52 740.166C2828.59 740.166 2829.46 740.616 2829.46 741.166C2829.46 741.716 2830.36 742.166 2831.46 742.166C2832.56 742.166 2833.46 742.616 2833.46 743.166C2833.46 743.716 2834.58 744.166 2835.96 744.166C2837.33 744.167 2838.46 744.616 2838.46 745.166C2838.46 745.716 2839.58 746.166 2840.96 746.166C2842.33 746.167 2843.46 746.616 2843.46 747.166C2843.46 747.716 2844.36 748.166 2845.46 748.166C2846.56 748.166 2847.46 748.616 2847.46 749.166C2847.46 749.716 2848.56 750.166 2849.9 750.166C2851.24 750.166 2852.62 750.616 2852.96 751.166C2853.3 751.717 2854.45 752.167 2855.52 752.167C2856.59 752.166 2857.46 752.616 2857.46 753.167C2857.46 753.717 2858.33 754.166 2859.4 754.166C2860.47 754.166 2861.62 754.616 2861.96 755.166C2862.3 755.717 2863.67 756.166 2865.02 756.166C2866.36 756.166 2867.46 756.616 2867.46 757.166C2867.46 757.717 2868.56 758.166 2869.9 758.166C2871.24 758.166 2872.62 758.616 2872.96 759.166C2873.3 759.717 2874.45 760.166 2875.52 760.166C2876.58 760.166 2877.46 760.616 2877.46 761.166C2877.46 761.717 2878.81 762.166 2880.46 762.166C2882.11 762.166 2883.46 762.616 2883.46 763.166C2883.46 763.717 2884.33 764.166 2885.4 764.166C2886.47 764.166 2887.62 764.616 2887.96 765.166C2888.3 765.717 2889.67 766.166 2891.02 766.166C2892.36 766.166 2893.46 766.616 2893.46 767.166C2893.46 767.717 2894.81 768.167 2896.46 768.167C2898.11 768.166 2899.46 768.616 2899.46 769.166C2899.46 769.717 2900.56 770.166 2901.9 770.166C2903.24 770.166 2904.62 770.616 2904.96 771.166C2905.3 771.717 2906.65 772.166 2907.96 772.166C2909.27 772.166 2910.56 772.527 2910.84 772.968C2911.11 773.41 2913.61 774.391 2916.39 775.149C2919.18 775.907 2921.46 776.897 2921.46 777.347C2921.46 777.798 2923.01 778.166 2924.9 778.166C2926.79 778.166 2928.62 778.616 2928.96 779.166C2929.3 779.717 2930.45 780.166 2931.52 780.166C2932.59 780.166 2933.46 780.616 2933.46 781.166C2933.46 781.717 2935.01 782.166 2936.9 782.167C2938.79 782.166 2940.62 782.616 2940.96 783.166C2941.3 783.717 2942.65 784.166 2943.96 784.166C2945.27 784.166 2946.62 784.616 2946.96 785.166C2947.3 785.717 2948.9 786.167 2950.52 786.167C2952.14 786.166 2953.46 786.616 2953.46 787.167C2953.46 787.717 2954.78 788.166 2956.4 788.166C2958.02 788.166 2959.62 788.616 2959.96 789.166C2960.3 789.717 2961.65 790.166 2962.96 790.166C2964.27 790.166 2965.62 790.616 2965.96 791.166C2966.3 791.717 2968.12 792.167 2970.02 792.166C2971.91 792.167 2973.46 792.616 2973.46 793.166C2973.46 793.717 2974.78 794.166 2976.4 794.166C2978.02 794.166 2979.62 794.616 2979.96 795.166C2980.3 795.717 2982.1 796.167 2983.96 796.167C2985.82 796.167 2987.62 796.617 2987.96 797.167C2988.3 797.717 2989.87 798.166 2991.46 798.166C2993.04 798.166 2994.62 798.616 2994.96 799.167C2995.3 799.717 2997.35 800.166 2999.52 800.166C3001.68 800.166 3003.46 800.616 3003.46 801.166C3003.46 801.717 3004.78 802.166 3006.4 802.166C3008.02 802.166 3009.62 802.616 3009.96 803.166C3010.3 803.717 3012.57 804.166 3015.02 804.166C3017.46 804.166 3019.46 804.616 3019.46 805.166C3019.46 805.717 3021.26 806.166 3023.46 806.166C3025.66 806.166 3027.46 806.616 3027.46 807.166C3027.46 807.717 3029.26 808.166 3031.46 808.166C3033.66 808.166 3035.46 808.616 3035.46 809.166C3035.46 809.717 3037.71 810.166 3040.46 810.166C3043.21 810.166 3045.46 810.616 3045.46 811.167C3045.46 811.717 3047.23 812.166 3049.4 812.167C3051.57 812.166 3053.62 812.616 3053.96 813.167C3054.3 813.717 3056.55 814.166 3058.96 814.166C3061.37 814.166 3063.62 814.616 3063.96 815.166C3064.3 815.717 3067 816.167 3069.96 816.167C3072.92 816.166 3075.62 816.616 3075.96 817.166C3076.3 817.717 3078.55 818.166 3080.96 818.166C3083.37 818.166 3085.62 818.616 3085.96 819.166C3086.3 819.717 3088.77 820.166 3091.46 820.166C3094.14 820.166 3096.62 820.616 3096.96 821.166C3097.3 821.717 3100.25 822.166 3103.52 822.166C3106.81 822.166 3109.46 822.612 3109.46 823.166C3109.46 823.738 3112.46 824.166 3116.46 824.166C3120.46 824.166 3123.46 824.595 3123.46 825.166C3123.46 825.735 3126.39 826.166 3130.26 826.167C3134 826.167 3137.49 826.583 3138.01 827.091C3138.53 827.6 3142.33 828.265 3146.46 828.569C3155.95 829.27 3174.87 830.934 3188.46 832.265C3194.23 832.831 3208.4 833.508 3219.95 833.77C3232.36 834.052 3241.35 834.667 3241.95 835.275C3243.15 836.501 3304.38 836.29 3306 835.055Z" fill="url(#paint0_linear_37_43)"/>
  <defs>
  <linearGradient id="paint0_linear_37_43" x1="1190.33" y1="491.24" x2="3727.46" y2="491.24" gradientUnits="userSpaceOnUse">
  <stop stop-color="#F8B366"/>
  <stop offset="1" stop-color="#FFAD52"/>
  </linearGradient>
  </defs>
  </svg>
  