<svg width="4621" height="853" viewBox="0 0 4621 853" fill="none" xmlns="http://www.w3.org/2000/svg">
  <path d="M0.746094 77.8659C111.329 448.024 820.151 544.125 1136.45 360.398C1893.44 -79.3041 2586.02 327.855 2643.68 371.196C3164.1 762.376 3827.97 1129.2 4619.59 1.70264V852.26L0.746162 852.326L0.746094 77.8659Z" fill="#4D5850" stroke="black"/>
  <path d="M3306 834.589C3306.58 834.15 3314.91 833.552 3324.51 833.26C3357.88 832.241 3369.46 831.586 3369.46 830.714C3369.46 830.231 3373.62 829.6 3378.71 829.31C3393.34 828.478 3403.75 827.28 3428.46 823.588C3432.03 823.054 3437.43 822.371 3440.46 822.07C3443.48 821.769 3446.39 821.113 3446.91 820.611C3447.43 820.11 3450.47 819.699 3453.66 819.699C3456.86 819.7 3459.46 819.251 3459.46 818.699C3459.46 818.149 3461.91 817.699 3464.9 817.699C3467.89 817.699 3470.62 817.249 3470.96 816.699C3471.3 816.149 3473.32 815.699 3475.46 815.699C3477.59 815.699 3479.62 815.249 3479.96 814.699C3480.3 814.149 3482.55 813.7 3484.96 813.699C3487.37 813.699 3489.62 813.249 3489.96 812.699C3490.3 812.149 3492.8 811.699 3495.52 811.699C3498.23 811.699 3500.46 811.249 3500.46 810.699C3500.46 810.149 3502.01 809.699 3503.9 809.699C3505.79 809.699 3507.62 809.249 3507.96 808.7C3508.3 808.15 3510.57 807.699 3513.02 807.699C3515.46 807.699 3517.46 807.25 3517.46 806.699C3517.46 806.149 3519.26 805.699 3521.46 805.699C3523.66 805.7 3525.46 805.249 3525.46 804.7C3525.46 804.149 3527.23 803.7 3529.4 803.7C3531.57 803.7 3533.62 803.25 3533.96 802.7C3534.3 802.15 3536.1 801.7 3537.96 801.7C3539.82 801.7 3541.62 801.25 3541.96 800.7C3542.3 800.15 3544.13 799.7 3546.02 799.7C3547.91 799.7 3549.46 799.25 3549.46 798.7C3549.46 798.149 3551.01 797.7 3552.9 797.7C3554.79 797.7 3556.62 797.25 3556.96 796.7C3557.3 796.149 3559.12 795.699 3561.02 795.7C3562.91 795.7 3564.46 795.249 3564.46 794.7C3564.46 794.149 3566.03 793.7 3567.96 793.7C3569.88 793.7 3571.46 793.25 3571.46 792.7C3571.46 792.149 3573.03 791.7 3574.96 791.7C3576.88 791.7 3578.46 791.25 3578.46 790.699C3578.46 790.149 3579.78 789.7 3581.4 789.699C3583.02 789.699 3584.62 789.249 3584.96 788.699C3585.3 788.149 3586.9 787.699 3588.52 787.699C3590.13 787.699 3591.46 787.25 3591.46 786.699C3591.46 786.149 3592.81 785.699 3594.46 785.699C3596.11 785.699 3597.46 785.249 3597.46 784.7C3597.46 784.149 3599.01 783.7 3600.9 783.7C3602.79 783.7 3604.62 783.25 3604.96 782.7C3605.3 782.15 3606.46 781.7 3607.53 781.7C3608.61 781.7 3610.38 781.25 3611.47 780.7C3612.56 780.15 3614.35 779.25 3615.44 778.7C3616.54 778.15 3618.34 777.699 3619.46 777.7C3620.57 777.7 3622.38 777.25 3623.47 776.7C3624.56 776.15 3626.35 775.25 3627.44 774.7C3628.54 774.15 3630.31 773.7 3631.39 773.7C3632.46 773.7 3633.62 773.25 3633.96 772.7C3634.3 772.15 3635.67 771.7 3637.02 771.7C3638.36 771.7 3639.46 771.25 3639.46 770.7C3639.46 770.15 3640.81 769.7 3642.46 769.7C3644.11 769.7 3645.46 769.25 3645.46 768.7C3645.46 768.149 3646.36 767.7 3647.47 767.7C3648.58 767.699 3650.38 767.25 3651.47 766.7C3652.56 766.15 3654.35 765.25 3655.44 764.7C3656.54 764.15 3658.34 763.7 3659.45 763.7C3660.55 763.7 3661.46 763.25 3661.46 762.7C3661.46 762.15 3662.56 761.7 3663.9 761.7C3665.24 761.7 3666.62 761.25 3666.96 760.7C3667.3 760.15 3668.45 759.7 3669.52 759.7C3670.59 759.7 3671.46 759.25 3671.46 758.7C3671.46 758.15 3672.58 757.7 3673.96 757.7C3675.33 757.7 3676.46 757.25 3676.46 756.7C3676.46 756.149 3677.36 755.7 3678.47 755.7C3679.58 755.7 3681.38 755.25 3682.47 754.7L3686.44 752.7C3687.54 752.15 3689.11 751.699 3689.94 751.7C3690.78 751.7 3691.46 751.249 3691.46 750.7C3691.46 750.149 3692.33 749.7 3693.4 749.7C3694.47 749.7 3695.62 749.25 3695.96 748.7C3696.3 748.15 3697.67 747.7 3699.02 747.7C3700.36 747.699 3701.46 747.25 3701.46 746.7C3701.46 746.149 3702.36 745.7 3703.46 745.7C3704.56 745.7 3705.46 745.25 3705.46 744.7C3705.46 744.149 3706.33 743.7 3707.4 743.7C3708.47 743.7 3709.62 743.25 3709.96 742.7C3710.3 742.15 3711.67 741.7 3713.02 741.7C3714.36 741.7 3715.46 741.25 3715.46 740.7C3715.46 740.149 3716.36 739.7 3717.46 739.7C3718.56 739.7 3719.46 739.25 3719.46 738.7C3719.46 738.149 3720.36 737.7 3721.46 737.7C3722.56 737.7 3723.46 737.25 3723.46 736.7C3723.46 736.149 3724.36 735.7 3725.46 735.7C3726.56 735.7 3727.46 735.257 3727.46 734.715C3727.46 734.084 3705.82 733.59 3667.21 733.34C3630.82 733.104 3603.99 732.514 3599.46 731.851C3595.33 731.246 3587.01 730.269 3580.96 729.679C3559.17 727.553 3545.78 726.08 3526.46 723.683C3521.78 723.103 3514.81 722.385 3510.96 722.086C3507.11 721.788 3503.53 721.129 3503.01 720.622C3502.49 720.115 3499.47 719.7 3496.32 719.7C3493.16 719.7 3490.3 719.25 3489.96 718.7C3489.62 718.15 3486.69 717.7 3483.46 717.7C3480.22 717.7 3477.3 717.25 3476.96 716.7C3476.62 716.15 3474.14 715.7 3471.46 715.7C3468.77 715.7 3466.3 715.25 3465.96 714.7C3465.62 714.15 3463.37 713.7 3460.96 713.7C3458.55 713.7 3456.3 713.25 3455.96 712.7C3455.62 712.15 3452.24 711.7 3448.46 711.7C3444.67 711.7 3441.3 711.25 3440.96 710.7C3440.62 710.15 3438.37 709.7 3435.96 709.7C3433.55 709.7 3431.3 709.25 3430.96 708.7C3430.62 708.15 3428.43 707.7 3426.1 707.7C3423.77 707.7 3421.43 707.294 3420.91 706.797C3420.38 706.301 3417.93 705.639 3415.46 705.329C3403.86 703.871 3401.83 703.528 3399.96 702.705C3398.86 702.221 3396.38 701.603 3394.46 701.334C3392.53 701.065 3388.93 700.325 3386.46 699.691C3383.98 699.056 3380.27 698.301 3378.2 698.013C3376.14 697.725 3374.2 697.086 3373.89 696.594C3373.59 696.103 3371.82 695.7 3369.96 695.7C3368.1 695.7 3366.3 695.25 3365.96 694.7C3365.62 694.15 3363.82 693.7 3361.96 693.7C3360.1 693.7 3358.3 693.25 3357.96 692.7C3357.62 692.15 3356.04 691.7 3354.46 691.7C3352.87 691.7 3351.3 691.25 3350.96 690.7C3350.62 690.15 3348.34 689.7 3345.9 689.7C3343.46 689.7 3341.46 689.25 3341.46 688.7C3341.46 688.15 3339.91 687.7 3338.02 687.7C3336.12 687.7 3334.33 687.3 3334.03 686.81C3333.72 686.321 3332.01 685.679 3330.22 685.383C3328.43 685.087 3324.93 684.329 3322.46 683.7C3319.98 683.07 3316.49 682.313 3314.7 682.017C3312.91 681.721 3311.19 681.079 3310.89 680.589C3310.59 680.1 3308.79 679.7 3306.9 679.7C3305.01 679.7 3303.46 679.25 3303.46 678.7C3303.46 678.149 3301.66 677.7 3299.46 677.7C3297.26 677.7 3295.46 677.25 3295.46 676.7C3295.46 676.149 3294.13 675.7 3292.52 675.7C3290.9 675.7 3289.3 675.25 3288.96 674.7C3288.62 674.15 3287.04 673.7 3285.46 673.7C3283.87 673.7 3282.3 673.25 3281.96 672.7C3281.62 672.15 3280.04 671.7 3278.46 671.7C3276.87 671.7 3275.3 671.25 3274.96 670.7C3274.62 670.15 3273.27 669.7 3271.96 669.7C3270.65 669.7 3269.3 669.25 3268.96 668.7C3268.62 668.15 3267.27 667.7 3265.96 667.7C3264.65 667.7 3263.3 667.25 3262.96 666.7C3262.62 666.15 3261.04 665.7 3259.46 665.7C3257.87 665.7 3256.3 665.25 3255.96 664.7C3255.62 664.15 3254.02 663.7 3252.4 663.7C3250.78 663.7 3249.46 663.25 3249.46 662.7C3249.46 662.149 3248.33 661.7 3246.95 661.7C3245.56 661.7 3243.65 661.294 3242.69 660.797C3241.74 660.301 3238.93 659.357 3236.46 658.7C3233.98 658.043 3231.28 657.174 3230.46 656.771C3229.63 656.367 3226.82 655.412 3224.21 654.65C3221.6 653.887 3219.46 652.912 3219.46 652.482C3219.46 652.052 3218.11 651.7 3216.46 651.7C3214.81 651.7 3213.46 651.25 3213.46 650.7C3213.46 650.149 3212.55 649.7 3211.44 649.7C3210.34 649.7 3208.54 649.25 3207.44 648.7C3206.35 648.15 3204.56 647.25 3203.47 646.7C3202.38 646.15 3200.58 645.7 3199.47 645.7C3198.36 645.7 3197.46 645.25 3197.46 644.7C3197.46 644.15 3196.36 643.7 3195.02 643.7C3193.67 643.7 3192.3 643.25 3191.96 642.7C3191.62 642.149 3190.46 641.7 3189.39 641.7C3188.31 641.7 3186.54 641.25 3185.44 640.7L3181.47 638.7C3180.38 638.15 3178.38 637.7 3177.03 637.7C3175.68 637.7 3174.3 637.25 3173.96 636.7C3173.62 636.15 3172.27 635.7 3170.96 635.7C3169.65 635.7 3168.3 635.25 3167.96 634.7C3167.62 634.15 3166.47 633.7 3165.4 633.7C3164.33 633.7 3163.46 633.25 3163.46 632.7C3163.46 632.149 3162.36 631.7 3161.02 631.7C3159.68 631.7 3158.3 631.25 3157.96 630.7C3157.62 630.15 3156.47 629.7 3155.4 629.7C3154.33 629.7 3153.46 629.25 3153.46 628.7C3153.46 628.149 3152.55 627.7 3151.44 627.7C3150.34 627.7 3148.54 627.25 3147.44 626.7L3143.47 624.7C3142.38 624.15 3140.58 623.7 3139.47 623.7C3138.36 623.7 3137.46 623.25 3137.46 622.7C3137.46 622.15 3136.55 621.7 3135.44 621.7C3134.34 621.7 3132.65 621.299 3131.69 620.809C3129.36 619.611 3120.56 615.684 3117.46 614.457C3116.08 613.912 3114.18 613.069 3113.22 612.583C3112.27 612.097 3110.58 611.7 3109.47 611.7C3108.36 611.7 3107.46 611.25 3107.46 610.7C3107.46 610.15 3106.36 609.7 3105.02 609.7C3103.67 609.7 3102.3 609.25 3101.96 608.7C3101.62 608.15 3100.47 607.7 3099.4 607.7C3098.33 607.7 3097.46 607.25 3097.46 606.7C3097.46 606.15 3096.56 605.7 3095.46 605.7C3094.36 605.7 3093.46 605.25 3093.46 604.7C3093.46 604.149 3092.78 603.7 3091.94 603.7C3091.11 603.7 3089.54 603.25 3088.44 602.7L3084.47 600.7C3083.38 600.15 3081.8 599.7 3080.97 599.7C3080.14 599.7 3079.46 599.25 3079.46 598.7C3079.46 598.15 3078.78 597.7 3077.95 597.7C3077.11 597.7 3075.54 597.25 3074.44 596.7C3073.35 596.15 3071.56 595.25 3070.47 594.7C3069.38 594.15 3067.8 593.7 3066.97 593.7C3066.14 593.7 3065.46 593.25 3065.46 592.7C3065.46 592.15 3064.78 591.7 3063.94 591.7C3063.11 591.7 3061.54 591.25 3060.44 590.7L3056.47 588.7C3055.38 588.15 3053.8 587.7 3052.97 587.7C3052.14 587.7 3051.46 587.25 3051.46 586.7C3051.46 586.149 3050.56 585.7 3049.46 585.7C3048.36 585.7 3047.46 585.25 3047.46 584.7C3047.46 584.15 3046.56 583.7 3045.46 583.7C3044.36 583.7 3043.46 583.25 3043.46 582.7C3043.46 582.15 3042.83 581.7 3042.05 581.7C3041.28 581.7 3038.92 580.855 3036.8 579.823C3034.69 578.791 3030.08 576.541 3026.57 574.823C3023.05 573.105 3019.57 571.7 3018.82 571.7C3018.07 571.7 3017.46 571.25 3017.46 570.7C3017.46 570.149 3016.56 569.7 3015.46 569.7C3014.36 569.7 3013.46 569.25 3013.46 568.7C3013.46 568.149 3012.56 567.7 3011.46 567.7C3010.36 567.7 3009.46 567.25 3009.46 566.7C3009.46 566.15 3008.56 565.7 3007.46 565.7C3006.36 565.7 3005.46 565.25 3005.46 564.7C3005.46 564.15 3004.56 563.7 3003.46 563.7C3002.36 563.7 3001.46 563.25 3001.46 562.7C3001.46 562.149 3000.56 561.7 2999.46 561.7C2998.36 561.7 2997.46 561.25 2997.46 560.7C2997.46 560.15 2996.56 559.7 2995.46 559.7C2994.36 559.7 2993.46 559.25 2993.46 558.7C2993.46 558.149 2992.56 557.7 2991.46 557.7C2990.36 557.7 2989.46 557.25 2989.46 556.7C2989.46 556.149 2988.56 555.7 2987.46 555.7C2986.36 555.7 2985.46 555.25 2985.46 554.7C2985.46 554.15 2984.56 553.7 2983.46 553.7C2982.36 553.7 2981.46 553.25 2981.46 552.7C2981.46 552.15 2980.56 551.7 2979.46 551.7C2978.36 551.7 2977.46 551.25 2977.46 550.7C2977.46 550.15 2976.56 549.7 2975.46 549.7C2974.36 549.7 2973.46 549.25 2973.46 548.7C2973.46 548.15 2972.56 547.7 2971.46 547.7C2970.36 547.7 2969.46 547.25 2969.46 546.7C2969.46 546.149 2968.56 545.7 2967.46 545.7C2966.36 545.7 2965.46 545.25 2965.46 544.7C2965.46 544.15 2964.56 543.7 2963.46 543.7C2962.36 543.7 2961.46 543.334 2961.46 542.886C2961.46 542.439 2959.88 541.455 2957.96 540.7C2956.03 539.945 2954.46 538.961 2954.46 538.513C2954.46 538.065 2953.56 537.7 2952.46 537.7C2951.36 537.7 2950.45 537.362 2950.44 536.95C2950.44 536.537 2947.05 534.626 2942.94 532.703C2938.82 530.78 2935.46 528.867 2935.46 528.453C2935.46 528.039 2934.56 527.7 2933.46 527.7C2932.36 527.7 2931.46 527.25 2931.46 526.7C2931.46 526.149 2930.6 525.7 2929.54 525.7C2928.49 525.7 2927.48 525.362 2927.29 524.95C2927.01 524.312 2920.08 520.473 2911.72 516.314C2910.48 515.701 2909.47 514.862 2909.47 514.45C2909.46 514.038 2908.56 513.7 2907.46 513.7C2906.36 513.7 2905.46 513.302 2905.46 512.817C2905.46 512.331 2904.67 511.683 2903.71 511.378C2901.37 510.636 2896.04 507.389 2895.62 506.45C2895.44 506.037 2894.43 505.7 2893.38 505.7C2892.32 505.7 2891.46 505.25 2891.46 504.7C2891.46 504.15 2890.56 503.7 2889.46 503.7C2888.36 503.7 2887.46 503.25 2887.46 502.7C2887.46 502.149 2886.56 501.7 2885.46 501.7C2884.36 501.7 2883.46 501.25 2883.46 500.7C2883.46 500.149 2882.78 499.7 2881.96 499.7C2881.13 499.7 2880.46 499.362 2880.45 498.95C2880.45 498.538 2877.98 497.075 2874.96 495.7C2871.94 494.325 2869.46 492.862 2869.46 492.45C2869.46 492.038 2868.56 491.7 2867.46 491.7C2866.36 491.7 2865.46 491.25 2865.46 490.7C2865.46 490.15 2864.56 489.7 2863.46 489.7C2862.36 489.7 2861.45 489.362 2861.45 488.95C2861.45 488.538 2860.43 487.699 2859.2 487.086C2850.83 482.927 2843.91 479.088 2843.63 478.45C2843.44 478.037 2842.43 477.7 2841.38 477.7C2840.32 477.7 2839.46 477.334 2839.46 476.887C2839.46 476.439 2837.88 475.455 2835.96 474.7C2834.03 473.945 2832.46 472.961 2832.46 472.513C2832.46 472.066 2831.78 471.7 2830.96 471.7C2830.13 471.7 2829.46 471.25 2829.46 470.7C2829.46 470.15 2828.56 469.7 2827.46 469.7C2826.36 469.7 2825.46 469.302 2825.46 468.817C2825.46 468.331 2824.67 467.683 2823.71 467.378C2821.99 466.835 2816.45 463.689 2815.46 462.7C2814.47 461.711 2808.92 458.565 2807.21 458.022C2806.25 457.716 2805.46 457.069 2805.46 456.583C2805.46 456.098 2804.76 455.7 2803.92 455.7C2803.07 455.7 2801.41 454.8 2800.23 453.7C2799.05 452.6 2797.49 451.7 2796.77 451.7C2796.05 451.7 2795.46 451.25 2795.46 450.7C2795.46 450.149 2794.56 449.7 2793.46 449.7C2792.36 449.7 2791.46 449.326 2791.46 448.869C2791.46 448.412 2790.22 447.399 2788.71 446.619C2787.2 445.838 2785.09 444.412 2784.02 443.45C2782.95 442.487 2781.49 441.7 2780.77 441.7C2780.05 441.7 2779.46 441.25 2779.46 440.7C2779.46 440.15 2778.87 439.7 2778.15 439.7C2777.43 439.7 2775.96 438.912 2774.9 437.95C2773.83 436.987 2771.72 435.561 2770.21 434.781C2768.7 434.001 2767.46 432.988 2767.46 432.531C2767.46 432.074 2766.56 431.7 2765.46 431.7C2764.36 431.7 2763.46 431.326 2763.46 430.869C2763.46 430.412 2762.22 429.402 2760.71 428.626C2759.2 427.849 2757.28 426.532 2756.46 425.7C2755.63 424.867 2753.72 423.551 2752.21 422.774C2750.7 421.997 2749.46 420.988 2749.46 420.531C2749.46 420.074 2748.9 419.699 2748.21 419.697C2747.52 419.697 2745.38 418.347 2743.46 416.7C2741.53 415.053 2739.4 413.703 2738.71 413.702C2738.02 413.701 2737.46 413.326 2737.46 412.869C2737.46 412.412 2736.22 411.402 2734.71 410.626C2733.2 409.849 2731.23 408.423 2730.34 407.457C2729.45 406.49 2728.21 405.7 2727.59 405.7C2726.97 405.7 2726.46 405.25 2726.46 404.7C2726.46 404.15 2725.78 403.7 2724.96 403.7C2724.13 403.7 2723.46 403.326 2723.46 402.869C2723.46 402.412 2722.22 401.402 2720.71 400.626C2719.2 399.849 2717.23 398.423 2716.34 397.457C2715.45 396.49 2714.21 395.7 2713.59 395.7C2712.97 395.7 2712.46 395.25 2712.46 394.7C2712.46 394.15 2711.78 393.7 2710.96 393.7C2710.13 393.7 2709.46 393.347 2709.46 392.915C2709.46 392.484 2708.1 391.326 2706.43 390.343C2704.77 389.359 2702.4 387.575 2701.18 386.377C2699.96 385.18 2697.72 383.561 2696.21 382.781C2694.7 382 2693.46 380.988 2693.46 380.531C2693.46 380.074 2692.78 379.7 2691.96 379.7C2691.13 379.7 2690.46 379.25 2690.46 378.7C2690.46 378.15 2689.78 377.7 2688.96 377.7C2688.13 377.7 2687.46 377.326 2687.46 376.869C2687.46 376.412 2686.22 375.399 2684.71 374.619C2683.2 373.838 2681.09 372.412 2680.02 371.45C2678.95 370.487 2677.49 369.7 2676.77 369.7C2676.05 369.7 2675.46 369.25 2675.46 368.7C2675.46 368.15 2674.56 367.7 2673.46 367.7C2672.36 367.7 2671.46 367.25 2671.46 366.7C2671.46 366.15 2670.78 365.7 2669.96 365.7C2669.13 365.7 2668.46 365.25 2668.46 364.7C2668.46 364.15 2667.78 363.7 2666.96 363.7C2666.13 363.7 2665.46 363.302 2665.46 362.816C2665.46 362.331 2664.67 361.683 2663.71 361.378C2662 360.835 2656.45 357.689 2655.46 356.7C2654.47 355.711 2648.92 352.565 2647.21 352.022C2646.25 351.716 2645.46 351.069 2645.46 350.583C2645.46 350.097 2644.56 349.7 2643.46 349.7C2642.36 349.7 2641.46 349.25 2641.46 348.7C2641.46 348.15 2640.56 347.7 2639.46 347.7C2638.36 347.7 2637.46 347.25 2637.46 346.7C2637.46 346.15 2636.87 345.7 2636.15 345.7C2635.43 345.7 2633.87 344.8 2632.69 343.7C2631.51 342.6 2629.85 341.7 2629 341.7C2628.15 341.7 2627.46 341.25 2627.46 340.7C2627.46 340.15 2626.87 339.7 2626.15 339.7C2625.43 339.7 2623.94 338.912 2622.85 337.95C2620.03 335.476 2616.74 333.7 2614.97 333.7C2614.14 333.7 2613.46 333.25 2613.46 332.7C2613.46 332.15 2612.56 331.7 2611.46 331.7C2610.36 331.7 2609.46 331.25 2609.46 330.7C2609.46 330.15 2608.78 329.7 2607.96 329.7C2607.13 329.7 2606.46 329.25 2606.46 328.7C2606.46 328.15 2605.78 327.7 2604.96 327.7C2604.13 327.7 2603.46 327.25 2603.46 326.7C2603.46 326.15 2602.56 325.7 2601.46 325.7C2600.36 325.7 2599.46 325.25 2599.46 324.7C2599.46 324.15 2598.56 323.7 2597.46 323.7C2596.36 323.7 2595.46 323.25 2595.46 322.7C2595.46 322.15 2594.56 321.7 2593.46 321.7C2592.36 321.7 2591.46 321.25 2591.46 320.7C2591.46 320.15 2590.56 319.7 2589.46 319.7C2588.36 319.7 2587.46 319.25 2587.46 318.7C2587.46 318.15 2586.56 317.7 2585.46 317.7C2584.36 317.7 2583.46 317.25 2583.46 316.7C2583.46 316.15 2582.56 315.7 2581.46 315.7C2580.36 315.7 2579.46 315.302 2579.46 314.816C2579.46 314.331 2578.67 313.683 2577.71 313.378C2575.37 312.636 2570.04 309.389 2569.63 308.45C2569.44 308.037 2568.65 307.7 2567.86 307.7C2567.07 307.7 2565.65 307.272 2564.69 306.75C2559.88 304.115 2545.75 297.7 2544.76 297.7C2544.13 297.7 2543.48 297.362 2543.29 296.95C2542.82 295.891 2530.46 289.7 2528.82 289.7C2528.07 289.7 2527.46 289.25 2527.46 288.7C2527.46 288.15 2526.56 287.7 2525.46 287.7C2524.36 287.7 2523.46 287.25 2523.46 286.7C2523.46 286.15 2522.87 285.7 2522.16 285.7C2520.32 285.7 2515.48 283.348 2515.47 282.45C2515.47 282.037 2514.83 281.7 2514.05 281.7C2512.84 281.7 2509.66 280.32 2502.22 276.575C2501.27 276.093 2499.8 275.7 2498.97 275.7C2498.14 275.7 2497.46 275.25 2497.46 274.7C2497.46 274.15 2496.56 273.7 2495.46 273.7C2494.36 273.7 2493.46 273.25 2493.46 272.7C2493.46 272.15 2492.56 271.7 2491.46 271.7C2490.36 271.7 2489.46 271.25 2489.46 270.7C2489.46 270.15 2488.78 269.7 2487.95 269.7C2487.11 269.7 2485.43 269.18 2484.2 268.544C2479.5 266.118 2478.44 265.7 2476.97 265.7C2476.14 265.7 2475.46 265.25 2475.46 264.7C2475.46 264.15 2474.36 263.7 2473.02 263.7C2471.67 263.7 2470.3 263.25 2469.96 262.7C2469.62 262.15 2468.47 261.7 2467.4 261.7C2466.33 261.7 2465.46 261.25 2465.46 260.7C2465.46 260.15 2464.78 259.7 2463.94 259.7C2462.48 259.7 2461.41 259.282 2456.72 256.856C2455.49 256.22 2453.8 255.7 2452.97 255.7C2452.14 255.7 2451.46 255.25 2451.46 254.7C2451.46 254.15 2450.36 253.7 2449.02 253.7C2447.68 253.7 2446.3 253.25 2445.96 252.7C2445.62 252.15 2444.47 251.7 2443.4 251.7C2442.33 251.7 2441.46 251.25 2441.46 250.7C2441.46 250.15 2440.78 249.7 2439.94 249.7C2439.11 249.7 2437.54 249.25 2436.45 248.7L2432.47 246.7C2431.38 246.15 2429.8 245.7 2428.97 245.7C2428.14 245.7 2427.46 245.25 2427.46 244.7C2427.46 244.15 2426.11 243.7 2424.46 243.7C2422.81 243.7 2421.46 243.25 2421.46 242.7C2421.46 242.15 2420.55 241.7 2419.44 241.7C2418.34 241.7 2416.65 241.302 2415.69 240.816C2414.04 239.977 2410.34 238.386 2405.96 236.632C2404.86 236.192 2402.16 235.29 2399.96 234.627C2395.46 233.273 2391.79 231.892 2389.22 230.583C2388.27 230.097 2386.61 229.7 2385.53 229.7C2384.46 229.7 2383.3 229.25 2382.96 228.7C2382.62 228.15 2381.24 227.7 2379.9 227.7C2378.56 227.7 2377.46 227.25 2377.46 226.7C2377.46 226.15 2376.11 225.7 2374.46 225.7C2372.81 225.7 2371.46 225.25 2371.46 224.7C2371.46 224.15 2370.36 223.7 2369.02 223.7C2367.67 223.7 2366.3 223.25 2365.96 222.7C2365.62 222.15 2364.47 221.7 2363.4 221.7C2362.33 221.7 2361.46 221.25 2361.46 220.7C2361.46 220.15 2360.36 219.7 2359.02 219.7C2357.68 219.7 2356.3 219.25 2355.96 218.7C2355.62 218.15 2354.02 217.7 2352.4 217.7C2350.78 217.7 2349.46 217.25 2349.46 216.7C2349.46 216.15 2348.14 215.7 2346.52 215.7C2344.9 215.7 2343.3 215.25 2342.96 214.7C2342.62 214.15 2341.24 213.7 2339.9 213.7C2338.56 213.7 2337.46 213.25 2337.46 212.7C2337.46 212.15 2336.14 211.7 2334.52 211.7C2332.9 211.7 2331.3 211.25 2330.96 210.7C2330.62 210.15 2328.82 209.7 2326.96 209.7C2325.1 209.7 2323.3 209.25 2322.96 208.7C2322.62 208.15 2321.47 207.7 2320.4 207.7C2319.33 207.7 2318.46 207.25 2318.46 206.7C2318.46 206.15 2316.91 205.7 2315.02 205.7C2313.13 205.7 2311.3 205.25 2310.96 204.7C2310.62 204.15 2308.59 203.7 2306.46 203.7C2304.32 203.7 2302.3 203.25 2301.96 202.7C2301.62 202.15 2300.48 201.7 2299.43 201.7C2298.38 201.7 2296.02 200.855 2294.18 199.823C2291.06 198.074 2288.74 197.544 2277.71 196.067C2275.37 195.754 2273.46 195.094 2273.46 194.599C2273.46 194.104 2272.56 193.7 2271.46 193.7C2270.36 193.7 2269.46 193.25 2269.46 192.7C2269.46 192.15 2268.56 191.7 2267.46 191.7C2266.36 191.7 2265.46 191.25 2265.46 190.7C2265.46 190.15 2264.11 189.7 2262.46 189.7C2260.81 189.7 2259.46 189.302 2259.46 188.816C2259.46 188.33 2256.65 187.66 2253.21 187.326C2242.89 186.325 2238.48 185.537 2237.89 184.594C2237.59 184.102 2236.02 183.7 2234.4 183.7C2232.78 183.7 2231.46 183.25 2231.46 182.7C2231.46 182.15 2229.66 181.7 2227.46 181.7C2225.26 181.7 2223.46 181.288 2223.46 180.785C2223.46 180.282 2220.65 179.627 2217.21 179.329C2206.38 178.39 2200.99 177.536 2200.01 176.603C2199.49 176.106 2197.15 175.7 2194.82 175.7C2192.49 175.7 2190.3 175.25 2189.96 174.7C2189.62 174.15 2187.57 173.7 2185.4 173.7C2183.23 173.7 2181.46 173.25 2181.46 172.7C2181.46 172.15 2180.14 171.7 2178.52 171.7C2176.9 171.7 2175.3 171.25 2174.96 170.7C2174.62 170.15 2173.04 169.7 2171.46 169.7C2169.87 169.7 2168.3 169.25 2167.96 168.7C2167.62 168.15 2163.79 167.7 2159.46 167.7C2155.12 167.7 2151.3 167.25 2150.96 166.7C2150.62 166.15 2149.04 165.7 2147.46 165.7C2145.87 165.7 2144.3 165.25 2143.96 164.7C2143.62 164.15 2142.47 163.7 2141.4 163.7C2140.33 163.7 2139.46 163.272 2139.46 162.7C2139.46 162.127 2135.48 161.7 2130.16 161.7C2124.83 161.7 2123.33 161.067 2119.91 160.752C2114.59 160.262 2109.28 159.739 2103.96 159.286C2071.56 151.572 2034.94 153.451 2000.41 150.676C1996.22 150.339 1992.03 150.081 1987.84 149.7C1977.83 148.789 1967.9 146.816 1957.86 146.567C1956.44 146.533 1955.02 146.759 1953.61 146.798C1951.51 146.855 1949.41 146.798 1947.31 146.797C1941.8 146.796 1936.28 146.851 1930.77 146.79C1920.58 146.677 1916.49 147.568 1900.21 146.128C1895.83 145.74 1893.46 145.895 1893.46 146.567C1893.46 147.261 1883.26 147.611 1862.72 147.623C1842.54 147.635 1831.86 147.996 1831.64 148.672C1831.44 149.251 1828.14 149.701 1824.08 149.701C1820.11 149.701 1816.43 150.104 1815.91 150.596C1814.83 151.609 1807.26 152.419 1786.96 153.691C1770.84 154.701 1764.44 155.541 1762.8 156.858C1762.17 157.37 1756.39 157.702 1749.95 157.595C1742.69 157.475 1738.01 157.798 1737.61 158.447C1736.96 159.487 1731.29 160.302 1717.96 161.267C1714.11 161.546 1710.06 162.173 1708.96 162.661C1707.86 163.149 1704.93 163.847 1702.46 164.213C1696.58 165.082 1687.99 166.445 1680.21 167.745C1676.77 168.319 1671.71 169.036 1668.96 169.338C1666.21 169.639 1663.53 170.294 1663.01 170.794C1662.49 171.293 1659.22 171.701 1655.76 171.701C1652.23 171.701 1649.46 172.141 1649.46 172.701C1649.46 173.251 1647.21 173.701 1644.46 173.701C1641.71 173.702 1639.46 174.152 1639.46 174.702C1639.46 175.252 1637.21 175.702 1634.46 175.702C1631.71 175.702 1629.46 176.107 1629.46 176.601C1629.46 177.096 1627.55 177.744 1625.21 178.042C1622.87 178.341 1618.48 179.084 1615.46 179.694C1612.43 180.304 1608.16 181.052 1605.96 181.355C1603.76 181.659 1601.53 182.311 1601.01 182.804C1600.49 183.298 1598.15 183.702 1595.82 183.702C1593.49 183.702 1591.33 184.104 1591.02 184.596C1590.72 185.088 1588.67 185.763 1586.47 186.096C1584.26 186.429 1580.66 186.974 1578.45 187.307C1576.25 187.64 1574.2 188.316 1573.89 188.807C1573.59 189.299 1571.88 189.702 1570.1 189.701C1568.32 189.701 1566.43 190.105 1565.91 190.599C1565.39 191.093 1563.16 191.742 1560.96 192.042C1554.08 192.981 1550.03 193.807 1547.96 194.694C1545.86 195.595 1542.13 196.484 1536.71 197.383C1534.92 197.679 1533.46 198.321 1533.46 198.811C1533.46 199.301 1531.66 199.702 1529.46 199.702C1527.26 199.702 1525.46 200.152 1525.46 200.702C1525.46 201.252 1523.66 201.702 1521.46 201.702C1519.26 201.702 1517.46 202.152 1517.46 202.702C1517.46 203.252 1516.14 203.702 1514.52 203.702C1512.9 203.702 1511.3 204.152 1510.96 204.702C1510.62 205.252 1509.04 205.702 1507.46 205.702C1505.87 205.702 1504.3 206.152 1503.96 206.702C1503.62 207.252 1501.57 207.702 1499.4 207.702C1497.23 207.702 1495.46 208.152 1495.46 208.702C1495.46 209.252 1494.14 209.702 1492.52 209.702C1490.9 209.702 1489.3 210.152 1488.96 210.702C1488.62 211.252 1487.27 211.702 1485.96 211.702C1484.65 211.702 1483.3 212.152 1482.96 212.702C1482.62 213.252 1481.04 213.702 1479.46 213.702C1477.87 213.702 1476.3 214.152 1475.96 214.702C1475.62 215.252 1474.04 215.702 1472.46 215.702C1470.87 215.702 1469.3 216.152 1468.96 216.702C1468.62 217.252 1466.79 217.702 1464.9 217.702C1463.01 217.702 1461.46 218.152 1461.46 218.702C1461.46 219.252 1460.36 219.702 1459.02 219.702C1457.68 219.702 1456.3 220.152 1455.96 220.702C1455.62 221.252 1454.04 221.702 1452.46 221.702C1450.87 221.702 1449.3 222.152 1448.96 222.702C1448.62 223.252 1446.82 223.702 1444.96 223.702C1443.1 223.702 1441.3 224.152 1440.96 224.702C1440.62 225.252 1439.24 225.702 1437.9 225.702C1436.56 225.702 1435.46 226.152 1435.46 226.702C1435.46 227.252 1434.55 227.702 1433.45 227.702C1432.34 227.702 1430.65 228.1 1429.7 228.585C1424.71 231.122 1410.47 235.702 1407.58 235.702C1406.41 235.702 1405.46 236.152 1405.46 236.702C1405.46 237.252 1404.36 237.702 1403.02 237.702C1401.68 237.702 1400.3 238.152 1399.96 238.702C1399.62 239.252 1398.47 239.702 1397.4 239.702C1396.33 239.702 1395.46 240.152 1395.46 240.702C1395.46 241.252 1394.55 241.702 1393.45 241.702C1392.34 241.702 1390.54 242.152 1389.45 242.702C1388.35 243.252 1386.56 244.152 1385.47 244.702C1384.38 245.252 1382.58 245.702 1381.47 245.702C1380.36 245.702 1379.46 246.152 1379.46 246.702C1379.46 247.252 1378.11 247.702 1376.46 247.702C1374.81 247.702 1373.46 248.152 1373.46 248.702C1373.46 249.252 1372.11 249.702 1370.46 249.702C1368.81 249.702 1367.46 250.152 1367.46 250.702C1367.46 251.252 1366.36 251.702 1365.02 251.702C1363.68 251.702 1362.3 252.152 1361.96 252.702C1361.62 253.252 1360.47 253.702 1359.4 253.702C1358.33 253.702 1357.46 254.152 1357.46 254.702C1357.46 255.252 1356.36 255.702 1355.02 255.702C1353.68 255.702 1352.3 256.152 1351.96 256.702C1351.62 257.252 1350.47 257.702 1349.4 257.702C1348.33 257.702 1347.46 258.152 1347.46 258.702C1347.46 259.252 1346.11 259.701 1344.46 259.701C1342.81 259.701 1341.46 260.07 1341.46 260.521C1341.46 260.972 1339.21 261.953 1336.46 262.702C1333.71 263.45 1331.46 264.351 1331.46 264.702C1331.46 265.053 1329.21 265.953 1326.46 266.702C1323.71 267.45 1321.46 268.432 1321.46 268.882C1321.46 269.333 1320.59 269.702 1319.52 269.702C1318.45 269.702 1317.3 270.152 1316.96 270.702C1316.62 271.252 1315.24 271.702 1313.9 271.702C1312.56 271.702 1311.46 272.152 1311.46 272.702C1311.46 273.252 1310.78 273.702 1309.95 273.702C1309.11 273.702 1307.54 274.152 1306.45 274.702C1305.35 275.251 1303.56 276.152 1302.47 276.702C1301.38 277.252 1299.8 277.702 1298.97 277.702C1298.14 277.702 1297.46 278.152 1297.46 278.702C1297.46 279.252 1296.59 279.702 1295.52 279.702C1294.45 279.702 1293.3 280.152 1292.96 280.702C1292.62 281.252 1291.27 281.702 1289.96 281.702C1288.65 281.702 1287.3 282.151 1286.96 282.701C1286.62 283.251 1285.28 283.702 1283.98 283.702C1282.69 283.702 1281.48 284.039 1281.29 284.45C1280.81 285.53 1272.53 289.7 1270.86 289.7C1270.09 289.7 1269.46 290.15 1269.46 290.7C1269.46 291.25 1268.56 291.7 1267.46 291.7C1266.36 291.7 1265.46 292.15 1265.46 292.7C1265.46 293.25 1264.36 293.7 1263.02 293.7C1261.67 293.7 1260.3 294.15 1259.96 294.7C1259.62 295.25 1258.33 295.7 1257.09 295.7C1255.85 295.7 1253.87 296.601 1252.69 297.7C1251.51 298.8 1249.85 299.7 1249 299.7C1248.15 299.7 1247.46 300.148 1247.46 300.7C1247.46 301.25 1246.56 301.7 1245.46 301.7C1244.36 301.7 1243.46 302.15 1243.46 302.7C1243.46 303.25 1242.56 303.7 1241.46 303.7C1240.36 303.7 1239.46 304.15 1239.46 304.7C1239.46 305.25 1238.56 305.7 1237.46 305.7C1236.36 305.7 1235.46 306.15 1235.46 306.7C1235.46 307.25 1234.56 307.7 1233.46 307.7C1232.36 307.7 1231.46 308.15 1231.46 308.7C1231.46 309.25 1230.85 309.7 1230.1 309.7C1229.35 309.7 1225.86 311.106 1222.35 312.823C1218.83 314.541 1214.23 316.791 1212.11 317.823C1210 318.855 1207.64 319.7 1206.86 319.7C1206.09 319.7 1205.46 320.15 1205.46 320.7C1205.46 321.25 1204.6 321.7 1203.54 321.7C1202.49 321.7 1201.48 322.054 1201.29 322.487C1201.11 322.919 1198.26 324.593 1194.96 326.205C1190.58 328.342 1189.49 329.243 1190.92 329.532C1192 329.75 1193.05 329.427 1193.25 328.814C1193.46 328.201 1194.71 327.7 1196.04 327.7C1197.37 327.7 1198.46 327.25 1198.46 326.7C1198.46 326.15 1199.58 325.7 1200.96 325.7C1202.33 325.7 1203.46 325.25 1203.46 324.7C1203.46 324.15 1204.36 323.7 1205.46 323.7C1206.56 323.7 1207.46 323.25 1207.46 322.7C1207.46 322.15 1208.36 321.7 1209.46 321.7C1210.56 321.7 1211.46 321.25 1211.46 320.7C1211.46 320.15 1212.36 319.7 1213.46 319.7C1214.56 319.7 1215.46 319.25 1215.46 318.7C1215.46 318.15 1216.36 317.7 1217.46 317.7C1218.56 317.7 1219.46 317.25 1219.46 316.7C1219.46 316.15 1220.36 315.7 1221.46 315.7C1222.56 315.7 1223.46 315.25 1223.46 314.7C1223.46 314.15 1224.36 313.7 1225.46 313.7C1226.56 313.7 1227.46 313.25 1227.46 312.7C1227.46 312.15 1228.58 311.7 1229.96 311.7C1231.33 311.7 1232.46 311.25 1232.46 310.699C1232.46 310.149 1233.58 309.7 1234.96 309.699C1236.33 309.7 1237.46 309.249 1237.46 308.699C1237.46 308.149 1238.36 307.699 1239.46 307.699C1240.56 307.699 1241.46 307.25 1241.46 306.699C1241.46 306.149 1242.33 305.699 1243.4 305.699C1244.47 305.699 1245.62 305.249 1245.96 304.699C1246.3 304.149 1247.67 303.699 1249.02 303.699C1250.36 303.699 1251.46 303.249 1251.46 302.699C1251.46 302.149 1252.36 301.699 1253.46 301.699C1254.56 301.699 1255.46 301.249 1255.46 300.699C1255.46 300.149 1256.58 299.699 1257.96 299.699C1259.33 299.699 1260.46 299.249 1260.46 298.699C1260.46 298.149 1261.58 297.699 1262.96 297.699C1264.33 297.699 1265.46 297.249 1265.46 296.699C1265.46 296.149 1266.58 295.699 1267.96 295.699C1269.33 295.699 1270.46 295.249 1270.46 294.699C1270.46 294.149 1271.58 293.699 1272.96 293.699C1274.33 293.699 1275.46 293.249 1275.46 292.698C1275.46 292.148 1276.81 291.699 1278.46 291.699C1280.11 291.699 1281.46 291.248 1281.46 290.699C1281.46 290.149 1282.36 289.699 1283.46 289.699C1284.56 289.699 1285.46 289.248 1285.46 288.699C1285.46 288.149 1286.81 287.699 1288.46 287.699C1290.11 287.699 1291.46 287.249 1291.46 286.699C1291.46 286.149 1292.36 285.699 1293.47 285.699C1294.58 285.699 1296.38 285.249 1297.47 284.699C1298.56 284.149 1300.35 283.249 1301.44 282.699C1302.54 282.149 1304.34 281.699 1305.44 281.699C1306.55 281.699 1307.46 281.249 1307.46 280.699C1307.46 280.149 1308.81 279.699 1310.46 279.699C1312.11 279.699 1313.46 279.249 1313.46 278.699C1313.46 278.149 1314.56 277.7 1315.9 277.7C1317.24 277.7 1318.62 277.25 1318.96 276.7C1319.3 276.15 1320.65 275.7 1321.96 275.7C1323.27 275.7 1324.62 275.249 1324.96 274.7C1325.3 274.15 1326.46 273.7 1327.53 273.7C1328.61 273.7 1330.38 273.25 1331.47 272.7C1332.56 272.15 1334.35 271.25 1335.44 270.7C1336.54 270.15 1338.79 269.7 1340.44 269.699C1342.1 269.699 1343.46 269.25 1343.46 268.7C1343.46 268.15 1344.56 267.7 1345.9 267.7C1347.24 267.7 1348.62 267.25 1348.96 266.7C1349.3 266.15 1350.9 265.7 1352.52 265.699C1354.13 265.699 1355.46 265.25 1355.46 264.699C1355.46 264.149 1356.81 263.699 1358.46 263.699C1360.11 263.699 1361.46 263.249 1361.46 262.7C1361.46 262.15 1362.78 261.7 1364.4 261.699C1366.02 261.699 1367.62 261.249 1367.96 260.7C1368.3 260.15 1370.12 259.699 1372.02 259.7C1373.91 259.7 1375.46 259.25 1375.46 258.7C1375.46 258.15 1376.81 257.7 1378.46 257.7C1380.11 257.7 1381.46 257.25 1381.46 256.7C1381.46 256.15 1383.26 255.7 1385.46 255.7C1387.66 255.7 1389.46 255.25 1389.46 254.7C1389.46 254.15 1390.81 253.7 1392.46 253.7C1394.11 253.7 1395.46 253.25 1395.46 252.7C1395.46 252.15 1397.26 251.7 1399.46 251.7C1401.66 251.7 1403.46 251.25 1403.46 250.701C1403.46 250.151 1405.01 249.701 1406.9 249.701C1408.79 249.701 1410.62 249.251 1410.96 248.701C1411.3 248.151 1413.1 247.701 1414.96 247.701C1416.82 247.701 1418.62 247.251 1418.96 246.701C1419.3 246.151 1420.9 245.701 1422.52 245.701C1424.14 245.701 1425.46 245.251 1425.46 244.701C1425.46 244.151 1427.46 243.701 1429.9 243.701C1432.34 243.701 1434.62 243.251 1434.96 242.701C1435.3 242.151 1436.87 241.701 1438.46 241.701C1440.04 241.701 1441.62 241.251 1441.96 240.701C1442.3 240.151 1444.57 239.701 1447.02 239.701C1449.46 239.701 1451.46 239.296 1451.46 238.802C1451.46 237.955 1452.91 237.661 1464.71 236.12C1467.32 235.779 1469.46 235.095 1469.46 234.6C1469.46 234.106 1471.71 233.701 1474.46 233.701C1477.21 233.701 1479.46 233.251 1479.46 232.701C1479.46 232.151 1481.23 231.701 1483.4 231.701C1485.57 231.701 1487.62 231.251 1487.96 230.701C1488.3 230.151 1491.03 229.701 1494.02 229.701C1497.01 229.701 1499.46 229.251 1499.46 228.701C1499.46 228.151 1501.93 227.701 1504.96 227.701C1507.98 227.701 1510.46 227.291 1510.46 226.79C1510.46 226.289 1513.05 225.648 1516.21 225.367C1519.37 225.086 1524.43 224.334 1527.46 223.696C1530.48 223.058 1535.77 222.31 1539.21 222.033C1542.65 221.757 1545.46 221.119 1545.46 220.615C1545.46 220.112 1548.58 219.701 1552.4 219.701C1556.22 219.701 1559.62 219.251 1559.96 218.701C1560.3 218.151 1563.67 217.701 1567.46 217.701C1571.24 217.701 1574.62 217.251 1574.96 216.701C1575.3 216.151 1579.15 215.701 1583.52 215.701C1587.89 215.701 1591.46 215.28 1591.46 214.765C1591.46 213.888 1596.3 213.498 1624.21 212.131C1630.4 211.828 1635.46 211.157 1635.46 210.64C1635.46 210.095 1641.94 209.701 1650.9 209.701C1659.6 209.701 1666.6 209.285 1666.93 208.748C1667.74 207.439 1775.46 207.322 1775.46 208.63C1775.46 209.196 1781.84 209.818 1790.71 210.116C1799.1 210.398 1811.81 211.09 1818.96 211.654C1826.11 212.219 1835.78 212.943 1840.46 213.264C1845.13 213.584 1849.39 214.264 1849.91 214.774C1850.43 215.284 1854.14 215.701 1858.16 215.701C1862.36 215.701 1865.46 216.126 1865.46 216.701C1865.46 217.272 1868.46 217.701 1872.46 217.701C1876.46 217.701 1879.46 218.13 1879.46 218.701C1879.46 219.272 1882.46 219.701 1886.46 219.701C1890.46 219.701 1893.46 220.13 1893.46 220.701C1893.46 221.255 1896.11 221.701 1899.4 221.701C1902.67 221.701 1905.62 222.151 1905.96 222.701C1906.3 223.251 1908.77 223.701 1911.46 223.701C1914.14 223.701 1916.62 224.151 1916.96 224.701C1917.3 225.251 1919.55 225.701 1921.96 225.701C1924.37 225.701 1926.62 226.151 1926.96 226.701C1927.3 227.251 1929.8 227.701 1932.52 227.701C1935.24 227.701 1937.46 228.151 1937.46 228.701C1937.46 229.251 1939.71 229.701 1942.46 229.701C1945.21 229.701 1947.46 230.151 1947.46 230.701C1947.46 231.251 1949.26 231.701 1951.46 231.701C1953.66 231.701 1955.46 232.151 1955.46 232.701C1955.46 233.251 1957.71 233.701 1960.46 233.701C1963.21 233.701 1965.46 234.151 1965.46 234.701C1965.46 235.251 1967.01 235.701 1968.9 235.701C1970.79 235.701 1972.62 236.151 1972.96 236.701C1973.3 237.251 1975.35 237.701 1977.52 237.701C1979.68 237.701 1981.46 238.151 1981.46 238.701C1981.46 239.251 1983.26 239.701 1985.46 239.701C1987.66 239.701 1989.46 240.151 1989.46 240.701C1989.46 241.251 1991.26 241.701 1993.46 241.701C1995.66 241.701 1997.46 242.151 1997.46 242.701C1997.46 243.251 1999.01 243.701 2000.9 243.701C2002.79 243.701 2004.62 244.151 2004.96 244.701C2005.3 245.251 2006.9 245.701 2008.52 245.701C2010.14 245.701 2011.46 246.151 2011.46 246.701C2011.46 247.251 2013.01 247.701 2014.9 247.701C2016.79 247.701 2018.62 248.151 2018.96 248.701C2019.3 249.251 2020.9 249.701 2022.52 249.701C2024.13 249.701 2025.46 250.151 2025.46 250.701C2025.46 251.251 2026.78 251.701 2028.4 251.701C2030.02 251.701 2031.62 252.151 2031.96 252.701C2032.3 253.251 2034.12 253.701 2036.02 253.701C2037.91 253.701 2039.46 254.151 2039.46 254.701C2039.46 255.251 2040.56 255.701 2041.9 255.701C2043.24 255.701 2044.62 256.151 2044.96 256.701C2045.3 257.251 2046.9 257.701 2048.52 257.701C2050.14 257.701 2051.46 258.151 2051.46 258.701C2051.46 259.251 2052.56 259.701 2053.9 259.701C2055.24 259.701 2056.62 260.151 2056.96 260.701C2057.3 261.251 2058.9 261.701 2060.52 261.701C2062.14 261.701 2063.46 262.151 2063.46 262.701C2063.46 263.251 2064.81 263.701 2066.46 263.701C2068.11 263.701 2069.46 264.151 2069.46 264.701C2069.46 265.251 2070.58 265.701 2071.96 265.701C2073.33 265.701 2074.46 266.151 2074.46 266.701C2074.46 267.251 2075.78 267.701 2077.4 267.701C2079.02 267.701 2080.62 268.151 2080.96 268.701C2081.3 269.251 2082.45 269.701 2083.52 269.701C2084.59 269.701 2085.46 270.151 2085.46 270.701C2085.46 271.251 2086.81 271.701 2088.46 271.701C2090.11 271.701 2091.46 272.151 2091.46 272.701C2091.46 273.251 2092.56 273.701 2093.9 273.701C2095.24 273.701 2096.62 274.151 2096.96 274.701C2097.3 275.251 2098.45 275.701 2099.52 275.701C2100.59 275.701 2101.46 276.151 2101.46 276.701C2101.46 277.251 2102.81 277.701 2104.46 277.701C2106.11 277.701 2107.46 278.151 2107.46 278.701C2107.46 279.251 2108.14 279.701 2108.97 279.701C2109.8 279.701 2111.38 280.151 2112.47 280.701L2116.44 282.701C2117.54 283.251 2119.11 283.701 2119.95 283.701C2120.78 283.701 2121.46 284.151 2121.46 284.701C2121.46 285.251 2122.81 285.701 2124.46 285.701C2126.11 285.701 2127.46 286.151 2127.46 286.701C2127.46 287.251 2128.36 287.701 2129.46 287.701C2130.56 287.701 2131.46 288.151 2131.46 288.701C2131.46 289.251 2132.33 289.701 2133.4 289.701C2134.47 289.701 2135.62 290.151 2135.96 290.701C2136.3 291.251 2137.67 291.701 2139.02 291.701C2140.36 291.701 2141.46 292.151 2141.46 292.701C2141.46 293.251 2142.36 293.701 2143.46 293.701C2144.56 293.701 2145.46 294.151 2145.46 294.701C2145.46 295.251 2146.36 295.701 2147.46 295.701C2148.56 295.701 2149.46 296.151 2149.46 296.701C2149.46 297.251 2150.34 297.701 2151.43 297.701C2152.51 297.701 2155 298.601 2156.96 299.701C2158.92 300.801 2161.18 301.701 2161.99 301.701C2162.8 301.701 2163.46 302.151 2163.46 302.701C2163.46 303.251 2164.36 303.701 2165.46 303.701C2166.56 303.701 2167.46 304.151 2167.46 304.701C2167.46 305.251 2168.36 305.701 2169.46 305.701C2170.56 305.701 2171.46 306.151 2171.46 306.701C2171.46 307.251 2172.36 307.701 2173.46 307.701C2174.56 307.701 2175.46 308.151 2175.46 308.701C2175.46 309.251 2176.58 309.701 2177.96 309.701C2179.33 309.701 2180.46 310.151 2180.46 310.701C2180.46 311.251 2181.25 311.711 2182.21 311.723C2183.17 311.735 2185.08 312.626 2186.46 313.701C2187.83 314.777 2189.75 315.667 2190.71 315.679C2191.67 315.69 2192.46 316.151 2192.46 316.701C2192.46 317.251 2193.12 317.701 2193.93 317.701C2194.74 317.701 2196.99 318.601 2198.93 319.701C2200.87 320.801 2204.05 322.601 2205.99 323.701C2207.93 324.801 2210.18 325.701 2210.99 325.701C2211.8 325.701 2212.46 326.151 2212.46 326.701C2212.46 327.251 2213.13 327.701 2213.96 327.701C2214.78 327.701 2215.46 328.151 2215.46 328.701C2215.46 329.251 2216.36 329.701 2217.46 329.701C2218.56 329.701 2219.46 330.151 2219.46 330.701C2219.46 331.251 2220.36 331.701 2221.46 331.701C2222.56 331.701 2223.46 332.151 2223.46 332.701C2223.46 333.251 2224.36 333.701 2225.46 333.701C2226.56 333.701 2227.46 334.099 2227.46 334.584C2227.46 335.07 2228.25 335.718 2229.21 336.023C2231.55 336.765 2236.87 340.012 2237.29 340.951C2237.48 341.364 2238.49 341.701 2239.54 341.701C2240.6 341.701 2241.46 342.151 2241.46 342.701C2241.46 343.251 2242.36 343.701 2243.46 343.701C2244.56 343.701 2245.46 344.151 2245.46 344.701C2245.46 345.251 2246.13 345.701 2246.96 345.701C2247.78 345.701 2248.46 346.067 2248.46 346.514C2248.46 346.962 2250.03 347.946 2251.96 348.701C2253.88 349.456 2255.46 350.44 2255.46 350.888C2255.46 351.335 2256.15 351.701 2257 351.701C2257.85 351.701 2259.51 352.601 2260.69 353.701C2261.87 354.801 2263.43 355.701 2264.15 355.701C2264.87 355.701 2265.46 356.151 2265.46 356.701C2265.46 357.251 2266.36 357.701 2267.46 357.701C2268.56 357.701 2269.46 358.151 2269.46 358.701C2269.46 359.251 2270.13 359.701 2270.96 359.701C2271.78 359.701 2272.46 360.151 2272.46 360.701C2272.46 361.251 2273.13 361.701 2273.96 361.701C2274.78 361.701 2275.46 362.099 2275.46 362.584C2275.46 363.07 2276.25 363.718 2277.21 364.023C2279.55 364.765 2284.87 368.012 2285.29 368.951C2285.47 369.364 2286.26 369.701 2287.04 369.701C2287.82 369.701 2288.46 370.151 2288.46 370.701C2288.46 371.251 2289.13 371.701 2289.96 371.701C2290.78 371.701 2291.46 372.151 2291.46 372.701C2291.46 373.251 2292.05 373.701 2292.77 373.701C2293.49 373.701 2295.05 374.601 2296.23 375.701C2297.41 376.801 2298.97 377.701 2299.7 377.701C2300.42 377.701 2301.67 378.601 2302.46 379.701C2303.25 380.801 2304.7 381.701 2305.68 381.701C2306.66 381.701 2307.46 382.075 2307.46 382.532C2307.46 382.989 2308.7 384.002 2310.21 384.782C2311.72 385.562 2313.83 386.988 2314.9 387.951C2315.96 388.913 2317.33 389.701 2317.93 389.701C2318.53 389.701 2319.67 390.601 2320.46 391.701C2321.25 392.801 2322.7 393.701 2323.68 393.701C2324.66 393.701 2325.46 394.045 2325.46 394.465C2325.46 394.885 2327.26 396.341 2329.46 397.701C2331.66 399.061 2333.46 400.517 2333.46 400.937C2333.46 401.357 2334.05 401.701 2334.77 401.701C2335.49 401.701 2337.05 402.601 2338.23 403.701C2339.41 404.801 2340.84 405.701 2341.42 405.701C2341.99 405.701 2342.46 406.151 2342.46 406.701C2342.46 407.251 2343.03 407.701 2343.74 407.701C2344.44 407.701 2345.67 408.601 2346.46 409.701C2347.25 410.801 2348.36 411.702 2348.93 411.703C2349.5 411.704 2351.53 413.054 2353.46 414.701C2355.38 416.348 2357.3 417.698 2357.72 417.699C2358.13 417.7 2359.89 419.051 2361.62 420.701C2363.34 422.351 2365.26 423.701 2365.89 423.701C2366.51 423.701 2367.67 424.601 2368.46 425.701C2369.25 426.801 2370.48 427.701 2371.18 427.701C2371.88 427.701 2372.46 428.151 2372.46 428.701C2372.46 429.251 2372.91 429.701 2373.47 429.701C2374.02 429.701 2375.89 431.051 2377.62 432.701C2379.34 434.351 2381.18 435.701 2381.71 435.701C2382.23 435.701 2383.92 437.051 2385.46 438.701C2387 440.351 2388.76 441.701 2389.36 441.701C2389.96 441.701 2390.46 442.151 2390.46 442.701C2390.46 443.251 2390.95 443.701 2391.56 443.701C2392.16 443.701 2393.92 445.051 2395.46 446.701C2397 448.351 2398.7 449.701 2399.24 449.701C2399.78 449.701 2402.07 451.501 2404.34 453.701C2406.61 455.901 2408.91 457.701 2409.46 457.701C2410.01 457.701 2410.46 458.151 2410.46 458.701C2410.46 459.251 2410.94 459.701 2411.54 459.701C2412.13 459.701 2414.34 461.501 2416.46 463.701C2418.57 465.901 2420.79 467.701 2421.38 467.701C2421.97 467.701 2422.46 468.151 2422.46 468.701C2422.46 469.251 2422.94 469.701 2423.52 469.701C2424.11 469.701 2426.78 471.951 2429.46 474.701C2432.14 477.451 2434.81 479.701 2435.39 479.701C2435.98 479.701 2436.46 480.151 2436.46 480.701C2436.46 481.251 2436.94 481.701 2437.52 481.701C2438.11 481.701 2440.7 483.851 2443.27 486.479C2445.85 489.106 2449.53 492.364 2451.46 493.717C2453.38 495.07 2457.26 498.433 2460.07 501.19C2465.74 506.749 2469.2 509.701 2470.03 509.701C2470.34 509.701 2472.78 511.951 2475.46 514.701C2478.14 517.451 2480.81 519.701 2481.39 519.701C2481.98 519.701 2482.46 520.151 2482.46 520.701C2482.46 521.251 2482.94 521.701 2483.54 521.701C2484.13 521.701 2486.27 523.403 2488.29 525.483C2490.31 527.563 2493.53 530.359 2495.46 531.695C2497.38 533.031 2500.15 535.379 2501.61 536.912C2503.07 538.446 2504.76 539.701 2505.36 539.701C2505.96 539.701 2506.46 540.151 2506.46 540.701C2506.46 541.251 2506.95 541.701 2507.56 541.701C2508.16 541.701 2509.85 542.956 2511.31 544.49C2512.77 546.023 2515.53 548.365 2517.46 549.692C2519.38 551.02 2521.69 552.915 2522.58 553.904C2523.47 554.892 2524.7 555.701 2525.33 555.701C2525.95 555.701 2526.46 556.151 2526.46 556.701C2526.46 557.251 2526.95 557.701 2527.56 557.701C2528.16 557.701 2529.92 559.051 2531.46 560.701C2533 562.351 2534.76 563.701 2535.36 563.701C2535.96 563.701 2536.46 564.151 2536.46 564.701C2536.46 565.251 2536.97 565.701 2537.59 565.701C2538.21 565.701 2539.45 566.51 2540.34 567.499C2541.23 568.487 2543.53 570.378 2545.46 571.7C2547.38 573.023 2549.18 574.373 2549.46 574.701C2549.73 575.029 2551.53 576.379 2553.46 577.702C2555.38 579.024 2557.69 580.915 2558.58 581.904C2559.47 582.892 2560.59 583.702 2561.08 583.703C2561.56 583.704 2563.53 585.054 2565.46 586.701C2567.38 588.349 2569.3 589.697 2569.72 589.699C2570.13 589.7 2571.89 591.051 2573.62 592.701C2575.34 594.351 2577.26 595.701 2577.89 595.701C2578.51 595.701 2579.67 596.601 2580.46 597.701C2581.25 598.801 2582.41 599.701 2583.03 599.701C2583.65 599.701 2585.57 601.051 2587.3 602.701C2589.03 604.351 2590.95 605.701 2591.58 605.701C2592.21 605.701 2593.45 606.492 2594.34 607.458C2595.23 608.424 2597.2 609.85 2598.71 610.627C2600.22 611.403 2601.46 612.413 2601.46 612.87C2601.46 613.327 2602.13 613.701 2602.96 613.701C2603.78 613.701 2604.46 614.151 2604.46 614.701C2604.46 615.251 2605.13 615.701 2605.96 615.701C2606.78 615.701 2607.46 616.151 2607.46 616.701C2607.46 617.251 2608.13 617.701 2608.96 617.701C2609.78 617.701 2610.46 618.151 2610.46 618.701C2610.46 619.251 2611.03 619.701 2611.74 619.701C2612.44 619.701 2613.67 620.601 2614.46 621.701C2615.25 622.801 2616.7 623.701 2617.68 623.701C2618.66 623.701 2619.46 624.075 2619.46 624.532C2619.46 624.989 2620.7 625.999 2622.21 626.775C2623.72 627.552 2625.69 628.978 2626.58 629.944C2627.47 630.911 2628.83 631.701 2629.6 631.701C2630.38 631.701 2631.67 632.601 2632.46 633.701C2633.25 634.801 2634.7 635.701 2635.68 635.701C2636.66 635.701 2637.46 636.151 2637.46 636.701C2637.46 637.251 2638.13 637.701 2638.96 637.701C2639.78 637.701 2640.46 638.151 2640.46 638.701C2640.46 639.251 2640.93 639.701 2641.5 639.701C2642.07 639.701 2643.51 640.601 2644.69 641.701C2645.87 642.801 2647.43 643.701 2648.15 643.701C2648.87 643.701 2649.46 644.151 2649.46 644.701C2649.46 645.251 2650.05 645.701 2650.77 645.701C2651.49 645.701 2653.05 646.601 2654.23 647.701C2655.41 648.801 2656.86 649.701 2657.46 649.701C2658.05 649.701 2659.51 650.601 2660.69 651.701C2661.87 652.801 2663.43 653.701 2664.15 653.701C2664.87 653.701 2665.46 654.151 2665.46 654.701C2665.46 655.251 2666.05 655.701 2666.77 655.701C2667.49 655.701 2669.05 656.601 2670.23 657.701C2671.41 658.801 2673.07 659.701 2673.92 659.701C2674.76 659.701 2675.46 660.151 2675.46 660.701C2675.46 661.251 2676.13 661.701 2676.96 661.701C2677.78 661.701 2678.46 662.151 2678.46 662.701C2678.46 663.251 2679.13 663.701 2679.96 663.701C2680.78 663.701 2681.46 664.151 2681.46 664.701C2681.46 665.251 2682.36 665.701 2683.46 665.701C2684.56 665.701 2685.46 666.151 2685.46 666.701C2685.46 667.251 2686.13 667.701 2686.96 667.701C2687.78 667.701 2688.46 668.151 2688.46 668.701C2688.46 669.251 2689.13 669.701 2689.96 669.701C2690.78 669.701 2691.46 670.151 2691.46 670.701C2691.46 671.251 2692.36 671.701 2693.46 671.701C2694.56 671.701 2695.46 672.151 2695.46 672.701C2695.46 673.251 2696.05 673.701 2696.77 673.701C2697.49 673.701 2699.05 674.601 2700.23 675.701C2701.41 676.801 2703.07 677.701 2703.92 677.701C2704.76 677.701 2705.46 678.151 2705.46 678.701C2705.46 679.251 2706.36 679.701 2707.46 679.701C2708.56 679.701 2709.46 680.151 2709.46 680.701C2709.46 681.251 2710.15 681.701 2711 681.701C2711.85 681.701 2713.51 682.601 2714.69 683.701C2715.87 684.801 2717.43 685.701 2718.15 685.701C2718.87 685.701 2719.46 686.151 2719.46 686.701C2719.46 687.251 2720.36 687.701 2721.46 687.701C2722.56 687.701 2723.46 688.151 2723.46 688.701C2723.46 689.251 2724.36 689.701 2725.46 689.701C2726.56 689.701 2727.46 690.067 2727.46 690.514C2727.46 690.962 2729.03 691.946 2730.96 692.701C2732.88 693.456 2734.46 694.44 2734.46 694.888C2734.46 695.335 2735.36 695.701 2736.46 695.701C2737.56 695.701 2738.46 696.151 2738.46 696.701C2738.46 697.251 2739.13 697.701 2739.96 697.701C2740.78 697.701 2741.46 698.151 2741.46 698.701C2741.46 699.251 2742.36 699.701 2743.46 699.701C2744.56 699.701 2745.46 700.151 2745.46 700.701C2745.46 701.251 2746.36 701.701 2747.46 701.701C2748.56 701.701 2749.46 702.151 2749.46 702.701C2749.46 703.251 2750.36 703.701 2751.46 703.701C2752.56 703.701 2753.46 704.151 2753.46 704.701C2753.46 705.251 2754.36 705.701 2755.46 705.701C2756.56 705.701 2757.46 706.151 2757.46 706.701C2757.46 707.251 2758.36 707.701 2759.46 707.701C2760.56 707.701 2761.46 708.151 2761.46 708.701C2761.46 709.251 2762.36 709.701 2763.46 709.701C2764.56 709.701 2765.46 710.151 2765.46 710.701C2765.46 711.251 2766.36 711.701 2767.46 711.701C2768.56 711.701 2769.46 712.151 2769.46 712.701C2769.46 713.251 2770.36 713.701 2771.46 713.701C2772.56 713.701 2773.46 714.151 2773.46 714.701C2773.46 715.251 2774.36 715.701 2775.46 715.701C2776.56 715.701 2777.46 716.151 2777.46 716.701C2777.46 717.251 2778.36 717.701 2779.46 717.701C2780.56 717.701 2781.46 718.151 2781.46 718.701C2781.46 719.251 2782.36 719.701 2783.46 719.701C2784.56 719.701 2785.46 720.151 2785.46 720.701C2785.46 721.251 2786.36 721.701 2787.46 721.701C2788.56 721.701 2789.46 722.151 2789.46 722.701C2789.46 723.251 2790.36 723.701 2791.46 723.701C2792.56 723.701 2793.46 724.151 2793.46 724.701C2793.46 725.251 2794.12 725.701 2794.93 725.701C2795.74 725.701 2798 726.601 2799.96 727.701C2801.92 728.801 2804.18 729.701 2804.99 729.701C2805.8 729.701 2806.46 730.151 2806.46 730.701C2806.46 731.251 2807.58 731.701 2808.96 731.701C2810.33 731.701 2811.46 732.151 2811.46 732.701C2811.46 733.251 2812.36 733.701 2813.46 733.701C2814.56 733.701 2815.46 734.151 2815.46 734.701C2815.46 735.251 2816.36 735.701 2817.46 735.701C2818.56 735.701 2819.46 736.151 2819.46 736.701C2819.46 737.251 2820.56 737.701 2821.9 737.701C2823.24 737.701 2824.62 738.151 2824.96 738.701C2825.3 739.251 2826.45 739.701 2827.52 739.701C2828.59 739.701 2829.46 740.151 2829.46 740.701C2829.46 741.251 2830.36 741.701 2831.46 741.701C2832.56 741.701 2833.46 742.151 2833.46 742.701C2833.46 743.251 2834.58 743.701 2835.96 743.701C2837.33 743.701 2838.46 744.151 2838.46 744.701C2838.46 745.251 2839.58 745.701 2840.96 745.701C2842.33 745.701 2843.46 746.151 2843.46 746.701C2843.46 747.251 2844.36 747.701 2845.46 747.701C2846.56 747.701 2847.46 748.151 2847.46 748.701C2847.46 749.251 2848.56 749.701 2849.9 749.701C2851.24 749.701 2852.62 750.151 2852.96 750.701C2853.3 751.251 2854.45 751.701 2855.52 751.701C2856.59 751.701 2857.46 752.151 2857.46 752.701C2857.46 753.251 2858.33 753.701 2859.4 753.701C2860.47 753.701 2861.62 754.151 2861.96 754.701C2862.3 755.251 2863.67 755.701 2865.02 755.701C2866.36 755.701 2867.46 756.151 2867.46 756.701C2867.46 757.251 2868.56 757.701 2869.9 757.701C2871.24 757.701 2872.62 758.151 2872.96 758.701C2873.3 759.251 2874.45 759.701 2875.52 759.701C2876.58 759.701 2877.46 760.151 2877.46 760.701C2877.46 761.251 2878.81 761.701 2880.46 761.701C2882.11 761.701 2883.46 762.151 2883.46 762.701C2883.46 763.251 2884.33 763.701 2885.4 763.701C2886.47 763.701 2887.62 764.151 2887.96 764.701C2888.3 765.251 2889.67 765.701 2891.02 765.701C2892.36 765.701 2893.46 766.151 2893.46 766.701C2893.46 767.251 2894.81 767.701 2896.46 767.701C2898.11 767.701 2899.46 768.151 2899.46 768.701C2899.46 769.251 2900.56 769.701 2901.9 769.701C2903.24 769.701 2904.62 770.151 2904.96 770.701C2905.3 771.251 2906.65 771.701 2907.96 771.701C2909.27 771.701 2910.56 772.062 2910.84 772.503C2911.11 772.944 2913.61 773.925 2916.39 774.684C2919.18 775.442 2921.46 776.431 2921.46 776.882C2921.46 777.333 2923.01 777.701 2924.9 777.701C2926.79 777.701 2928.62 778.151 2928.96 778.701C2929.3 779.251 2930.45 779.701 2931.52 779.701C2932.59 779.701 2933.46 780.151 2933.46 780.701C2933.46 781.251 2935.01 781.701 2936.9 781.701C2938.79 781.701 2940.62 782.151 2940.96 782.701C2941.3 783.251 2942.65 783.701 2943.96 783.701C2945.27 783.701 2946.62 784.151 2946.96 784.701C2947.3 785.251 2948.9 785.701 2950.52 785.701C2952.14 785.701 2953.46 786.151 2953.46 786.701C2953.46 787.252 2954.78 787.701 2956.4 787.701C2958.02 787.701 2959.62 788.151 2959.96 788.701C2960.3 789.251 2961.65 789.701 2962.96 789.701C2964.27 789.701 2965.62 790.151 2965.96 790.701C2966.3 791.251 2968.12 791.701 2970.02 791.701C2971.91 791.701 2973.46 792.151 2973.46 792.701C2973.46 793.251 2974.78 793.701 2976.4 793.701C2978.02 793.701 2979.62 794.151 2979.96 794.701C2980.3 795.251 2982.1 795.701 2983.96 795.701C2985.82 795.701 2987.62 796.151 2987.96 796.701C2988.3 797.251 2989.87 797.701 2991.46 797.701C2993.04 797.701 2994.62 798.151 2994.96 798.701C2995.3 799.251 2997.35 799.701 2999.52 799.701C3001.68 799.701 3003.46 800.151 3003.46 800.701C3003.46 801.251 3004.78 801.701 3006.4 801.701C3008.02 801.701 3009.62 802.151 3009.96 802.701C3010.3 803.251 3012.57 803.701 3015.02 803.701C3017.46 803.701 3019.46 804.151 3019.46 804.701C3019.46 805.251 3021.26 805.701 3023.46 805.701C3025.66 805.701 3027.46 806.151 3027.46 806.701C3027.46 807.251 3029.26 807.701 3031.46 807.701C3033.66 807.701 3035.46 808.151 3035.46 808.701C3035.46 809.251 3037.71 809.701 3040.46 809.701C3043.21 809.701 3045.46 810.151 3045.46 810.701C3045.46 811.251 3047.23 811.701 3049.4 811.701C3051.57 811.701 3053.62 812.151 3053.96 812.701C3054.3 813.251 3056.55 813.701 3058.96 813.701C3061.37 813.701 3063.62 814.151 3063.96 814.701C3064.3 815.251 3067 815.701 3069.96 815.701C3072.92 815.701 3075.62 816.151 3075.96 816.701C3076.3 817.251 3078.55 817.701 3080.96 817.701C3083.37 817.701 3085.62 818.151 3085.96 818.701C3086.3 819.251 3088.77 819.701 3091.46 819.701C3094.14 819.701 3096.62 820.151 3096.96 820.701C3097.3 821.251 3100.25 821.701 3103.52 821.701C3106.81 821.701 3109.46 822.147 3109.46 822.701C3109.46 823.272 3112.46 823.701 3116.46 823.701C3120.46 823.701 3123.46 824.13 3123.46 824.701C3123.46 825.27 3126.39 825.701 3130.26 825.701C3134 825.701 3137.49 826.117 3138.01 826.626C3138.53 827.134 3142.33 827.8 3146.46 828.104C3155.95 828.804 3174.87 830.469 3188.46 831.8C3194.23 832.366 3208.4 833.043 3219.95 833.305C3232.36 833.586 3241.35 834.202 3241.95 834.81C3243.15 836.035 3304.38 835.824 3306 834.589Z" fill="url(#paint0_linear_37_47)"/>
  <defs>
  <linearGradient id="paint0_linear_37_47" x1="1190.33" y1="490.774" x2="3727.46" y2="490.774" gradientUnits="userSpaceOnUse">
  <stop stop-color="white"/>
  <stop offset="1" stop-color="#F8F8F8"/>
  </linearGradient>
  </defs>
  </svg>
  