<svg width="4188" height="851" viewBox="0 0 4188 851" fill="none" xmlns="http://www.w3.org/2000/svg">
<g clip-path="url(#clip0_5_26)">
<path d="M-428.843 76.5403C-318.26 446.699 390.561 542.799 706.862 359.073C1463.85 -80.6298 2156.43 326.529 2214.09 369.87C2734.51 761.05 3398.38 1127.87 4190 0.376953V850.935L-428.843 851L-428.843 76.5403Z" fill="black" stroke="black"/>
<path d="M2876.42 833.263C2876.99 832.825 2885.32 832.227 2894.92 831.934C2928.3 830.916 2939.87 830.26 2939.87 829.388C2939.87 828.906 2944.03 828.274 2949.12 827.984C2963.75 827.152 2974.16 825.954 2998.87 822.262C3002.44 821.728 3007.84 821.045 3010.87 820.744C3013.89 820.444 3016.8 819.787 3017.32 819.286C3017.84 818.784 3020.88 818.374 3024.07 818.374C3027.27 818.374 3029.87 817.925 3029.87 817.374C3029.87 816.823 3032.32 816.374 3035.31 816.374C3038.3 816.374 3041.03 815.924 3041.37 815.374C3041.71 814.824 3043.73 814.374 3045.87 814.374C3048 814.374 3050.03 813.924 3050.37 813.374C3050.71 812.824 3052.96 812.374 3055.37 812.374C3057.78 812.374 3060.03 811.923 3060.37 811.373C3060.71 810.823 3063.21 810.373 3065.93 810.373C3068.65 810.374 3070.87 809.924 3070.87 809.374C3070.87 808.823 3072.42 808.373 3074.31 808.374C3076.2 808.374 3078.03 807.924 3078.37 807.374C3078.71 806.824 3080.99 806.374 3083.43 806.374C3085.87 806.374 3087.87 805.924 3087.87 805.374C3087.87 804.823 3089.67 804.374 3091.87 804.374C3094.07 804.374 3095.87 803.924 3095.87 803.374C3095.87 802.824 3097.64 802.374 3099.81 802.374C3101.98 802.374 3104.03 801.924 3104.37 801.374C3104.71 800.824 3106.51 800.374 3108.37 800.374C3110.23 800.374 3112.03 799.924 3112.37 799.374C3112.71 798.824 3114.54 798.374 3116.43 798.374C3118.32 798.374 3119.87 797.924 3119.87 797.374C3119.87 796.824 3121.42 796.374 3123.31 796.374C3125.2 796.374 3127.03 795.924 3127.37 795.374C3127.71 794.824 3129.54 794.374 3131.43 794.374C3133.32 794.374 3134.87 793.924 3134.87 793.374C3134.87 792.824 3136.44 792.374 3138.37 792.374C3140.29 792.374 3141.87 791.924 3141.87 791.374C3141.87 790.824 3143.44 790.374 3145.37 790.374C3147.29 790.374 3148.87 789.924 3148.87 789.374C3148.87 788.823 3150.19 788.374 3151.81 788.374C3153.43 788.374 3155.03 787.924 3155.37 787.374C3155.71 786.824 3157.31 786.374 3158.93 786.374C3160.55 786.374 3161.87 785.924 3161.87 785.374C3161.87 784.823 3163.22 784.374 3164.87 784.374C3166.52 784.374 3167.87 783.924 3167.87 783.374C3167.87 782.824 3169.42 782.374 3171.31 782.374C3173.2 782.374 3175.03 781.924 3175.37 781.374C3175.71 780.824 3176.87 780.374 3177.94 780.374C3179.02 780.374 3180.79 779.924 3181.88 779.374C3182.97 778.824 3184.76 777.924 3185.86 777.374C3186.95 776.824 3188.75 776.374 3189.87 776.374C3190.98 776.374 3192.79 775.924 3193.88 775.374C3194.98 774.824 3196.76 773.924 3197.86 773.374C3198.95 772.824 3200.72 772.374 3201.8 772.374C3202.87 772.374 3204.03 771.924 3204.37 771.374C3204.71 770.824 3206.09 770.374 3207.43 770.374C3208.77 770.374 3209.87 769.924 3209.87 769.374C3209.87 768.824 3211.22 768.374 3212.87 768.374C3214.52 768.374 3215.87 767.924 3215.87 767.374C3215.87 766.824 3216.78 766.374 3217.88 766.374C3218.99 766.374 3220.79 765.924 3221.88 765.374C3222.98 764.824 3224.76 763.924 3225.86 763.374C3226.95 762.824 3228.75 762.374 3229.86 762.374C3230.96 762.374 3231.87 761.924 3231.87 761.374C3231.87 760.824 3232.97 760.374 3234.31 760.374C3235.65 760.374 3237.03 759.924 3237.37 759.374C3237.71 758.824 3238.86 758.374 3239.93 758.374C3241 758.374 3241.87 757.924 3241.87 757.374C3241.87 756.824 3242.99 756.374 3244.37 756.374C3245.74 756.374 3246.87 755.924 3246.87 755.374C3246.87 754.824 3247.78 754.374 3248.88 754.374C3249.99 754.374 3251.79 753.924 3252.88 753.374L3256.85 751.374C3257.95 750.824 3259.52 750.374 3260.36 750.374C3261.19 750.374 3261.87 749.924 3261.87 749.374C3261.87 748.824 3262.74 748.374 3263.81 748.374C3264.88 748.374 3266.03 747.924 3266.37 747.374C3266.71 746.824 3268.09 746.374 3269.43 746.374C3270.77 746.374 3271.87 745.924 3271.87 745.374C3271.87 744.824 3272.77 744.374 3273.87 744.374C3274.97 744.374 3275.87 743.924 3275.87 743.374C3275.87 742.824 3276.74 742.374 3277.81 742.374C3278.88 742.374 3280.03 741.924 3280.37 741.374C3280.71 740.824 3282.09 740.374 3283.43 740.374C3284.77 740.374 3285.87 739.924 3285.87 739.374C3285.87 738.824 3286.77 738.374 3287.87 738.374C3288.97 738.374 3289.87 737.924 3289.87 737.374C3289.87 736.824 3290.77 736.374 3291.87 736.374C3292.97 736.374 3293.87 735.924 3293.87 735.374C3293.87 734.824 3294.77 734.374 3295.87 734.374C3296.97 734.374 3297.87 733.931 3297.87 733.39C3297.87 732.759 3276.23 732.264 3237.62 732.014C3201.24 731.778 3174.4 731.189 3169.87 730.525C3165.74 729.92 3157.42 728.943 3151.37 728.353C3129.58 726.228 3116.19 724.755 3096.87 722.358C3092.19 721.778 3085.22 721.059 3081.37 720.761C3077.52 720.462 3073.94 719.804 3073.42 719.296C3072.9 718.789 3069.89 718.374 3066.73 718.374C3063.57 718.374 3060.71 717.924 3060.37 717.374C3060.03 716.824 3057.1 716.374 3053.87 716.374C3050.63 716.374 3047.71 715.924 3047.37 715.374C3047.03 714.824 3044.55 714.374 3041.87 714.374C3039.18 714.374 3036.71 713.924 3036.37 713.374C3036.03 712.824 3033.78 712.374 3031.37 712.374C3028.96 712.374 3026.71 711.924 3026.37 711.374C3026.03 710.824 3022.65 710.374 3018.87 710.374C3015.08 710.374 3011.71 709.924 3011.37 709.374C3011.03 708.824 3008.78 708.374 3006.37 708.374C3003.96 708.374 3001.71 707.924 3001.37 707.374C3001.03 706.824 2998.84 706.374 2996.51 706.374C2994.18 706.374 2991.84 705.968 2991.32 705.471C2990.79 704.975 2988.34 704.314 2985.87 704.003C2974.27 702.546 2972.24 702.202 2970.37 701.38C2969.27 700.895 2966.79 700.278 2964.87 700.008C2962.94 699.739 2959.34 699 2956.87 698.365C2954.39 697.73 2950.68 696.976 2948.61 696.687C2946.55 696.399 2944.61 695.76 2944.3 695.268C2944 694.777 2942.23 694.374 2940.37 694.374C2938.51 694.374 2936.71 693.924 2936.37 693.374C2936.03 692.824 2934.23 692.374 2932.37 692.374C2930.51 692.374 2928.71 691.924 2928.37 691.374C2928.03 690.824 2926.45 690.374 2924.87 690.374C2923.28 690.374 2921.71 689.924 2921.37 689.374C2921.03 688.824 2918.75 688.374 2916.31 688.374C2913.87 688.374 2911.87 687.924 2911.87 687.374C2911.87 686.824 2910.32 686.374 2908.43 686.374C2906.54 686.374 2904.74 685.974 2904.44 685.485C2904.14 684.996 2902.42 684.353 2900.63 684.057C2898.84 683.761 2895.34 683.004 2892.87 682.374C2890.39 681.745 2886.9 680.987 2885.11 680.691C2883.32 680.395 2881.6 679.753 2881.3 679.264C2881 678.775 2879.2 678.374 2877.31 678.374C2875.42 678.374 2873.87 677.924 2873.87 677.374C2873.87 676.824 2872.07 676.374 2869.87 676.374C2867.67 676.374 2865.87 675.924 2865.87 675.374C2865.87 674.824 2864.55 674.374 2862.93 674.374C2861.31 674.374 2859.71 673.924 2859.37 673.374C2859.03 672.824 2857.45 672.374 2855.87 672.374C2854.28 672.374 2852.71 671.924 2852.37 671.374C2852.03 670.824 2850.45 670.374 2848.87 670.374C2847.28 670.374 2845.71 669.924 2845.37 669.374C2845.03 668.824 2843.68 668.374 2842.37 668.374C2841.06 668.374 2839.71 667.924 2839.37 667.374C2839.03 666.824 2837.68 666.374 2836.37 666.374C2835.06 666.374 2833.71 665.924 2833.37 665.374C2833.03 664.824 2831.45 664.374 2829.87 664.374C2828.28 664.374 2826.71 663.924 2826.37 663.374C2826.03 662.824 2824.43 662.374 2822.81 662.374C2821.19 662.374 2819.87 661.924 2819.87 661.374C2819.87 660.824 2818.74 660.374 2817.36 660.374C2815.97 660.374 2814.06 659.968 2813.11 659.472C2812.15 658.975 2809.34 658.031 2806.87 657.374C2804.39 656.717 2801.69 655.849 2800.87 655.445C2800.04 655.041 2797.23 654.087 2794.62 653.324C2792.01 652.561 2789.87 651.586 2789.87 651.156C2789.87 650.726 2788.52 650.374 2786.87 650.374C2785.22 650.374 2783.87 649.924 2783.87 649.374C2783.87 648.824 2782.96 648.374 2781.86 648.374C2780.75 648.374 2778.95 647.924 2777.86 647.374C2776.76 646.824 2774.98 645.924 2773.88 645.374C2772.79 644.824 2770.99 644.374 2769.88 644.374C2768.78 644.374 2767.87 643.924 2767.87 643.374C2767.87 642.824 2766.77 642.374 2765.43 642.374C2764.09 642.374 2762.71 641.924 2762.37 641.374C2762.03 640.824 2760.87 640.374 2759.8 640.374C2758.72 640.374 2756.95 639.924 2755.86 639.374L2751.88 637.374C2750.79 636.824 2748.79 636.374 2747.44 636.374C2746.09 636.374 2744.71 635.924 2744.37 635.374C2744.03 634.824 2742.68 634.374 2741.37 634.374C2740.06 634.374 2738.71 633.924 2738.37 633.374C2738.03 632.824 2736.88 632.374 2735.81 632.374C2734.74 632.374 2733.87 631.924 2733.87 631.374C2733.87 630.824 2732.77 630.374 2731.43 630.374C2730.09 630.374 2728.71 629.924 2728.37 629.374C2728.03 628.824 2726.88 628.374 2725.81 628.374C2724.74 628.374 2723.87 627.924 2723.87 627.374C2723.87 626.824 2722.96 626.374 2721.86 626.374C2720.75 626.374 2718.95 625.924 2717.86 625.374L2713.88 623.374C2712.79 622.824 2710.99 622.374 2709.88 622.374C2708.78 622.374 2707.87 621.924 2707.87 621.374C2707.87 620.824 2706.96 620.374 2705.86 620.374C2704.75 620.374 2703.06 619.973 2702.11 619.484C2699.77 618.285 2690.97 614.359 2687.87 613.131C2686.49 612.586 2684.59 611.743 2683.63 611.258C2682.68 610.772 2680.99 610.374 2679.88 610.374C2678.78 610.374 2677.87 609.924 2677.87 609.374C2677.87 608.824 2676.77 608.374 2675.43 608.374C2674.09 608.374 2672.71 607.924 2672.37 607.374C2672.03 606.824 2670.88 606.374 2669.81 606.374C2668.74 606.374 2667.87 605.924 2667.87 605.374C2667.87 604.824 2666.97 604.374 2665.87 604.374C2664.77 604.374 2663.87 603.924 2663.87 603.374C2663.87 602.824 2663.19 602.374 2662.36 602.374C2661.52 602.374 2659.95 601.924 2658.86 601.374L2654.88 599.374C2653.79 598.824 2652.22 598.374 2651.38 598.374C2650.55 598.374 2649.87 597.924 2649.87 597.374C2649.87 596.824 2649.19 596.374 2648.36 596.374C2647.52 596.374 2645.95 595.924 2644.85 595.374C2643.76 594.824 2641.98 593.924 2640.88 593.374C2639.79 592.824 2638.21 592.374 2637.38 592.374C2636.55 592.374 2635.87 591.924 2635.87 591.374C2635.87 590.824 2635.19 590.374 2634.36 590.374C2633.52 590.374 2631.95 589.924 2630.86 589.374L2626.88 587.374C2625.79 586.824 2624.21 586.374 2623.38 586.374C2622.55 586.374 2621.87 585.924 2621.87 585.374C2621.87 584.824 2620.97 584.374 2619.87 584.374C2618.77 584.374 2617.87 583.924 2617.87 583.374C2617.87 582.824 2616.97 582.374 2615.87 582.374C2614.77 582.374 2613.87 581.924 2613.87 581.374C2613.87 580.824 2613.24 580.374 2612.46 580.374C2611.69 580.374 2609.33 579.53 2607.21 578.497C2605.1 577.465 2600.49 575.215 2596.98 573.497C2593.46 571.78 2589.98 570.374 2589.23 570.374C2588.48 570.374 2587.87 569.924 2587.87 569.374C2587.87 568.824 2586.97 568.374 2585.87 568.374C2584.77 568.374 2583.87 567.924 2583.87 567.374C2583.87 566.824 2582.97 566.374 2581.87 566.374C2580.77 566.374 2579.87 565.924 2579.87 565.374C2579.87 564.824 2578.97 564.374 2577.87 564.374C2576.77 564.374 2575.87 563.924 2575.87 563.374C2575.87 562.824 2574.97 562.374 2573.87 562.374C2572.77 562.374 2571.87 561.924 2571.87 561.374C2571.87 560.824 2570.97 560.374 2569.87 560.374C2568.77 560.374 2567.87 559.924 2567.87 559.374C2567.87 558.824 2566.97 558.374 2565.87 558.374C2564.77 558.374 2563.87 557.924 2563.87 557.374C2563.87 556.824 2562.97 556.374 2561.87 556.374C2560.77 556.374 2559.87 555.924 2559.87 555.374C2559.87 554.824 2558.97 554.374 2557.87 554.374C2556.77 554.374 2555.87 553.924 2555.87 553.374C2555.87 552.824 2554.97 552.374 2553.87 552.374C2552.77 552.374 2551.87 551.924 2551.87 551.374C2551.87 550.824 2550.97 550.374 2549.87 550.374C2548.77 550.374 2547.87 549.924 2547.87 549.374C2547.87 548.824 2546.97 548.374 2545.87 548.374C2544.77 548.374 2543.87 547.924 2543.87 547.374C2543.87 546.824 2542.97 546.374 2541.87 546.374C2540.77 546.374 2539.87 545.924 2539.87 545.374C2539.87 544.824 2538.97 544.374 2537.87 544.374C2536.77 544.374 2535.87 543.924 2535.87 543.374C2535.87 542.824 2534.97 542.374 2533.87 542.374C2532.77 542.374 2531.87 542.008 2531.87 541.561C2531.87 541.113 2530.29 540.129 2528.37 539.374C2526.44 538.619 2524.87 537.635 2524.87 537.187C2524.87 536.74 2523.97 536.374 2522.87 536.374C2521.77 536.374 2520.86 536.037 2520.85 535.624C2520.85 535.212 2517.46 533.3 2513.35 531.377C2509.23 529.454 2505.87 527.542 2505.87 527.127C2505.87 526.713 2504.97 526.374 2503.87 526.374C2502.77 526.374 2501.87 525.924 2501.87 525.374C2501.87 524.824 2501.01 524.374 2499.95 524.374C2498.9 524.374 2497.89 524.037 2497.7 523.624C2497.42 522.987 2490.49 519.147 2482.13 514.988C2480.89 514.376 2479.88 513.537 2479.88 513.124C2479.88 512.712 2478.97 512.374 2477.87 512.374C2476.77 512.374 2475.87 511.977 2475.87 511.491C2475.87 511.005 2475.08 510.358 2474.12 510.053C2471.78 509.311 2466.45 506.063 2466.04 505.124C2465.85 504.712 2464.84 504.374 2463.79 504.374C2462.73 504.374 2461.87 503.924 2461.87 503.374C2461.87 502.824 2460.97 502.374 2459.87 502.374C2458.77 502.374 2457.87 501.924 2457.87 501.374C2457.87 500.824 2456.97 500.374 2455.87 500.374C2454.77 500.374 2453.87 499.924 2453.87 499.374C2453.87 498.824 2453.19 498.374 2452.37 498.374C2451.54 498.374 2450.87 498.037 2450.87 497.624C2450.86 497.212 2448.39 495.749 2445.37 494.374C2442.35 492.999 2439.87 491.537 2439.87 491.124C2439.87 490.712 2438.97 490.374 2437.87 490.374C2436.77 490.374 2435.87 489.924 2435.87 489.374C2435.87 488.824 2434.97 488.374 2433.87 488.374C2432.77 488.374 2431.87 488.037 2431.86 487.624C2431.86 487.212 2430.84 486.373 2429.61 485.76C2421.24 481.601 2414.32 477.762 2414.04 477.124C2413.85 476.712 2412.84 476.374 2411.79 476.374C2410.73 476.374 2409.87 476.008 2409.87 475.561C2409.87 475.113 2408.29 474.13 2406.37 473.374C2404.44 472.619 2402.87 471.635 2402.87 471.188C2402.87 470.74 2402.19 470.374 2401.37 470.374C2400.54 470.374 2399.87 469.924 2399.87 469.374C2399.87 468.824 2398.97 468.374 2397.87 468.374C2396.77 468.374 2395.87 467.977 2395.87 467.491C2395.87 467.005 2395.08 466.358 2394.12 466.053C2392.41 465.509 2386.86 462.363 2385.87 461.374C2384.88 460.385 2379.33 457.239 2377.62 456.696C2376.66 456.391 2375.87 455.743 2375.87 455.257C2375.87 454.772 2375.18 454.374 2374.33 454.374C2373.48 454.374 2371.82 453.474 2370.64 452.374C2369.46 451.274 2367.9 450.374 2367.18 450.374C2366.46 450.374 2365.87 449.924 2365.87 449.374C2365.87 448.824 2364.97 448.374 2363.87 448.374C2362.77 448.374 2361.87 448 2361.87 447.543C2361.87 447.086 2360.63 446.074 2359.12 445.293C2357.61 444.513 2355.5 443.087 2354.43 442.124C2353.36 441.162 2351.9 440.374 2351.18 440.374C2350.46 440.374 2349.87 439.924 2349.87 439.374C2349.87 438.824 2349.28 438.374 2348.56 438.374C2347.84 438.374 2346.37 437.587 2345.31 436.624C2344.24 435.662 2342.13 434.236 2340.62 433.455C2339.11 432.675 2337.87 431.662 2337.87 431.205C2337.87 430.748 2336.97 430.374 2335.87 430.374C2334.77 430.374 2333.87 430 2333.87 429.543C2333.87 429.086 2332.63 428.077 2331.12 427.3C2329.61 426.523 2327.69 425.207 2326.87 424.374C2326.04 423.542 2324.13 422.225 2322.62 421.448C2321.11 420.672 2319.87 419.662 2319.87 419.205C2319.87 418.748 2319.31 418.373 2318.62 418.372C2317.93 418.371 2315.79 417.022 2313.87 415.374C2311.94 413.727 2309.81 412.378 2309.12 412.376C2308.43 412.376 2307.87 412 2307.87 411.543C2307.87 411.086 2306.63 410.077 2305.12 409.3C2303.61 408.523 2301.64 407.097 2300.75 406.131C2299.86 405.165 2298.62 404.374 2298 404.374C2297.38 404.374 2296.87 403.924 2296.87 403.374C2296.87 402.824 2296.19 402.374 2295.37 402.374C2294.54 402.374 2293.87 402 2293.87 401.543C2293.87 401.086 2292.63 400.077 2291.12 399.3C2289.61 398.523 2287.64 397.097 2286.75 396.131C2285.86 395.165 2284.62 394.374 2284 394.374C2283.38 394.374 2282.87 393.924 2282.87 393.374C2282.87 392.824 2282.19 392.374 2281.37 392.374C2280.54 392.374 2279.87 392.021 2279.87 391.59C2279.87 391.158 2278.51 390.001 2276.84 389.017C2275.18 388.034 2272.81 386.249 2271.59 385.052C2270.37 383.854 2268.13 382.236 2266.62 381.455C2265.11 380.675 2263.87 379.662 2263.87 379.205C2263.87 378.748 2263.19 378.374 2262.37 378.374C2261.54 378.374 2260.87 377.924 2260.87 377.374C2260.87 376.824 2260.19 376.374 2259.37 376.374C2258.54 376.374 2257.87 376 2257.87 375.543C2257.87 375.086 2256.63 374.074 2255.12 373.293C2253.61 372.513 2251.5 371.087 2250.43 370.124C2249.36 369.162 2247.9 368.374 2247.18 368.374C2246.46 368.374 2245.87 367.924 2245.87 367.374C2245.87 366.824 2244.97 366.374 2243.87 366.374C2242.77 366.374 2241.87 365.924 2241.87 365.374C2241.87 364.824 2241.19 364.374 2240.37 364.374C2239.54 364.374 2238.87 363.924 2238.87 363.374C2238.87 362.824 2238.19 362.374 2237.37 362.374C2236.54 362.374 2235.87 361.977 2235.87 361.491C2235.87 361.005 2235.08 360.358 2234.12 360.053C2232.41 359.509 2226.86 356.363 2225.87 355.374C2224.88 354.385 2219.33 351.239 2217.62 350.696C2216.66 350.391 2215.87 349.744 2215.87 349.258C2215.87 348.772 2214.97 348.374 2213.87 348.374C2212.77 348.374 2211.87 347.924 2211.87 347.374C2211.87 346.824 2210.97 346.374 2209.87 346.374C2208.77 346.374 2207.87 345.924 2207.87 345.374C2207.87 344.824 2207.28 344.374 2206.56 344.374C2205.84 344.374 2204.28 343.474 2203.1 342.374C2201.92 341.274 2200.26 340.374 2199.41 340.374C2198.56 340.374 2197.87 339.924 2197.87 339.374C2197.87 338.824 2197.28 338.374 2196.56 338.374C2195.84 338.374 2194.35 337.587 2193.26 336.624C2190.44 334.151 2187.15 332.374 2185.38 332.374C2184.55 332.374 2183.87 331.924 2183.87 331.374C2183.87 330.824 2182.97 330.374 2181.87 330.374C2180.77 330.374 2179.87 329.924 2179.87 329.374C2179.87 328.824 2179.19 328.374 2178.37 328.374C2177.54 328.374 2176.87 327.924 2176.87 327.374C2176.87 326.824 2176.19 326.374 2175.37 326.374C2174.54 326.374 2173.87 325.924 2173.87 325.374C2173.87 324.824 2172.97 324.374 2171.87 324.374C2170.77 324.374 2169.87 323.924 2169.87 323.374C2169.87 322.824 2168.97 322.374 2167.87 322.374C2166.77 322.374 2165.87 321.924 2165.87 321.374C2165.87 320.824 2164.97 320.374 2163.87 320.374C2162.77 320.374 2161.87 319.924 2161.87 319.374C2161.87 318.824 2160.97 318.374 2159.87 318.374C2158.77 318.374 2157.87 317.924 2157.87 317.374C2157.87 316.824 2156.97 316.374 2155.87 316.374C2154.77 316.374 2153.87 315.924 2153.87 315.374C2153.87 314.824 2152.97 314.374 2151.87 314.374C2150.77 314.374 2149.87 313.977 2149.87 313.491C2149.87 313.005 2149.08 312.358 2148.12 312.052C2145.78 311.311 2140.45 308.063 2140.04 307.124C2139.85 306.712 2139.06 306.374 2138.27 306.374C2137.49 306.374 2136.06 305.947 2135.11 305.424C2130.29 302.79 2116.16 296.374 2115.17 296.374C2114.55 296.374 2113.89 296.037 2113.7 295.624C2113.23 294.565 2100.87 288.374 2099.23 288.374C2098.48 288.374 2097.87 287.924 2097.87 287.374C2097.87 286.824 2096.97 286.374 2095.87 286.374C2094.77 286.374 2093.87 285.924 2093.87 285.374C2093.87 284.824 2093.28 284.374 2092.57 284.374C2090.73 284.374 2085.89 282.022 2085.88 281.124C2085.88 280.712 2085.24 280.374 2084.46 280.374C2083.25 280.374 2080.07 278.995 2072.63 275.249C2071.68 274.768 2070.22 274.374 2069.38 274.374C2068.55 274.374 2067.87 273.924 2067.87 273.374C2067.87 272.824 2066.97 272.374 2065.87 272.374C2064.77 272.374 2063.87 271.924 2063.87 271.374C2063.87 270.824 2062.97 270.374 2061.87 270.374C2060.77 270.374 2059.87 269.924 2059.87 269.374C2059.87 268.824 2059.19 268.374 2058.36 268.374C2057.52 268.374 2055.84 267.854 2054.61 267.218C2049.91 264.792 2048.85 264.374 2047.38 264.374C2046.55 264.374 2045.87 263.924 2045.87 263.374C2045.87 262.824 2044.77 262.374 2043.43 262.374C2042.09 262.374 2040.71 261.924 2040.37 261.374C2040.03 260.824 2038.88 260.374 2037.81 260.374C2036.74 260.374 2035.87 259.924 2035.87 259.374C2035.87 258.824 2035.19 258.374 2034.36 258.374C2032.89 258.374 2031.83 257.956 2027.13 255.53C2025.9 254.894 2024.22 254.374 2023.38 254.374C2022.55 254.374 2021.87 253.924 2021.87 253.374C2021.87 252.824 2020.77 252.374 2019.43 252.374C2018.09 252.374 2016.71 251.924 2016.37 251.374C2016.03 250.824 2014.88 250.374 2013.81 250.374C2012.74 250.374 2011.87 249.924 2011.87 249.374C2011.87 248.824 2011.19 248.374 2010.36 248.374C2009.52 248.374 2007.95 247.924 2006.86 247.374L2002.88 245.374C2001.79 244.824 2000.22 244.374 1999.38 244.374C1998.55 244.374 1997.87 243.924 1997.87 243.374C1997.87 242.824 1996.52 242.374 1994.87 242.374C1993.22 242.374 1991.87 241.924 1991.87 241.374C1991.87 240.824 1990.96 240.374 1989.86 240.374C1988.75 240.374 1987.06 239.977 1986.11 239.491C1984.46 238.651 1980.75 237.061 1976.37 235.306C1975.27 234.866 1972.57 233.964 1970.37 233.302C1965.87 231.947 1962.21 230.566 1959.63 229.258C1958.68 228.772 1957.02 228.374 1955.94 228.374C1954.87 228.374 1953.71 227.924 1953.37 227.374C1953.03 226.824 1951.65 226.374 1950.31 226.374C1948.97 226.374 1947.87 225.924 1947.87 225.374C1947.87 224.824 1946.52 224.374 1944.87 224.374C1943.22 224.374 1941.87 223.924 1941.87 223.374C1941.87 222.824 1940.77 222.374 1939.43 222.374C1938.09 222.374 1936.71 221.924 1936.37 221.374C1936.03 220.824 1934.88 220.374 1933.81 220.374C1932.74 220.374 1931.87 219.924 1931.87 219.374C1931.87 218.824 1930.77 218.374 1929.43 218.374C1928.09 218.374 1926.71 217.924 1926.37 217.374C1926.03 216.824 1924.43 216.374 1922.81 216.374C1921.19 216.374 1919.87 215.924 1919.87 215.374C1919.87 214.824 1918.55 214.374 1916.93 214.374C1915.31 214.374 1913.71 213.924 1913.37 213.374C1913.03 212.824 1911.65 212.374 1910.31 212.374C1908.97 212.374 1907.87 211.924 1907.87 211.374C1907.87 210.824 1906.55 210.374 1904.93 210.374C1903.31 210.374 1901.71 209.924 1901.37 209.374C1901.03 208.824 1899.23 208.374 1897.37 208.374C1895.51 208.374 1893.71 207.924 1893.37 207.374C1893.03 206.824 1891.88 206.374 1890.81 206.374C1889.74 206.374 1888.87 205.924 1888.87 205.374C1888.87 204.824 1887.32 204.374 1885.43 204.374C1883.54 204.374 1881.71 203.924 1881.37 203.374C1881.03 202.824 1879 202.374 1876.87 202.374C1874.73 202.374 1872.71 201.924 1872.37 201.374C1872.03 200.824 1870.89 200.374 1869.84 200.374C1868.79 200.374 1866.43 199.53 1864.59 198.497C1861.48 196.749 1859.15 196.218 1848.12 194.742C1845.78 194.429 1843.87 193.768 1843.87 193.273C1843.87 192.779 1842.97 192.374 1841.87 192.374C1840.77 192.374 1839.87 191.924 1839.87 191.374C1839.87 190.824 1838.97 190.374 1837.87 190.374C1836.77 190.374 1835.87 189.924 1835.87 189.374C1835.87 188.824 1834.52 188.374 1832.87 188.374C1831.22 188.374 1829.87 187.977 1829.87 187.491C1829.87 187.005 1827.06 186.334 1823.62 186.001C1813.3 184.999 1808.89 184.212 1808.3 183.268C1808 182.777 1806.43 182.374 1804.81 182.374C1803.19 182.374 1801.87 181.924 1801.87 181.374C1801.87 180.824 1800.07 180.374 1797.87 180.374C1795.67 180.374 1793.87 179.963 1793.87 179.46C1793.87 178.957 1791.06 178.301 1787.62 178.003C1776.79 177.064 1771.4 176.21 1770.42 175.277C1769.9 174.781 1767.56 174.374 1765.23 174.374C1762.9 174.374 1760.71 173.924 1760.37 173.374C1760.03 172.824 1757.98 172.374 1755.81 172.374C1753.64 172.374 1751.87 171.924 1751.87 171.374C1751.87 170.824 1750.55 170.374 1748.93 170.374C1747.31 170.374 1745.71 169.924 1745.37 169.374C1745.03 168.824 1743.45 168.374 1741.87 168.374C1740.28 168.374 1738.71 167.924 1738.37 167.374C1738.03 166.824 1734.2 166.374 1729.87 166.374C1725.53 166.374 1721.71 165.924 1721.37 165.374C1721.03 164.824 1719.45 164.374 1717.87 164.374C1716.28 164.374 1714.71 163.924 1714.37 163.374C1714.03 162.824 1712.88 162.374 1711.81 162.374C1710.74 162.374 1709.87 161.947 1709.87 161.374C1709.87 160.802 1705.89 160.374 1700.57 160.374C1695.24 160.374 1693.74 159.741 1690.32 159.426C1685 158.936 1679.69 158.413 1674.37 157.961C1641.97 150.246 1605.35 152.125 1570.82 149.35C1566.63 149.013 1562.44 148.755 1558.25 148.374C1548.24 147.463 1538.31 145.491 1528.27 145.241C1526.85 145.207 1525.44 145.434 1524.02 145.472C1521.92 145.529 1519.82 145.472 1517.72 145.472C1512.21 145.47 1506.69 145.525 1501.18 145.464C1490.99 145.352 1486.9 146.242 1470.62 144.802C1466.24 144.415 1463.87 144.569 1463.87 145.242C1463.87 145.935 1453.67 146.285 1433.13 146.298C1412.95 146.309 1402.27 146.67 1402.05 147.346C1401.85 147.925 1398.55 148.375 1394.49 148.375C1390.52 148.375 1386.84 148.778 1386.32 149.271C1385.24 150.283 1377.67 151.093 1357.37 152.365C1341.25 153.375 1334.85 154.215 1333.21 155.532C1332.58 156.044 1326.8 156.376 1320.37 156.27C1313.11 156.149 1308.43 156.472 1308.02 157.121C1307.37 158.162 1301.7 158.976 1288.37 159.941C1284.52 160.22 1280.47 160.847 1279.37 161.335C1278.27 161.823 1275.34 162.521 1272.87 162.887C1266.99 163.756 1258.4 165.119 1250.62 166.42C1247.18 166.994 1242.12 167.71 1239.37 168.012C1236.62 168.314 1233.94 168.969 1233.42 169.468C1232.9 169.967 1229.63 170.376 1226.17 170.376C1222.64 170.376 1219.87 170.815 1219.87 171.376C1219.87 171.926 1217.62 172.376 1214.87 172.376C1212.12 172.376 1209.87 172.826 1209.87 173.376C1209.87 173.926 1207.62 174.376 1204.87 174.376C1202.12 174.376 1199.87 174.781 1199.87 175.275C1199.87 175.77 1197.96 176.419 1195.62 176.717C1193.28 177.015 1188.89 177.758 1185.87 178.368C1182.84 178.978 1178.57 179.726 1176.37 180.029C1174.17 180.333 1171.94 180.985 1171.42 181.479C1170.9 181.972 1168.56 182.376 1166.23 182.376C1163.9 182.376 1161.74 182.779 1161.43 183.271C1161.13 183.762 1159.08 184.437 1156.88 184.77C1154.67 185.103 1151.07 185.648 1148.86 185.982C1146.66 186.315 1144.61 186.99 1144.3 187.481C1144 187.973 1142.29 188.376 1140.51 188.376C1138.73 188.376 1136.84 188.78 1136.32 189.273C1135.8 189.767 1133.57 190.417 1131.37 190.717C1124.49 191.656 1120.44 192.481 1118.37 193.369C1116.27 194.269 1112.55 195.158 1107.12 196.057C1105.33 196.353 1103.87 196.996 1103.87 197.486C1103.87 197.975 1102.07 198.376 1099.87 198.376C1097.67 198.376 1095.87 198.826 1095.87 199.376C1095.87 199.926 1094.07 200.376 1091.87 200.376C1089.67 200.376 1087.87 200.826 1087.87 201.376C1087.87 201.926 1086.55 202.376 1084.93 202.376C1083.31 202.376 1081.71 202.826 1081.37 203.376C1081.03 203.926 1079.45 204.376 1077.87 204.376C1076.28 204.376 1074.71 204.826 1074.37 205.376C1074.03 205.926 1071.98 206.376 1069.81 206.376C1067.64 206.376 1065.87 206.826 1065.87 207.376C1065.87 207.926 1064.55 208.377 1062.93 208.377C1061.31 208.377 1059.71 208.827 1059.37 209.376C1059.03 209.926 1057.68 210.376 1056.37 210.376C1055.06 210.376 1053.71 210.826 1053.37 211.376C1053.03 211.926 1051.45 212.376 1049.87 212.376C1048.28 212.376 1046.71 212.826 1046.37 213.376C1046.03 213.926 1044.45 214.376 1042.87 214.376C1041.28 214.376 1039.71 214.826 1039.37 215.376C1039.03 215.926 1037.2 216.376 1035.31 216.376C1033.42 216.376 1031.87 216.826 1031.87 217.376C1031.87 217.926 1030.77 218.376 1029.43 218.376C1028.09 218.376 1026.71 218.826 1026.37 219.376C1026.03 219.926 1024.45 220.376 1022.87 220.376C1021.28 220.376 1019.71 220.826 1019.37 221.376C1019.03 221.926 1017.23 222.376 1015.37 222.376C1013.51 222.376 1011.71 222.826 1011.37 223.377C1011.03 223.927 1009.65 224.377 1008.31 224.377C1006.97 224.377 1005.87 224.827 1005.87 225.376C1005.87 225.926 1004.96 226.376 1003.86 226.376C1002.75 226.377 1001.06 226.774 1000.11 227.26C995.12 229.796 980.885 234.376 977.988 234.376C976.823 234.376 975.869 234.826 975.869 235.376C975.869 235.926 974.771 236.376 973.428 236.376C972.086 236.376 970.709 236.826 970.369 237.376C970.03 237.926 968.878 238.376 967.81 238.376C966.743 238.376 965.869 238.826 965.869 239.376C965.869 239.926 964.963 240.376 963.856 240.376C962.748 240.376 960.948 240.826 959.856 241.376C958.763 241.926 956.976 242.826 955.883 243.376C954.79 243.926 952.99 244.376 951.883 244.376C950.776 244.377 949.869 244.826 949.87 245.376C949.869 245.926 948.52 246.377 946.869 246.376C945.219 246.376 943.869 246.826 943.869 247.376C943.869 247.926 942.519 248.376 940.869 248.376C939.219 248.376 937.869 248.826 937.869 249.376C937.869 249.926 936.771 250.376 935.428 250.376C934.086 250.376 932.709 250.826 932.369 251.376C932.03 251.926 930.878 252.376 929.81 252.376C928.743 252.376 927.869 252.826 927.869 253.376C927.869 253.926 926.771 254.376 925.428 254.376C924.086 254.376 922.709 254.826 922.369 255.376C922.03 255.926 920.878 256.376 919.81 256.376C918.743 256.376 917.869 256.826 917.869 257.376C917.869 257.926 916.519 258.376 914.869 258.376C913.219 258.376 911.869 258.744 911.869 259.195C911.87 259.646 909.619 260.627 906.869 261.376C904.119 262.125 901.869 263.025 901.869 263.376C901.87 263.727 899.619 264.627 896.869 265.376C894.119 266.125 891.869 267.106 891.869 267.557C891.87 268.007 890.996 268.376 889.928 268.376C888.861 268.376 887.709 268.826 887.369 269.376C887.03 269.926 885.653 270.376 884.31 270.376C882.968 270.376 881.869 270.826 881.869 271.376C881.869 271.926 881.188 272.376 880.356 272.376C879.523 272.376 877.948 272.826 876.856 273.376C875.763 273.926 873.975 274.826 872.883 275.376C871.79 275.926 870.215 276.376 869.383 276.376C868.551 276.376 867.869 276.826 867.869 277.376C867.869 277.926 866.996 278.376 865.928 278.376C864.861 278.376 863.709 278.826 863.369 279.376C863.03 279.926 861.68 280.376 860.369 280.376C859.059 280.376 857.709 280.826 857.369 281.376C857.03 281.926 855.69 282.376 854.394 282.376C853.097 282.376 851.886 282.713 851.702 283.124C851.222 284.205 842.94 288.374 841.274 288.374C840.501 288.374 839.869 288.825 839.869 289.374C839.869 289.924 838.969 290.374 837.869 290.374C836.769 290.374 835.869 290.824 835.869 291.374C835.869 291.924 834.77 292.374 833.428 292.374C832.085 292.374 830.709 292.824 830.369 293.374C830.029 293.924 828.737 294.374 827.499 294.374C826.26 294.375 824.28 295.276 823.099 296.374C821.918 297.474 820.259 298.374 819.411 298.374C818.563 298.374 817.868 298.823 817.869 299.374C817.869 299.924 816.969 300.374 815.869 300.374C814.769 300.374 813.869 300.824 813.869 301.374C813.869 301.924 812.969 302.374 811.869 302.374C810.769 302.374 809.869 302.824 809.869 303.374C809.869 303.924 808.969 304.374 807.869 304.374C806.769 304.374 805.869 304.824 805.869 305.374C805.869 305.924 804.969 306.374 803.869 306.374C802.769 306.375 801.869 306.824 801.869 307.374C801.869 307.924 801.257 308.374 800.509 308.374C799.762 308.374 796.274 309.78 792.759 311.497C789.245 313.215 784.639 315.465 782.524 316.498C780.41 317.53 778.048 318.374 777.274 318.374C776.501 318.374 775.869 318.824 775.869 319.374C775.869 319.924 775.006 320.374 773.952 320.374C772.898 320.374 771.886 320.728 771.702 321.161C771.519 321.594 768.669 323.267 765.369 324.879C760.993 327.016 759.9 327.917 761.331 328.206C762.41 328.424 763.46 328.101 763.664 327.488C763.868 326.876 765.123 326.374 766.452 326.374C767.781 326.374 768.869 325.924 768.869 325.374C768.869 324.824 769.994 324.374 771.369 324.374C772.744 324.374 773.869 323.924 773.869 323.374C773.869 322.824 774.769 322.374 775.869 322.374C776.969 322.374 777.869 321.924 777.869 321.374C777.869 320.824 778.769 320.374 779.869 320.374C780.969 320.374 781.869 319.924 781.869 319.374C781.869 318.824 782.769 318.374 783.869 318.374C784.969 318.374 785.869 317.924 785.869 317.374C785.869 316.824 786.769 316.374 787.869 316.374C788.969 316.374 789.869 315.924 789.869 315.374C789.869 314.824 790.769 314.374 791.869 314.374C792.969 314.374 793.869 313.924 793.869 313.374C793.869 312.824 794.769 312.374 795.869 312.374C796.969 312.374 797.869 311.924 797.869 311.374C797.869 310.824 798.994 310.374 800.369 310.374C801.744 310.374 802.869 309.924 802.869 309.374C802.869 308.824 803.994 308.374 805.369 308.374C806.744 308.374 807.869 307.924 807.869 307.373C807.869 306.823 808.769 306.374 809.869 306.373C810.969 306.373 811.869 305.924 811.869 305.374C811.869 304.824 812.742 304.374 813.81 304.374C814.877 304.374 816.029 303.923 816.369 303.374C816.709 302.824 818.085 302.374 819.428 302.374C820.77 302.373 821.869 301.923 821.869 301.374C821.869 300.824 822.769 300.374 823.869 300.374C824.969 300.374 825.869 299.923 825.869 299.374C825.869 298.824 826.994 298.374 828.369 298.374C829.744 298.374 830.869 297.924 830.869 297.374C830.869 296.823 831.994 296.373 833.369 296.373C834.744 296.373 835.869 295.923 835.869 295.373C835.869 294.823 836.994 294.373 838.369 294.373C839.744 294.373 840.869 293.923 840.869 293.373C840.869 292.823 841.994 292.373 843.368 292.373C844.743 292.373 845.869 291.923 845.869 291.373C845.869 290.823 847.218 290.373 848.868 290.373C850.518 290.373 851.868 289.923 851.868 289.373C851.869 288.823 852.768 288.373 853.869 288.373C854.968 288.373 855.869 287.923 855.869 287.373C855.869 286.823 857.219 286.373 858.869 286.373C860.519 286.373 861.869 285.923 861.869 285.373C861.869 284.823 862.775 284.373 863.882 284.373C864.99 284.373 866.79 283.923 867.882 283.373C868.975 282.824 870.763 281.923 871.855 281.373C872.948 280.823 874.748 280.373 875.855 280.374C876.963 280.373 877.869 279.924 877.869 279.374C877.869 278.823 879.219 278.374 880.869 278.374C882.519 278.374 883.869 277.923 883.869 277.374C883.869 276.824 884.967 276.374 886.31 276.374C887.652 276.374 889.029 275.924 889.369 275.374C889.708 274.824 891.059 274.374 892.369 274.374C893.679 274.374 895.029 273.924 895.369 273.374C895.709 272.824 896.866 272.374 897.941 272.374C899.016 272.374 900.79 271.924 901.882 271.374C902.975 270.824 904.763 269.924 905.855 269.374C906.948 268.824 909.198 268.374 910.855 268.374C912.513 268.374 913.869 267.924 913.869 267.374C913.869 266.824 914.967 266.374 916.31 266.374C917.652 266.374 919.029 265.924 919.369 265.374C919.708 264.824 921.31 264.374 922.928 264.374C924.545 264.374 925.869 263.924 925.869 263.374C925.869 262.824 927.219 262.374 928.869 262.374C930.519 262.374 931.869 261.924 931.869 261.374C931.869 260.824 933.192 260.374 934.81 260.374C936.427 260.374 938.029 259.924 938.369 259.374C938.709 258.824 940.535 258.374 942.428 258.374C944.32 258.374 945.869 257.924 945.869 257.374C945.869 256.824 947.219 256.374 948.869 256.374C950.519 256.374 951.869 255.924 951.869 255.374C951.869 254.824 953.669 254.374 955.869 254.375C958.069 254.375 959.869 253.924 959.869 253.374C959.869 252.824 961.219 252.374 962.869 252.374C964.519 252.374 965.869 251.924 965.869 251.374C965.869 250.824 967.669 250.374 969.869 250.375C972.069 250.375 973.869 249.925 973.869 249.375C973.869 248.825 975.418 248.375 977.31 248.375C979.203 248.375 981.029 247.925 981.369 247.375C981.709 246.825 983.509 246.375 985.369 246.375C987.229 246.375 989.029 245.925 989.369 245.375C989.709 244.825 991.31 244.375 992.928 244.375C994.546 244.375 995.869 243.925 995.869 243.375C995.869 242.825 997.867 242.375 1000.31 242.375C1002.75 242.375 1005.03 241.925 1005.37 241.375C1005.71 240.825 1007.28 240.375 1008.87 240.375C1010.45 240.375 1012.03 239.925 1012.37 239.375C1012.71 238.825 1014.99 238.375 1017.43 238.375C1019.87 238.375 1021.87 237.971 1021.87 237.476C1021.87 236.63 1023.32 236.336 1035.12 234.794C1037.73 234.453 1039.87 233.769 1039.87 233.275C1039.87 232.78 1042.12 232.375 1044.87 232.375C1047.62 232.375 1049.87 231.925 1049.87 231.375C1049.87 230.825 1051.64 230.375 1053.81 230.375C1055.98 230.375 1058.03 229.925 1058.37 229.375C1058.71 228.825 1061.44 228.375 1064.43 228.375C1067.42 228.375 1069.87 227.925 1069.87 227.375C1069.87 226.825 1072.34 226.375 1075.37 226.375C1078.39 226.375 1080.87 225.965 1080.87 225.464C1080.87 224.963 1083.46 224.323 1086.62 224.041C1089.78 223.76 1094.84 223.008 1097.87 222.37C1100.89 221.732 1106.18 220.984 1109.62 220.708C1113.06 220.431 1115.87 219.793 1115.87 219.29C1115.87 218.787 1118.99 218.375 1122.81 218.375C1126.63 218.375 1130.03 217.925 1130.37 217.375C1130.71 216.825 1134.08 216.376 1137.87 216.375C1141.65 216.375 1145.03 215.925 1145.37 215.375C1145.71 214.825 1149.56 214.375 1153.93 214.375C1158.3 214.375 1161.87 213.954 1161.87 213.44C1161.87 212.562 1166.71 212.172 1194.62 210.805C1200.81 210.502 1205.87 209.831 1205.87 209.315C1205.87 208.769 1212.35 208.375 1221.31 208.375C1230.01 208.375 1237.01 207.959 1237.34 207.423C1238.15 206.113 1345.87 205.996 1345.87 207.305C1345.87 207.87 1352.26 208.492 1361.12 208.79C1369.51 209.072 1382.22 209.764 1389.37 210.329C1396.52 210.893 1406.19 211.617 1410.87 211.938C1415.54 212.258 1419.8 212.938 1420.32 213.448C1420.84 213.958 1424.55 214.375 1428.57 214.375C1432.77 214.375 1435.87 214.8 1435.87 215.375C1435.87 215.947 1438.87 216.375 1442.87 216.375C1446.87 216.375 1449.87 216.804 1449.87 217.375C1449.87 217.947 1452.87 218.375 1456.87 218.375C1460.87 218.375 1463.87 218.804 1463.87 219.375C1463.87 219.93 1466.52 220.375 1469.81 220.375C1473.08 220.375 1476.03 220.825 1476.37 221.375C1476.71 221.925 1479.18 222.375 1481.87 222.375C1484.55 222.375 1487.03 222.825 1487.37 223.375C1487.71 223.925 1489.96 224.375 1492.37 224.375C1494.78 224.375 1497.03 224.825 1497.37 225.375C1497.71 225.925 1500.21 226.375 1502.93 226.375C1505.65 226.375 1507.87 226.825 1507.87 227.375C1507.87 227.925 1510.12 228.375 1512.87 228.375C1515.62 228.375 1517.87 228.825 1517.87 229.375C1517.87 229.925 1519.67 230.375 1521.87 230.375C1524.07 230.375 1525.87 230.825 1525.87 231.375C1525.87 231.925 1528.12 232.375 1530.87 232.375C1533.62 232.375 1535.87 232.825 1535.87 233.375C1535.87 233.925 1537.42 234.375 1539.31 234.375C1541.2 234.375 1543.03 234.825 1543.37 235.375C1543.71 235.925 1545.76 236.375 1547.93 236.375C1550.1 236.375 1551.87 236.825 1551.87 237.375C1551.87 237.925 1553.67 238.375 1555.87 238.375C1558.07 238.375 1559.87 238.825 1559.87 239.375C1559.87 239.925 1561.67 240.375 1563.87 240.375C1566.07 240.375 1567.87 240.825 1567.87 241.375C1567.87 241.925 1569.42 242.375 1571.31 242.375C1573.2 242.375 1575.03 242.825 1575.37 243.375C1575.71 243.925 1577.31 244.375 1578.93 244.375C1580.55 244.375 1581.87 244.825 1581.87 245.375C1581.87 245.925 1583.42 246.375 1585.31 246.375C1587.2 246.375 1589.03 246.825 1589.37 247.375C1589.71 247.925 1591.31 248.375 1592.93 248.375C1594.55 248.375 1595.87 248.825 1595.87 249.375C1595.87 249.925 1597.19 250.375 1598.81 250.375C1600.43 250.375 1602.03 250.825 1602.37 251.375C1602.71 251.925 1604.54 252.375 1606.43 252.375C1608.32 252.375 1609.87 252.825 1609.87 253.375C1609.87 253.925 1610.97 254.375 1612.31 254.375C1613.65 254.375 1615.03 254.825 1615.37 255.375C1615.71 255.925 1617.31 256.375 1618.93 256.375C1620.55 256.376 1621.87 256.825 1621.87 257.375C1621.87 257.925 1622.97 258.375 1624.31 258.375C1625.65 258.375 1627.03 258.825 1627.37 259.375C1627.71 259.925 1629.31 260.375 1630.93 260.375C1632.55 260.375 1633.87 260.825 1633.87 261.375C1633.87 261.925 1635.22 262.375 1636.87 262.375C1638.52 262.375 1639.87 262.825 1639.87 263.375C1639.87 263.925 1640.99 264.375 1642.37 264.375C1643.74 264.376 1644.87 264.825 1644.87 265.375C1644.87 265.925 1646.19 266.375 1647.81 266.375C1649.43 266.375 1651.03 266.825 1651.37 267.375C1651.71 267.925 1652.86 268.375 1653.93 268.375C1655 268.375 1655.87 268.825 1655.87 269.375C1655.87 269.925 1657.22 270.375 1658.87 270.375C1660.52 270.375 1661.87 270.825 1661.87 271.375C1661.87 271.925 1662.97 272.375 1664.31 272.375C1665.65 272.375 1667.03 272.825 1667.37 273.375C1667.71 273.925 1668.86 274.375 1669.93 274.375C1671 274.375 1671.87 274.825 1671.87 275.375C1671.87 275.925 1673.22 276.375 1674.87 276.375C1676.52 276.375 1677.87 276.825 1677.87 277.375C1677.87 277.925 1678.55 278.375 1679.38 278.375C1680.22 278.375 1681.79 278.825 1682.88 279.375L1686.86 281.375C1687.95 281.925 1689.52 282.375 1690.36 282.375C1691.19 282.375 1691.87 282.825 1691.87 283.375C1691.87 283.925 1693.22 284.375 1694.87 284.375C1696.52 284.375 1697.87 284.825 1697.87 285.375C1697.87 285.925 1698.77 286.375 1699.87 286.375C1700.97 286.375 1701.87 286.825 1701.87 287.375C1701.87 287.925 1702.74 288.375 1703.81 288.375C1704.88 288.375 1706.03 288.825 1706.37 289.375C1706.71 289.925 1708.09 290.375 1709.43 290.375C1710.77 290.375 1711.87 290.825 1711.87 291.375C1711.87 291.925 1712.77 292.375 1713.87 292.375C1714.97 292.375 1715.87 292.825 1715.87 293.375C1715.87 293.925 1716.77 294.375 1717.87 294.375C1718.97 294.375 1719.87 294.825 1719.87 295.375C1719.87 295.925 1720.76 296.375 1721.84 296.375C1722.92 296.375 1725.41 297.275 1727.37 298.375C1729.33 299.475 1731.59 300.375 1732.4 300.375C1733.21 300.376 1733.87 300.825 1733.87 301.375C1733.87 301.926 1734.77 302.375 1735.87 302.375C1736.97 302.375 1737.87 302.825 1737.87 303.375C1737.87 303.925 1738.77 304.375 1739.87 304.375C1740.97 304.375 1741.87 304.825 1741.87 305.375C1741.87 305.925 1742.77 306.375 1743.87 306.375C1744.97 306.375 1745.87 306.825 1745.87 307.375C1745.87 307.925 1746.99 308.375 1748.37 308.375C1749.74 308.376 1750.87 308.825 1750.87 309.375C1750.87 309.925 1751.66 310.385 1752.62 310.398C1753.58 310.409 1755.49 311.3 1756.87 312.375C1758.24 313.451 1760.16 314.341 1761.12 314.353C1762.08 314.364 1762.87 314.825 1762.87 315.375C1762.87 315.925 1763.53 316.375 1764.34 316.375C1765.15 316.375 1767.4 317.275 1769.34 318.375C1771.28 319.475 1774.46 321.275 1776.4 322.375C1778.34 323.475 1780.59 324.375 1781.4 324.375C1782.21 324.376 1782.87 324.825 1782.87 325.375C1782.87 325.925 1783.54 326.375 1784.37 326.375C1785.19 326.375 1785.87 326.825 1785.87 327.375C1785.87 327.925 1786.77 328.375 1787.87 328.375C1788.97 328.375 1789.87 328.825 1789.87 329.375C1789.87 329.925 1790.77 330.375 1791.87 330.375C1792.97 330.375 1793.87 330.825 1793.87 331.375C1793.87 331.926 1794.77 332.375 1795.87 332.375C1796.97 332.375 1797.87 332.773 1797.87 333.259C1797.87 333.745 1798.66 334.392 1799.62 334.697C1801.96 335.439 1807.29 338.687 1807.7 339.625C1807.89 340.038 1808.9 340.375 1809.95 340.375C1811.01 340.375 1811.87 340.825 1811.87 341.375C1811.87 341.925 1812.77 342.375 1813.87 342.375C1814.97 342.375 1815.87 342.825 1815.87 343.375C1815.87 343.925 1816.54 344.375 1817.37 344.375C1818.19 344.375 1818.87 344.741 1818.87 345.189C1818.87 345.636 1820.44 346.62 1822.37 347.375C1824.29 348.131 1825.87 349.115 1825.87 349.562C1825.87 350.009 1826.56 350.375 1827.41 350.375C1828.26 350.375 1829.92 351.275 1831.1 352.375C1832.28 353.475 1833.84 354.375 1834.56 354.375C1835.28 354.375 1835.87 354.825 1835.87 355.375C1835.87 355.925 1836.77 356.375 1837.87 356.375C1838.97 356.375 1839.87 356.825 1839.87 357.375C1839.87 357.925 1840.54 358.375 1841.37 358.375C1842.19 358.375 1842.87 358.825 1842.87 359.375C1842.87 359.925 1843.54 360.375 1844.37 360.375C1845.19 360.375 1845.87 360.773 1845.87 361.259C1845.87 361.745 1846.66 362.392 1847.62 362.697C1849.96 363.439 1855.29 366.687 1855.7 367.625C1855.89 368.038 1856.67 368.375 1857.45 368.375C1858.23 368.376 1858.87 368.825 1858.87 369.375C1858.87 369.925 1859.54 370.375 1860.37 370.375C1861.19 370.375 1861.87 370.825 1861.87 371.375C1861.87 371.925 1862.46 372.375 1863.18 372.375C1863.9 372.375 1865.46 373.275 1866.64 374.375C1867.82 375.475 1869.38 376.375 1870.11 376.375C1870.83 376.376 1872.08 377.275 1872.87 378.375C1873.66 379.475 1875.11 380.375 1876.09 380.375C1877.07 380.375 1877.87 380.749 1877.87 381.206C1877.87 381.664 1879.11 382.676 1880.62 383.456C1882.13 384.237 1884.24 385.663 1885.31 386.625C1886.37 387.588 1887.74 388.375 1888.34 388.375C1888.94 388.376 1890.08 389.275 1890.87 390.375C1891.66 391.475 1893.11 392.375 1894.09 392.375C1895.07 392.375 1895.87 392.719 1895.87 393.139C1895.87 393.56 1897.67 395.016 1899.87 396.375C1902.07 397.735 1903.87 399.191 1903.87 399.611C1903.87 400.032 1904.46 400.375 1905.18 400.375C1905.9 400.375 1907.46 401.275 1908.64 402.375C1909.82 403.475 1911.25 404.375 1911.83 404.375C1912.4 404.375 1912.87 404.825 1912.87 405.375C1912.87 405.925 1913.44 406.375 1914.15 406.375C1914.85 406.376 1916.08 407.275 1916.87 408.375C1917.66 409.475 1918.77 410.376 1919.34 410.378C1919.91 410.379 1921.94 411.728 1923.87 413.375C1925.79 415.023 1927.71 416.372 1928.13 416.373C1928.55 416.374 1930.3 417.725 1932.03 419.375C1933.75 421.025 1935.67 422.375 1936.3 422.375C1936.92 422.375 1938.08 423.275 1938.87 424.375C1939.66 425.475 1940.89 426.375 1941.59 426.375C1942.29 426.375 1942.87 426.825 1942.87 427.375C1942.87 427.925 1943.32 428.375 1943.88 428.375C1944.43 428.375 1946.3 429.725 1948.03 431.375C1949.75 433.025 1951.59 434.375 1952.12 434.375C1952.64 434.375 1954.33 435.725 1955.87 437.375C1957.41 439.025 1959.17 440.375 1959.77 440.375C1960.37 440.375 1960.87 440.825 1960.87 441.375C1960.87 441.925 1961.36 442.375 1961.97 442.375C1962.57 442.375 1964.33 443.725 1965.87 445.375C1967.41 447.025 1969.11 448.375 1969.65 448.375C1970.19 448.376 1972.48 450.175 1974.75 452.375C1977.02 454.575 1979.32 456.375 1979.87 456.375C1980.42 456.375 1980.87 456.825 1980.87 457.375C1980.87 457.925 1981.35 458.375 1981.95 458.375C1982.54 458.375 1984.76 460.175 1986.87 462.375C1988.98 464.575 1991.2 466.375 1991.79 466.375C1992.38 466.375 1992.87 466.825 1992.87 467.375C1992.87 467.925 1993.35 468.375 1993.93 468.375C1994.52 468.375 1997.19 470.625 1999.87 473.375C2002.55 476.125 2005.22 478.375 2005.8 478.375C2006.39 478.375 2006.87 478.825 2006.87 479.375C2006.87 479.925 2007.35 480.375 2007.93 480.375C2008.52 480.375 2011.11 482.525 2013.68 485.153C2016.26 487.781 2019.94 491.038 2021.87 492.391C2023.79 493.745 2027.67 497.108 2030.48 499.864C2036.15 505.423 2039.61 508.375 2040.45 508.375C2040.75 508.375 2043.19 510.625 2045.87 513.375C2048.55 516.125 2051.22 518.375 2051.8 518.375C2052.39 518.375 2052.87 518.825 2052.87 519.375C2052.87 519.925 2053.35 520.375 2053.95 520.375C2054.54 520.375 2056.68 522.077 2058.7 524.157C2060.72 526.238 2063.94 529.033 2065.87 530.369C2067.79 531.705 2070.56 534.053 2072.02 535.587C2073.48 537.12 2075.17 538.375 2075.77 538.375C2076.37 538.376 2076.87 538.825 2076.87 539.375C2076.87 539.925 2077.36 540.375 2077.97 540.375C2078.57 540.376 2080.26 541.63 2081.72 543.164C2083.18 544.698 2085.94 547.039 2087.87 548.367C2089.79 549.694 2092.1 551.589 2092.99 552.578C2093.88 553.567 2095.11 554.375 2095.74 554.375C2096.36 554.375 2096.87 554.825 2096.87 555.375C2096.87 555.926 2097.36 556.375 2097.97 556.375C2098.57 556.375 2100.33 557.725 2101.87 559.375C2103.41 561.025 2105.17 562.375 2105.77 562.375C2106.37 562.375 2106.87 562.825 2106.87 563.375C2106.87 563.925 2107.38 564.375 2108 564.375C2108.62 564.376 2109.86 565.184 2110.75 566.173C2111.64 567.161 2113.94 569.052 2115.87 570.375C2117.79 571.697 2119.59 573.047 2119.87 573.375C2120.14 573.703 2121.94 575.054 2123.87 576.376C2125.79 577.698 2128.1 579.589 2128.99 580.578C2129.88 581.567 2131 582.376 2131.49 582.378C2131.97 582.379 2133.94 583.728 2135.87 585.375C2137.79 587.023 2139.71 588.372 2140.13 588.373C2140.55 588.374 2142.3 589.725 2144.03 591.375C2145.75 593.025 2147.67 594.375 2148.3 594.375C2148.92 594.375 2150.08 595.275 2150.87 596.375C2151.66 597.475 2152.82 598.375 2153.44 598.375C2154.06 598.375 2155.99 599.725 2157.71 601.375C2159.44 603.025 2161.36 604.375 2161.99 604.375C2162.62 604.375 2163.86 605.166 2164.75 606.132C2165.64 607.098 2167.61 608.524 2169.12 609.301C2170.63 610.078 2171.87 611.087 2171.87 611.544C2171.87 612.001 2172.54 612.375 2173.37 612.375C2174.19 612.375 2174.87 612.825 2174.87 613.375C2174.87 613.925 2175.54 614.375 2176.37 614.375C2177.19 614.375 2177.87 614.826 2177.87 615.375C2177.87 615.926 2178.54 616.375 2179.37 616.375C2180.19 616.375 2180.87 616.825 2180.87 617.375C2180.87 617.925 2181.44 618.375 2182.15 618.375C2182.85 618.375 2184.08 619.275 2184.87 620.375C2185.66 621.475 2187.11 622.375 2188.09 622.375C2189.07 622.375 2189.87 622.749 2189.87 623.206C2189.87 623.663 2191.11 624.673 2192.62 625.45C2194.13 626.226 2196.1 627.652 2196.99 628.619C2197.88 629.585 2199.24 630.375 2200.02 630.375C2200.79 630.376 2202.08 631.275 2202.87 632.375C2203.66 633.475 2205.11 634.375 2206.09 634.375C2207.07 634.375 2207.87 634.825 2207.87 635.375C2207.87 635.925 2208.54 636.375 2209.37 636.375C2210.19 636.375 2210.87 636.825 2210.87 637.375C2210.87 637.925 2211.34 638.375 2211.91 638.375C2212.48 638.375 2213.92 639.275 2215.1 640.375C2216.28 641.475 2217.84 642.375 2218.56 642.375C2219.28 642.375 2219.87 642.825 2219.87 643.375C2219.87 643.925 2220.46 644.375 2221.18 644.375C2221.9 644.375 2223.46 645.275 2224.64 646.375C2225.82 647.475 2227.27 648.375 2227.87 648.375C2228.47 648.375 2229.92 649.275 2231.1 650.375C2232.28 651.475 2233.84 652.375 2234.56 652.375C2235.28 652.375 2235.87 652.825 2235.87 653.375C2235.87 653.925 2236.46 654.375 2237.18 654.375C2237.9 654.375 2239.46 655.275 2240.64 656.375C2241.82 657.475 2243.48 658.375 2244.33 658.375C2245.18 658.376 2245.87 658.825 2245.87 659.375C2245.87 659.925 2246.54 660.376 2247.37 660.375C2248.19 660.376 2248.87 660.825 2248.87 661.375C2248.87 661.925 2249.54 662.375 2250.37 662.375C2251.19 662.375 2251.87 662.825 2251.87 663.375C2251.87 663.925 2252.77 664.375 2253.87 664.375C2254.97 664.375 2255.87 664.825 2255.87 665.375C2255.87 665.925 2256.54 666.375 2257.37 666.375C2258.19 666.375 2258.87 666.825 2258.87 667.375C2258.87 667.925 2259.54 668.375 2260.37 668.375C2261.19 668.375 2261.87 668.825 2261.87 669.375C2261.87 669.925 2262.77 670.375 2263.87 670.375C2264.97 670.375 2265.87 670.825 2265.87 671.375C2265.87 671.925 2266.46 672.375 2267.18 672.375C2267.9 672.375 2269.46 673.275 2270.64 674.375C2271.82 675.475 2273.48 676.375 2274.33 676.375C2275.18 676.375 2275.87 676.825 2275.87 677.375C2275.87 677.925 2276.77 678.375 2277.87 678.375C2278.97 678.375 2279.87 678.825 2279.87 679.375C2279.87 679.925 2280.56 680.375 2281.41 680.375C2282.26 680.375 2283.92 681.275 2285.1 682.375C2286.28 683.475 2287.84 684.375 2288.56 684.375C2289.28 684.375 2289.87 684.825 2289.87 685.375C2289.87 685.925 2290.77 686.375 2291.87 686.375C2292.97 686.375 2293.87 686.825 2293.87 687.375C2293.87 687.925 2294.77 688.375 2295.87 688.375C2296.97 688.375 2297.87 688.741 2297.87 689.189C2297.87 689.636 2299.44 690.62 2301.37 691.375C2303.29 692.131 2304.87 693.115 2304.87 693.562C2304.87 694.009 2305.77 694.375 2306.87 694.375C2307.97 694.375 2308.87 694.825 2308.87 695.375C2308.87 695.925 2309.54 696.375 2310.37 696.375C2311.19 696.375 2311.87 696.825 2311.87 697.375C2311.87 697.925 2312.77 698.375 2313.87 698.375C2314.97 698.375 2315.87 698.825 2315.87 699.375C2315.87 699.925 2316.77 700.375 2317.87 700.375C2318.97 700.375 2319.87 700.825 2319.87 701.375C2319.87 701.925 2320.77 702.375 2321.87 702.375C2322.97 702.375 2323.87 702.825 2323.87 703.375C2323.87 703.925 2324.77 704.375 2325.87 704.375C2326.97 704.375 2327.87 704.825 2327.87 705.375C2327.87 705.926 2328.77 706.375 2329.87 706.375C2330.97 706.375 2331.87 706.825 2331.87 707.375C2331.87 707.925 2332.77 708.375 2333.87 708.375C2334.97 708.375 2335.87 708.825 2335.87 709.375C2335.87 709.925 2336.77 710.375 2337.87 710.375C2338.97 710.375 2339.87 710.825 2339.87 711.375C2339.87 711.925 2340.77 712.375 2341.87 712.375C2342.97 712.375 2343.87 712.825 2343.87 713.375C2343.87 713.925 2344.77 714.375 2345.87 714.375C2346.97 714.375 2347.87 714.825 2347.87 715.375C2347.87 715.925 2348.77 716.375 2349.87 716.375C2350.97 716.375 2351.87 716.825 2351.87 717.375C2351.87 717.925 2352.77 718.375 2353.87 718.375C2354.97 718.375 2355.87 718.825 2355.87 719.375C2355.87 719.925 2356.77 720.376 2357.87 720.375C2358.97 720.376 2359.87 720.825 2359.87 721.375C2359.87 721.925 2360.77 722.375 2361.87 722.375C2362.97 722.375 2363.87 722.825 2363.87 723.375C2363.87 723.925 2364.53 724.375 2365.34 724.375C2366.15 724.375 2368.41 725.275 2370.37 726.375C2372.33 727.475 2374.59 728.375 2375.4 728.375C2376.21 728.375 2376.87 728.825 2376.87 729.375C2376.87 729.925 2377.99 730.375 2379.37 730.375C2380.74 730.376 2381.87 730.825 2381.87 731.375C2381.87 731.926 2382.77 732.375 2383.87 732.375C2384.97 732.375 2385.87 732.825 2385.87 733.375C2385.87 733.925 2386.77 734.375 2387.87 734.375C2388.97 734.375 2389.87 734.825 2389.87 735.375C2389.87 735.926 2390.97 736.375 2392.31 736.375C2393.65 736.375 2395.03 736.825 2395.37 737.375C2395.71 737.925 2396.86 738.375 2397.93 738.375C2399 738.375 2399.87 738.825 2399.87 739.375C2399.87 739.925 2400.77 740.375 2401.87 740.375C2402.97 740.375 2403.87 740.825 2403.87 741.375C2403.87 741.925 2404.99 742.375 2406.37 742.375C2407.74 742.376 2408.87 742.825 2408.87 743.375C2408.87 743.925 2409.99 744.375 2411.37 744.375C2412.74 744.376 2413.87 744.825 2413.87 745.375C2413.87 745.925 2414.77 746.375 2415.87 746.375C2416.97 746.375 2417.87 746.825 2417.87 747.375C2417.87 747.925 2418.97 748.375 2420.31 748.375C2421.65 748.375 2423.03 748.825 2423.37 749.375C2423.71 749.926 2424.86 750.375 2425.93 750.375C2427 750.375 2427.87 750.825 2427.87 751.375C2427.87 751.926 2428.74 752.375 2429.81 752.375C2430.88 752.375 2432.03 752.825 2432.37 753.375C2432.71 753.926 2434.09 754.375 2435.43 754.375C2436.77 754.375 2437.87 754.825 2437.87 755.375C2437.87 755.926 2438.97 756.375 2440.31 756.375C2441.65 756.375 2443.03 756.825 2443.37 757.375C2443.71 757.926 2444.86 758.375 2445.93 758.375C2447 758.375 2447.87 758.825 2447.87 759.375C2447.87 759.926 2449.22 760.375 2450.87 760.375C2452.52 760.375 2453.87 760.825 2453.87 761.375C2453.87 761.926 2454.74 762.375 2455.81 762.375C2456.88 762.375 2458.03 762.825 2458.37 763.375C2458.71 763.926 2460.09 764.375 2461.43 764.375C2462.77 764.375 2463.87 764.825 2463.87 765.375C2463.87 765.926 2465.22 766.375 2466.87 766.375C2468.52 766.375 2469.87 766.825 2469.87 767.375C2469.87 767.926 2470.97 768.375 2472.31 768.375C2473.65 768.375 2475.03 768.825 2475.37 769.375C2475.71 769.926 2477.06 770.375 2478.37 770.375C2479.68 770.375 2480.97 770.736 2481.25 771.177C2481.52 771.619 2484.02 772.6 2486.81 773.358C2489.59 774.116 2491.87 775.106 2491.87 775.556C2491.87 776.007 2493.42 776.375 2495.31 776.375C2497.2 776.375 2499.03 776.825 2499.37 777.375C2499.71 777.926 2500.86 778.375 2501.93 778.375C2503 778.375 2503.87 778.825 2503.87 779.375C2503.87 779.926 2505.42 780.375 2507.31 780.375C2509.2 780.375 2511.03 780.825 2511.37 781.375C2511.71 781.926 2513.06 782.375 2514.37 782.375C2515.68 782.375 2517.03 782.825 2517.37 783.375C2517.71 783.926 2519.31 784.376 2520.93 784.376C2522.55 784.375 2523.87 784.825 2523.87 785.376C2523.87 785.926 2525.19 786.375 2526.81 786.375C2528.43 786.375 2530.03 786.825 2530.37 787.375C2530.71 787.926 2532.06 788.375 2533.37 788.375C2534.68 788.375 2536.03 788.825 2536.37 789.375C2536.71 789.926 2538.54 790.376 2540.43 790.375C2542.32 790.376 2543.87 790.825 2543.87 791.375C2543.87 791.926 2545.19 792.375 2546.81 792.375C2548.43 792.375 2550.03 792.825 2550.37 793.375C2550.71 793.926 2552.51 794.376 2554.37 794.375C2556.23 794.375 2558.03 794.826 2558.37 795.375C2558.71 795.926 2560.28 796.375 2561.87 796.375C2563.45 796.375 2565.03 796.825 2565.37 797.375C2565.71 797.926 2567.76 798.375 2569.93 798.375C2572.1 798.375 2573.87 798.825 2573.87 799.375C2573.87 799.926 2575.19 800.375 2576.81 800.375C2578.43 800.375 2580.03 800.825 2580.37 801.375C2580.71 801.926 2582.99 802.375 2585.43 802.375C2587.87 802.375 2589.87 802.825 2589.87 803.375C2589.87 803.926 2591.67 804.375 2593.87 804.375C2596.07 804.375 2597.87 804.825 2597.87 805.375C2597.87 805.926 2599.67 806.375 2601.87 806.375C2604.07 806.375 2605.87 806.825 2605.87 807.375C2605.87 807.926 2608.12 808.375 2610.87 808.375C2613.62 808.375 2615.87 808.825 2615.87 809.375C2615.87 809.926 2617.64 810.375 2619.81 810.375C2621.98 810.375 2624.03 810.825 2624.37 811.375C2624.71 811.926 2626.96 812.375 2629.37 812.375C2631.78 812.375 2634.03 812.825 2634.37 813.375C2634.71 813.926 2637.41 814.376 2640.37 814.376C2643.33 814.375 2646.03 814.825 2646.37 815.375C2646.71 815.926 2648.96 816.375 2651.37 816.375C2653.78 816.375 2656.03 816.825 2656.37 817.375C2656.71 817.926 2659.18 818.375 2661.87 818.375C2664.55 818.375 2667.03 818.825 2667.37 819.375C2667.71 819.926 2670.66 820.375 2673.93 820.375C2677.22 820.375 2679.87 820.821 2679.87 821.375C2679.87 821.947 2682.87 822.375 2686.87 822.375C2690.87 822.375 2693.87 822.804 2693.87 823.375C2693.87 823.944 2696.8 824.375 2700.67 824.375C2704.41 824.375 2707.9 824.792 2708.42 825.3C2708.94 825.809 2712.74 826.474 2716.87 826.778C2726.36 827.479 2745.28 829.143 2758.87 830.474C2764.64 831.04 2778.81 831.717 2790.36 831.979C2802.77 832.261 2811.76 832.876 2812.36 833.484C2813.56 834.71 2874.79 834.499 2876.42 833.263Z" fill="url(#paint0_linear_5_26)"/>
</g>
<defs>
<linearGradient id="paint0_linear_5_26" x1="760.739" y1="489.449" x2="3297.87" y2="489.449" gradientUnits="userSpaceOnUse">
<stop stop-color="#F8B366"/>
<stop offset="1" stop-color="#FFAD52"/>
</linearGradient>
<clipPath id="clip0_5_26">
<rect width="4188" height="851" fill="white"/>
</clipPath>
</defs>
</svg>
